<?xml version="1.0" standalone="no"?>
<!DOCTYPE svg PUBLIC "-//W3C//DTD SVG 20010904//EN"
 "http://www.w3.org/TR/2001/REC-SVG-20010904/DTD/svg10.dtd">
<svg version="1.0" xmlns="http://www.w3.org/2000/svg"
 width="700.000000pt" height="700.000000pt" viewBox="0 0 700.000000 700.000000"
 preserveAspectRatio="xMidYMid meet">
<metadata>
Created by potrace 1.14, written by Peter Selinger 2001-2017
</metadata>
<g transform="translate(0.000000,700.000000) scale(0.100000,-0.100000)"
fill="#000000" stroke="none">
<path d="M5675 6528 c0 -260 -1 -480 -3 -488 -3 -13 -247 -15 -2135 -14 -1173
1 -2135 2 -2139 3 -5 0 -8 86 -8 191 l0 189 -193 -1 -192 -1 -5 -191 -5 -191
-495 0 -495 0 0 -195 0 -195 495 0 495 0 3 -2818 2 -2817 195 0 195 0 0 475
c0 445 1 475 18 476 9 0 972 2 2139 2 1879 2 2122 0 2125 -13 2 -8 3 -88 3
-177 -1 -90 1 -164 4 -164 3 -1 90 -2 193 -3 121 -1 189 2 191 9 2 5 3 85 3
177 -1 143 1 168 14 169 8 0 219 1 468 1 l452 1 0 196 0 196 -467 0 -468 -1 0
2828 0 2828 -195 0 -196 0 1 -472z m-2340 -1844 l0 -949 -972 -3 -973 -2 0 85
0 85 870 0 870 0 0 868 0 867 102 -1 103 0 0 -950z m2331 943 c7 -4 11 -1840
5 -1890 -1 -4 -438 -6 -972 -5 l-971 3 -1 83 -2 82 871 0 871 0 0 853 c1 468
2 859 2 868 1 13 16 15 95 14 51 -1 97 -5 102 -8z m-2355 -2286 l26 -1 -1
-997 -1 -998 -972 0 -973 -1 0 132 0 132 848 0 c466 0 857 1 870 1 l22 1 0
863 c0 475 2 866 4 868 4 3 61 3 177 0z m2363 -989 c1 -540 -1 -988 -4 -995
-4 -10 -202 -13 -972 -13 l-968 0 0 132 0 132 838 0 c460 0 851 1 868 1 l31 1
1 853 c0 468 1 858 1 865 1 10 25 12 103 10 l102 -3 0 -983z"/>
</g>
</svg>
