<svg xmlns="http://www.w3.org/2000/svg" version="1.1" xmlns:xlink="http://www.w3.org/1999/xlink" xmlns:svgjs="http://svgjs.com/svgjs" width="512" height="512" x="0" y="0" viewBox="0 0 334.211 221.312" style="enable-background:new 0 0 512 512" xml:space="preserve" class=""><g><path d="M176.124 200.094h146.087v-4H175.267l.509 2.022c.166.66.271 1.32.348 1.978zM236.65.594h-2v17.689c.652-.53 1.329-1.06 2-1.589zM207.029 61.594l.27-.177c-.161.054-.249.09-.261.11l-.04.068h.031zM197.873 59.663l-.119-.069h-.07c.065.021.126.047.189.069zM196.65 21.594h34.047c.775-.665 1.566-1.332 2.371-2H196.65v-19h-2v19h-31.999v2h31.999v37.439c.68.038 1.349.129 2 .278zM323.211 21.594v-2h-6.562v-19h-2v19h-9.884l.396.359 1.784-.331.366 1.972h7.339v38h-38V36.905c-.669.235-1.336.473-2 .712v21.977h-38v-4.971c-.676.358-1.344.715-2 1.068v3.902h-7.041c-1.207.688-2.36 1.355-3.461 2h10.502v38h-38V82.792l-2 .702v16.101h-9.333v2h9.333v38h-9.666v2h9.666v38h-23.535l.503 2h151.594v-2h-6.562v-38h6.562v-2h-6.562v-38h6.562v-2h-6.562v-38h6.562v-2h-6.562v-38h6.561zm-86.561 40h38v38h-38zm38 78.001h-38v-38h38zm-78-38.001h38v38h-38zm0 78.001v-38h38v38zm40 0v-38h38v38zm78 0h-38v-38h38zm0-40h-38v-38h38zm0-40.001h-38v-38h38zM128.706 176.25l-1.857 8.745c4.044-3.547 7.57-7.449 10.732-11.634l-1.588-6.312c-2.226 3.248-4.63 6.324-7.287 9.201zM184.526 87.044l-8.304 2.913c-10.061 14.592-16.711 29.538-22.854 43.356l-.532 1.197 3.915 3.5 1.186-2.666c6.851-15.411 14.345-32.256 26.589-48.3zM92.249 198.679l.354-1.667c-5.253 1.37-11.033 2.432-17.424 3.157.955-1.06 1.502-2.116 1.614-3.143.11-1.004.04-4.35-5.499-5.234-19.723-3.149-51.372.324-55.517 6.094-.801 1.115-.916 2.473-.307 3.633.822 1.565 2.422 4.618 29.67 4.828-10.43 1.795-25.285 3.1-44.841 1.919L0 213.256c5.028.304 9.867.445 14.506.445 22.695-.001 40.514-3.386 51.18-7.728 9.905-.557 18.583-1.813 26.246-3.673a15.466 15.466 0 0 1 .317-3.621zm-27.608 2.345c-2.198.113-4.46.193-6.788.236-22.992.44-32.241-.71-35.898-1.565 7.364-2.761 30.349-5.874 48.551-2.966.421.067.738.145.972.218-.827.939-2.989 2.442-6.837 4.077z" fill="#914139" data-original="#000000" opacity="1" class=""></path><path d="M73.08 115.561c-2.186 4.84-1.107 10.734 3.062 14.462l28.37 25.366-9.328 43.913c-1.434 6.753 2.877 13.391 9.63 14.825.876.186 1.749.275 2.61.275 5.776-.001 10.966-4.028 12.215-9.905l10.536-49.602-25.9-23.158 2.221-1.1 30.227 27.028 11.899 47.285c1.427 5.671 6.519 9.452 12.113 9.452 1.01 0 2.036-.123 3.06-.381 6.695-1.685 10.756-8.478 9.072-15.173l-12.833-51a12.493 12.493 0 0 0-3.791-6.268l-27.736-24.799.86-3.255 9.249-35.003 1.166-4.412 15.189 14.446a8.002 8.002 0 0 0 8.161 1.752l33.5-11.75a7.998 7.998 0 0 0 4.901-10.196c-1.463-4.17-6.025-6.368-10.196-4.901l-28.884 10.131-20.288-19.296a7.959 7.959 0 0 0-4.379-2.116c-.063-.018-.123-.043-.187-.06l-7.591-2.006-29.762-7.864a7.689 7.689 0 0 0-4.397.137 7.957 7.957 0 0 0-3.2 1.317l-18.583 13a8 8 0 0 0-3.009 9.069l8.33 25.165-4.695 17.77-1.364 5.163a7.686 7.686 0 0 0-.248 1.689z" fill="#914139" data-original="#000000" opacity="1" class=""></path><circle cx="125.856" cy="22.502" r="22.5" transform="rotate(-83.57 125.824 22.492)" fill="#914139" data-original="#000000" opacity="1" class=""></circle><path d="m265.866 4.579-1.432-2.637c-42.873 23.265-62.389 56.234-62.581 56.564l2.594 1.508c.188-.322 19.276-32.567 61.419-55.435zM206.293 65.697l1.715 2.461c.471-.328 47.64-32.921 97.082-42.09l-.547-2.949c-50.072 9.285-97.774 42.246-98.25 42.578zM315.953 207.145h18.258v1.75h-18.258zM293.453 207.145h16.125v1.75h-16.125zM258.786 207.145h16.125v1.75h-16.125zM222.444 214.053h16.2v1.75h-16.2zM298.119 215.312h16.125v1.75h-16.125zM284.369 219.562h8.208v1.75h-8.208zM256.369 216.312h8.208v1.75h-8.208zM188.786 208.229h20.717v1.75h-20.717z" fill="#914139" data-original="#000000" opacity="1" class=""></path></g></svg>