<svg xmlns="http://www.w3.org/2000/svg" version="1.1" xmlns:xlink="http://www.w3.org/1999/xlink" xmlns:svgjs="http://svgjs.com/svgjs" width="512" height="512" x="0" y="0" viewBox="0 0 240.702 222.468" style="enable-background:new 0 0 512 512" xml:space="preserve" class=""><g><path d="M239.701 199.5v-4h-59.077l-.514 4zM108.792 195.5v4h22.57l-.513-4zM37.701 19v.029l.027-.029zM240.702 21v-2h-9V0h-2v19h-38V0h-2v19h-38V0h-2v19h-38V0h-2v19h-26.41v2h26.409v19.494a12.067 12.067 0 0 1 2-.189V21h38v38h-16.699l-1.161 2h17.861v38h-38V74.512l-2 3.109V99h-26.41v2h26.409v38H87.726a16.558 16.558 0 0 1 1.796 2h20.18v38h-9.248l.503 2h28.031l-.257-2h-17.03v-38h38v11.623c.696-.04 1.365-.071 2-.095V141h38v38h-6.96l-.257 2h58.217v-2h-9v-38h9v-2h-9v-38h9v-2h-9V61h9v-2h-9V21zm-89 0h38v38h-38zm0 40h38v38h-38zm-40.001 78v-38h38v38zm40.001 0v-38h38v38zm78 40h-38v-38h38zm0-40h-38v-38h38zm0-40h-38V61h38zm0-40h-38V21h38z" fill="#914139" data-original="#000000" opacity="1" class=""></path><path d="m117.53 69.957 3.732-6.29 4.598-7.75 8.763-14.771a4.012 4.012 0 0 0-1.399-5.481l-4.73-2.806a4.012 4.012 0 0 0-5.481 1.399l-4.744 7.996-.87 1.466a10.223 10.223 0 0 1 4.386 6.402 10.233 10.233 0 0 1-1.404 7.757l-8.578 13.332.245.146c.433.257.897.411 1.367.49 1.586.267 3.25-.431 4.115-1.89zM117.924 71.518l1.19-2.007 2.007 1.19-1.19 2.006zM120.055 67.922l1.19-2.007 2.007 1.19-1.19 2.007zM124.226 65.53l1.106-1.863.085-.144-2.007-1.19-.791 1.334-.399.672zM124.32 60.734l1.19-2.006 2.006 1.19-1.19 2.006zM128.492 58.341l1.19-2.007-.703-.417-1.304-.774-.458.774-.732 1.233zM128.586 53.548l1.19-2.006 2.006 1.19-1.19 2.006zM130.718 49.954l1.19-2.006 2.006 1.19-1.19 2.006zM132.849 46.36l1.19-2.007 2.006 1.19-1.19 2.006zM134.982 42.768l1.19-2.006 2.007 1.19-1.19 2.006zM79.475 33.825c-1.742-12.303-13.127-20.866-25.432-19.123-12.303 1.742-20.865 13.13-19.123 25.433a22.45 22.45 0 0 0 2.27 7.138l28.397 7.503c.341.089.693.206 1.097.365l2.644.788c7.182-4.603 11.422-13.105 10.147-22.104z" fill="#914139" data-original="#000000" opacity="1" class=""></path><path d="m6.989 95.063-5.438 20.582c-2.181 4.838-1.1 10.726 3.067 14.451l28.37 25.365-9.329 43.913c-1.435 6.753 2.877 13.391 9.63 14.825.876.186 1.749.275 2.61.275 5.776-.001 10.966-4.028 12.215-9.905l10.537-49.601-25.9-23.158 2.221-1.1 30.227 27.028 11.899 47.285c1.427 5.671 6.519 9.452 12.113 9.452 1.01 0 2.036-.123 3.06-.381 6.695-1.685 10.756-8.478 9.072-15.173l-12.833-51a12.493 12.493 0 0 0-3.791-6.268l-27.577-24.657 11.17-42.275 26.539 7.916a8.004 8.004 0 0 0 9.015-3.338l14.583-22.667a8 8 0 0 0-2.399-11.056 7.998 7.998 0 0 0-11.057 2.399l-11.33 17.61-27.733-8.272a7.85 7.85 0 0 0-.928-.316l-37.353-9.87c-.377-.1-.754-.16-1.13-.202-2.939-1.275-6.482-.709-8.872 1.706l-3.449 3.486L2.313 64.134a8 8 0 0 0-1.998 7.848l4.512 15.604zM180.766 162.965c.028-.12.047-.24.047-.362 0-3.399-11.227-6.154-25.076-6.154s-25.076 2.755-25.076 6.154c0 .122.018.242.047.362l3.535 27.548c.582.053 1.167.09 1.75.09 9.4 0 17.344-7.034 18.759-16.107a2.24 2.24 0 0 1-.925-1.81 2.25 2.25 0 1 1 4.5 0 2.243 2.243 0 0 1-1.605 2.145c-1.577 10.014-10.349 17.772-20.728 17.772-.495 0-.993-.02-1.488-.054l2.317 18.054v.001c0 2.163 8.469 3.917 18.917 3.917s18.917-1.754 18.917-3.917v-.001zm-25.03-3.812c11.211 0 20.299 1.671 20.299 3.732s-9.088 3.732-20.299 3.732-20.299-1.671-20.299-3.732c.001-2.061 9.089-3.732 20.299-3.732zM206.034 206.551h18.258v1.75h-18.258zM183.534 206.551h16.125v1.75h-16.125zM125.542 220.551h16.2v1.75h-16.2z" fill="#914139" data-original="#000000" opacity="1" class=""></path><path d="M54.784 211.134h16.258v1.75H54.784zM188.201 214.718h16.125v1.75h-16.125zM174.451 218.968h8.208v1.75h-8.208zM156.451 220.718h8.208v1.75h-8.208zM109.201 210.968h20.717v1.75h-20.717z" fill="#914139" data-original="#000000" opacity="1" class=""></path></g></svg>