<svg xmlns="http://www.w3.org/2000/svg" version="1.1" xmlns:xlink="http://www.w3.org/1999/xlink" xmlns:svgjs="http://svgjs.com/svgjs" width="512" height="512" x="0" y="0" viewBox="0 0 480 480" style="enable-background:new 0 0 512 512" xml:space="preserve" class=""><g><path d="M472 160H192v-40a8 8 0 0 0-8-8H72a8 8 0 0 0-8 8v40h-8V48h64v24h16V40a8 8 0 0 0-8-8H48a8 8 0 0 0-8 8v120H8a8 8 0 0 0-8 8v272a8 8 0 0 0 8 8h464a8 8 0 0 0 8-8V168a8 8 0 0 0-8-8zM80 128h96v32H80v-32zm40 304H16V208h104v224zm112 0h-96V208h96v224zm120 0H248V208h104v224zm112 0h-96V208h96v224zm0-240H16v-16h448v16z" fill="#ffffff" data-original="#000000" class="" opacity="1"></path><path d="M80 312h32v16H80zM192 312h32v16h-32zM312 312h32v16h-32zM424 312h32v16h-32z" fill="#ffffff" data-original="#000000" class="" opacity="1"></path></g></svg>