<svg xmlns="http://www.w3.org/2000/svg" version="1.1" xmlns:xlink="http://www.w3.org/1999/xlink" xmlns:svgjs="http://svgjs.com/svgjs" width="512" height="512" x="0" y="0" viewBox="0 0 32 32" style="enable-background:new 0 0 512 512" xml:space="preserve" class=""><g><path d="M29.299 22.706v-8.305l.237-.138c.503-.292.803-.813.803-1.394s-.3-1.103-.803-1.395L17.379 4.412a3.306 3.306 0 0 0-3.319 0L1.902 11.475c-.502.292-.802.813-.802 1.394s.3 1.102.802 1.395l3.686 2.142v4.979a3.25 3.25 0 0 0 1.622 2.808l5.074 2.925c1.059.61 2.247.916 3.435.916s2.375-.305 3.435-.916l5.073-2.925a3.248 3.248 0 0 0 1.623-2.808v-4.98l1.649-.958v7.259a1.601 1.601 0 1 0 1.8 0zm-5.248-1.322h-.001c0 .514-.275.992-.721 1.248l-5.073 2.925a5.097 5.097 0 0 1-5.072 0L8.11 22.632a1.443 1.443 0 0 1-.721-1.248v-3.933l6.671 3.876a3.308 3.308 0 0 0 3.32 0l6.671-3.876zm-7.576-1.613a1.506 1.506 0 0 1-1.511 0L3.085 12.869l11.878-6.902a1.506 1.506 0 0 1 1.511 0l11.879 6.901z" fill="#ffffff" data-original="#000000" opacity="1"></path></g></svg>