<svg xmlns="http://www.w3.org/2000/svg" version="1.1" xmlns:xlink="http://www.w3.org/1999/xlink" xmlns:svgjs="http://svgjs.com/svgjs" width="512" height="512" x="0" y="0" viewBox="0 0 260.215 236.683" style="enable-background:new 0 0 512 512" xml:space="preserve" class=""><g><path d="M53.715 179v2h7.837l-.058-2zM94.945 181h21.826l-.793-2h-21.26zM251.215 0h-2v19h-38V0h-2v19h-38V0h-2v19h-38V0h-2v19H93.751a25.136 25.136 0 0 1-2.082 2h37.547v26.581l2-1.433V21h38v30.666c.69.438 1.359.944 2 1.512V21h38v38h-33.87c.045.106.095.204.138.311.226.56.414 1.124.585 1.689h33.146v38h-38v-4.636a31.928 31.928 0 0 1-2-.086V99h-38V83.427l-2 .346V99h-38V88.365l-2-.784V99h-9.333v2h9.333v38h-9.667v2h9.667v16.64l2-.227V141h38v38h-1.94l.793 2h132.147v-2h-9v-38h9v-2h-9v-38h9v-2h-9V61h9v-2h-9V21h9v-2h-9zm-42 101v38h-38v-38zm-40 0v38h-38v-38zm-78 38v-38h38v38zm40 40v-38h38v38zm40 0v-38h38v38zm78 0h-38v-38h38zm0-40h-38v-38h38zm0-40h-38V61h38zm0-40h-38V21h38z" fill="#914139" data-original="#000000" opacity="1"></path><path d="M91.215 59V21.37a37.168 37.168 0 0 1-2 1.542V59H76.581l5.103 2h7.532v2.952l2 .784V61h38v.446l2-.346V61h.576l1.577-.273L132.13 59h-.915v-1.276l-2-2.791V59zM132.837 193.082c1.509-.066 3.075-.104 4.693-.104 11.211 0 20.299 1.671 20.299 3.732 0 .93-1.864 1.779-4.928 2.433v9.961c0 .779-.638 1.417-1.417 1.417s-1.417-.637-1.417-1.417v-9.462a65.21 65.21 0 0 1-2.167.273v16.315c0 .779-.638 1.417-1.417 1.417s-1.417-.637-1.417-1.417v-16.056c-2.332.172-4.871.269-7.537.269a99.53 99.53 0 0 1-9.324-.419c-.103.006-.203.029-.306.029-.528 0-1.039-.08-1.525-.225-5.506-.667-9.144-1.813-9.144-3.116 0-.919 1.817-1.76 4.816-2.41l-.995-2.508c-5.266 1.128-8.598 2.786-8.598 4.637 0 .158.032.314.08.469l4.661 27.5c.198.006.391.03.59.03 9.4 0 17.344-7.033 18.758-16.106a2.241 2.241 0 0 1-.925-1.811 2.25 2.25 0 1 1 4.5 0c0 1.017-.68 1.867-1.606 2.145-1.577 10.013-10.349 17.771-20.727 17.771-.084 0-.165-.012-.248-.013l1.077 6.352c0 2.163 8.469 3.917 18.917 3.917s18.917-1.753 18.917-3.917v-.001l6.08-35.87c.048-.155.08-.311.08-.469 0-3.399-11.227-6.154-25.076-6.154a99.43 99.43 0 0 0-5.718.163l.964 2.429c.027.071.036.144.06.216z" fill="#914139" data-original="#000000" opacity="1"></path><path d="M120.768 170.734c-.456-1.15-1.771-1.718-2.921-1.262s-1.718 1.771-1.262 2.921l9.219 23.238c.456 1.15 4.639-.509 4.183-1.659zM161.375 94.66l15.715-11.262-31.455-43.893-15.715 11.262 6.731 9.392 8.528-1.476-.334-.466a1.88 1.88 0 0 1 .432-2.616 1.88 1.88 0 0 1 2.616.432l1.789 2.496a10.966 10.966 0 0 1 9.048 12.625l3.435 4.793a1.88 1.88 0 0 1-.432 2.616 1.88 1.88 0 0 1-2.616-.432l-2.003-2.795c-.082.126-.154.257-.241.38a10.915 10.915 0 0 1-6.023 4.254zM65.319 54.729l1.707.386.048.119c.695-.208 1.387-.45 2.072-.73 11.052-4.515 16.57-16.811 12.822-27.971-5.092 1.351-9.674 1.835-12.933 1.452a61.344 61.344 0 0 0 6.723-2.306c10.992-4.49 18.691-11.102 17.194-14.765C91.455 7.25 81.33 7.92 70.338 12.41c-.376.154-.738.315-1.106.474a22.42 22.42 0 0 0-17.102-.038c-11.503 4.699-17.019 17.835-12.32 29.338a22.413 22.413 0 0 0 5.581 8.038l19.472 4.404c.152.028.303.068.456.103z" fill="#914139" data-original="#000000" opacity="1"></path><path d="M3.31 116.945c-1.36 3.083-1.49 6.699-.039 10.032l19.031 43.719-21.145 45.742c-2.896 6.267-.165 13.694 6.102 16.592a12.45 12.45 0 0 0 5.237 1.156c4.722 0 9.242-2.689 11.354-7.258l23.5-50.834a12.496 12.496 0 0 0 .114-10.234l-8.47-19.456 24.646 27.247 1.367 47.393c.196 6.778 5.752 12.14 12.488 12.14.122 0 .245-.002.367-.005 6.9-.199 12.334-5.955 12.135-12.855l-1.5-52a12.498 12.498 0 0 0-3.225-8.025l-29-32.059 13.597-51.461 23.091 9.05a8 8 0 0 0 4.283.435l52-9a8 8 0 0 0-2.728-15.766l-49.798 8.619L65.8 57.997a8.03 8.03 0 0 0-1.568-.438l-35.918-8.123-1.133-.256c-.044-.017-.084-.039-.129-.056-8.993-3.38-16.741 6.357-19.288 9.559-3.64 4.577-6.472 9.368-6.59 9.57a7.998 7.998 0 0 0 .284 8.565l7.261 10.65 1.715 2.515z" fill="#914139" data-original="#000000" opacity="1"></path></g></svg>