<svg xmlns="http://www.w3.org/2000/svg" viewBox="0 0 308.06 103.82"><defs fill="#ffffff"><style>.cls-1{fill:#ffffff;}.cls-2{fill:#ffffff;}</style></defs><g id="Layer_2" data-name="Layer 2"><g id="Layer_2-2" data-name="Layer 2"><rect class="cls-1" x="20.57" y="20.25" width="25.71" height="25.71" fill="#ffffff"/><rect class="cls-2" x="55.12" y="20.25" width="25.71" height="25.71" fill="#ffffff"/><rect class="cls-1" x="20.57" y="54.27" width="25.71" height="25.71" fill="#ffffff"/><rect class="cls-2" x="55.12" y="54.27" width="25.71" height="25.71" fill="#ffffff"/><path d="M103.5,83.89H89.68V0H83.89V14.46H20.57V8.79H14.79v5.67H0v5.79H14.79v83.57h5.78V89.68H83.89V95h5.79V89.68H103.5ZM83.89,20.25V48.48H55.12V20.25Zm-34.55,0V48.48H20.57V20.25Zm-28.77,34H49.34V83.89H20.57ZM55.12,83.89V54.27H83.89V83.89Z" fill="#ffffff"/><path d="M139.23,47.82,143.16,27h6l-6.48,29.2h-6l-4.75-19.53-4.76,19.53h-6L114.58,27h6l4,20.74L129.34,27h5.09Z" fill="#ffffff"/><path d="M161.39,56.64a10.67,10.67,0,0,1-7.78-2.93,10.39,10.39,0,0,1-3-7.8v-.56a13.16,13.16,0,0,1,1.26-5.85,9.27,9.27,0,0,1,3.58-4,10,10,0,0,1,5.28-1.39,9,9,0,0,1,7,2.81q2.56,2.8,2.56,8v2.36H156.49a5.39,5.39,0,0,0,1.69,3.41A5.14,5.14,0,0,0,161.77,52,6.25,6.25,0,0,0,167,49.54l2.85,3.19a8.75,8.75,0,0,1-3.53,2.88A11.54,11.54,0,0,1,161.39,56.64Zm-.67-17.83a3.63,3.63,0,0,0-2.8,1.17,6.07,6.07,0,0,0-1.37,3.34h8.07v-.46a4.31,4.31,0,0,0-1.05-3A3.73,3.73,0,0,0,160.72,38.81Z" fill="#ffffff"/><path d="M179.72,56.24H173.9V25.43h5.82Z" fill="#ffffff"/><path d="M190.61,56.24h-5.82V25.43h5.82Z" fill="#ffffff"/><path d="M195.34,28.92a2.86,2.86,0,0,1,.87-2.14,3.78,3.78,0,0,1,4.75,0,2.86,2.86,0,0,1,.88,2.14,2.83,2.83,0,0,1-.9,2.17,3.72,3.72,0,0,1-4.71,0A2.82,2.82,0,0,1,195.34,28.92Zm6.16,27.32h-5.82V34.54h5.82Z" fill="#ffffff"/><path d="M211.6,34.54l.18,2.51A7.59,7.59,0,0,1,218,34.14a6.32,6.32,0,0,1,5.14,2q1.68,2,1.72,6.06v14h-5.8V42.36a3.75,3.75,0,0,0-.8-2.68,3.59,3.59,0,0,0-2.66-.83A4,4,0,0,0,212,40.94v15.3h-5.8V34.54Z" fill="#ffffff"/><path d="M228.43,45.23a12.73,12.73,0,0,1,2.37-8,7.7,7.7,0,0,1,6.41-3,6.74,6.74,0,0,1,5.56,2.45l.24-2.05h5.25v21A9.27,9.27,0,0,1,247,60.47a8.32,8.32,0,0,1-3.64,3.21,12.69,12.69,0,0,1-5.49,1.1,11.84,11.84,0,0,1-4.66-1,8.19,8.19,0,0,1-3.43-2.46l2.57-3.53a6.8,6.8,0,0,0,5.26,2.43A5,5,0,0,0,241.17,59a4.66,4.66,0,0,0,1.28-3.5V54.37a6.72,6.72,0,0,1-5.28,2.27,7.69,7.69,0,0,1-6.33-3.06,12.71,12.71,0,0,1-2.41-8.11Zm5.8.43a7.91,7.91,0,0,0,1.18,4.63A3.76,3.76,0,0,0,238.66,52a4,4,0,0,0,3.79-2V40.84a4,4,0,0,0-3.75-2,3.78,3.78,0,0,0-3.28,1.71A8.9,8.9,0,0,0,234.23,45.66Z" fill="#ffffff"/><path d="M259.66,29.21v5.33h3.71v4.25h-3.71V49.62a2.6,2.6,0,0,0,.46,1.73,2.32,2.32,0,0,0,1.76.52,9.69,9.69,0,0,0,1.71-.14v4.39a11.89,11.89,0,0,1-3.51.52q-6.1,0-6.22-6.16V38.79h-3.17V34.54h3.17V29.21Z" fill="#ffffff"/><path d="M265.09,45.19a13,13,0,0,1,1.24-5.76,9.1,9.1,0,0,1,3.58-3.91,10.49,10.49,0,0,1,5.43-1.38,9.86,9.86,0,0,1,7.17,2.69,10.81,10.81,0,0,1,3.1,7.3l0,1.48a11.33,11.33,0,0,1-2.79,8,10.8,10.8,0,0,1-15,0,11.5,11.5,0,0,1-2.8-8.18Zm5.8.41a8.08,8.08,0,0,0,1.16,4.73,4.18,4.18,0,0,0,6.62,0q1.18-1.62,1.18-5.17a8,8,0,0,0-1.18-4.7,3.86,3.86,0,0,0-3.33-1.67,3.78,3.78,0,0,0-3.29,1.66A9,9,0,0,0,270.89,45.6Z" fill="#ffffff"/><path d="M294.55,34.54l.18,2.51A7.57,7.57,0,0,1,301,34.14a6.28,6.28,0,0,1,5.13,2c1.13,1.35,1.7,3.37,1.73,6.06v14H302V42.36a3.75,3.75,0,0,0-.8-2.68,3.6,3.6,0,0,0-2.67-.83,4,4,0,0,0-3.67,2.09v15.3H289.1V34.54Z" fill="#ffffff"/><path d="M123,70.33H120v7.92H117.7V70.33h-2.87V68.52H123Z" fill="#ffffff"/><path d="M130.31,78.25H128V68.52h2.34Z" fill="#ffffff"/><path d="M138.15,76.45h4.09v1.8h-6.43V68.52h2.34Z" fill="#ffffff"/><path d="M153.12,74.12h-3.69v2.33h4.36v1.8h-6.7V68.52h6.72v1.81h-4.38v2h3.69Z" fill="#ffffff"/><path d="M169.5,74.81h-1.27v3.44h-2.35V68.52h3.83a4.32,4.32,0,0,1,2.71.77,2.59,2.59,0,0,1,1,2.17,3.1,3.1,0,0,1-.41,1.68,2.8,2.8,0,0,1-1.29,1.08l2,3.93v.1h-2.52ZM168.23,73h1.48a1.34,1.34,0,0,0,1-.36,1.62,1.62,0,0,0,0-2,1.32,1.32,0,0,0-1-.36h-1.48Z" fill="#ffffff"/><path d="M184.71,74.12H181v2.33h4.36v1.8h-6.71V68.52h6.72v1.81H181v2h3.69Z" fill="#ffffff"/><path d="M195.22,75.67a1,1,0,0,0-.37-.81,4.42,4.42,0,0,0-1.28-.59,13.66,13.66,0,0,1-1.5-.6,2.82,2.82,0,0,1-1.89-2.55,2.32,2.32,0,0,1,.47-1.43,3.09,3.09,0,0,1,1.34-1,5.16,5.16,0,0,1,1.94-.34,4.57,4.57,0,0,1,1.88.37,3,3,0,0,1,1.29,1.07,2.76,2.76,0,0,1,.46,1.58h-2.34a1.16,1.16,0,0,0-.36-.92,1.43,1.43,0,0,0-1-.33,1.62,1.62,0,0,0-1,.27.88.88,0,0,0-.36.71.86.86,0,0,0,.4.68,5,5,0,0,0,1.41.63,7.63,7.63,0,0,1,1.65.7,2.76,2.76,0,0,1,1.58,2.5,2.39,2.39,0,0,1-1,2,4.31,4.31,0,0,1-2.64.73,5.11,5.11,0,0,1-2.14-.43,3.27,3.27,0,0,1-1.45-1.16,3,3,0,0,1-.48-1.7h2.35a1.46,1.46,0,0,0,.41,1.15,1.88,1.88,0,0,0,1.31.37,1.5,1.5,0,0,0,.92-.25A.84.84,0,0,0,195.22,75.67Z" fill="#ffffff"/><path d="M210.27,70.33h-2.92v7.92H205V70.33h-2.87V68.52h8.14Z" fill="#ffffff"/><path d="M223.17,73.59a5.63,5.63,0,0,1-.53,2.52,3.92,3.92,0,0,1-1.5,1.69,4.17,4.17,0,0,1-2.21.59,4.25,4.25,0,0,1-2.21-.57,4,4,0,0,1-1.5-1.64,5.45,5.45,0,0,1-.56-2.44v-.55a5.76,5.76,0,0,1,.52-2.52,3.92,3.92,0,0,1,1.5-1.69,4.5,4.5,0,0,1,4.44,0,4,4,0,0,1,1.51,1.68,5.5,5.5,0,0,1,.54,2.49Zm-2.38-.41a4,4,0,0,0-.49-2.2,1.56,1.56,0,0,0-1.39-.76c-1.17,0-1.79.89-1.86,2.65v.72a4.2,4.2,0,0,0,.48,2.2,1.65,1.65,0,0,0,2.78,0,4.17,4.17,0,0,0,.49-2.17Z" fill="#ffffff"/><path d="M231.86,74.81h-1.27v3.44h-2.35V68.52h3.83a4.28,4.28,0,0,1,2.71.77,2.6,2.6,0,0,1,1,2.17,3.19,3.19,0,0,1-.41,1.68,2.91,2.91,0,0,1-1.29,1.08l2,3.93v.1h-2.51ZM230.59,73h1.48a1.31,1.31,0,0,0,1-.36,1.37,1.37,0,0,0,.34-1,1.41,1.41,0,0,0-.34-1,1.32,1.32,0,0,0-1-.36h-1.48Z" fill="#ffffff"/><path d="M246.56,76.43h-3.21l-.56,1.82h-2.51l3.57-9.73h2.21l3.59,9.73h-2.52Zm-2.65-1.81H246L245,71.25Z" fill="#ffffff"/><path d="M261.06,70.33h-2.92v7.92h-2.35V70.33h-2.87V68.52h8.14Z" fill="#ffffff"/><path d="M268.41,78.25h-2.34V68.52h2.34Z" fill="#ffffff"/><path d="M282.14,73.59a5.76,5.76,0,0,1-.52,2.52,4,4,0,0,1-1.5,1.69,4.23,4.23,0,0,1-2.22.59,4.28,4.28,0,0,1-2.21-.57,4,4,0,0,1-1.5-1.64,5.58,5.58,0,0,1-.56-2.44v-.55a5.76,5.76,0,0,1,.52-2.52A3.94,3.94,0,0,1,275.66,69a4.49,4.49,0,0,1,4.43,0,4,4,0,0,1,1.51,1.68,5.5,5.5,0,0,1,.54,2.49Zm-2.38-.41a4,4,0,0,0-.49-2.2,1.55,1.55,0,0,0-1.38-.76c-1.18,0-1.8.89-1.87,2.65v.72a4.2,4.2,0,0,0,.48,2.2,1.65,1.65,0,0,0,2.78,0,4.17,4.17,0,0,0,.49-2.17Z" fill="#ffffff"/><path d="M295.34,78.25H293l-3.45-6v6h-2.34V68.52h2.34L293,74.58V68.52h2.34Z" fill="#ffffff"/><path d="M305.71,75.67a1,1,0,0,0-.36-.81,4.51,4.51,0,0,0-1.29-.59,13.4,13.4,0,0,1-1.49-.6,2.82,2.82,0,0,1-1.89-2.55,2.26,2.26,0,0,1,.47-1.43,3.06,3.06,0,0,1,1.33-1,5.2,5.2,0,0,1,1.94-.34,4.51,4.51,0,0,1,1.88.37,2.92,2.92,0,0,1,1.29,1.07,2.77,2.77,0,0,1,.47,1.58h-2.34a1.14,1.14,0,0,0-.37-.92,1.4,1.4,0,0,0-1-.33,1.67,1.67,0,0,0-1,.27.88.88,0,0,0-.36.71.86.86,0,0,0,.4.68,5.33,5.33,0,0,0,1.41.63,7.74,7.74,0,0,1,1.66.7,2.78,2.78,0,0,1,1.58,2.5,2.4,2.4,0,0,1-1,2,4.31,4.31,0,0,1-2.64.73,5.11,5.11,0,0,1-2.14-.43,3.19,3.19,0,0,1-1.44-1.16,3,3,0,0,1-.49-1.7h2.35a1.49,1.49,0,0,0,.41,1.15,1.9,1.9,0,0,0,1.31.37,1.48,1.48,0,0,0,.92-.25A.81.81,0,0,0,305.71,75.67Z" fill="#ffffff"/></g></g></svg>