<svg xmlns="http://www.w3.org/2000/svg" width="692" height="171" viewBox="0 0 692 171" fill="none">
<path d="M191.75 87L185.75 33.375H197.75L202.175 72.525L217.1 61.05V33.375H229.1V61.125L243.875 72.525L248.375 33.375H260.375L254.375 87H244.325L223.1 69.825L201.8 87H191.75ZM286.931 87.375C280.231 87.375 275.006 85.725 271.256 82.425C267.506 79.075 265.631 74.175 265.631 67.725C265.631 61.225 267.506 56.325 271.256 53.025C275.006 49.675 280.231 48 286.931 48H305.681C310.081 48 313.431 49.05 315.731 51.15C318.081 53.2 319.256 56.15 319.256 60C319.256 67.85 314.731 71.775 305.681 71.775H277.331C278.381 76.425 281.581 78.75 286.931 78.75H317.306V87.375H286.931ZM286.931 56.625C281.781 56.625 278.606 58.8 277.406 63.15H305.156C306.156 63.15 306.931 62.85 307.481 62.25C308.081 61.65 308.381 60.825 308.381 59.775C308.381 57.675 307.306 56.625 305.156 56.625H286.931ZM326.018 87V33.375H336.893V87H326.018ZM345.134 87V33.375H356.009V87H345.134ZM364.25 87V48.375H375.125V87H364.25ZM364.175 42V33.525H375.2V42H364.175ZM383.366 87V48.375H417.041C421.441 48.375 424.641 49.475 426.641 51.675C428.691 53.825 429.716 56.675 429.716 60.225V87H418.841V61.5C418.841 58.5 417.341 57 414.341 57H394.241V87H383.366ZM446.715 103.875V95.25H469.365C472.365 95.25 473.865 93.725 473.865 90.675V87H457.365C450.665 87 445.44 85.35 441.69 82.05C437.94 78.75 436.065 73.975 436.065 67.725C436.065 61.425 437.94 56.625 441.69 53.325C445.44 50.025 450.665 48.375 457.365 48.375H484.74V92.025C484.74 95.575 483.715 98.425 481.665 100.575C479.615 102.775 476.415 103.875 472.065 103.875H446.715ZM457.365 78.375H473.865V57H457.365C454.115 57 451.615 57.9 449.865 59.7C448.165 61.45 447.315 64.125 447.315 67.725C447.315 71.275 448.165 73.95 449.865 75.75C451.615 77.5 454.115 78.375 457.365 78.375ZM513.11 87C508.76 87 505.56 85.925 503.51 83.775C501.46 81.575 500.435 78.7 500.435 75.15V57H489.26V48.375H500.435V36.525H511.31V48.375H527.36V57H511.31V73.8C511.31 76.85 512.81 78.375 515.81 78.375H529.46V87H513.11ZM554.851 87.375C548.151 87.375 542.926 85.725 539.176 82.425C535.426 79.075 533.551 74.175 533.551 67.725C533.551 61.225 535.426 56.325 539.176 53.025C542.926 49.675 548.151 48 554.851 48H568.726C575.426 48 580.651 49.675 584.401 53.025C588.151 56.325 590.026 61.225 590.026 67.725C590.026 74.175 588.151 79.075 584.401 82.425C580.651 85.725 575.426 87.375 568.726 87.375H554.851ZM554.851 78.75H568.726C571.976 78.75 574.451 77.85 576.151 76.05C577.901 74.25 578.776 71.475 578.776 67.725C578.776 63.925 577.901 61.125 576.151 59.325C574.451 57.525 571.976 56.625 568.726 56.625H554.851C551.601 56.625 549.101 57.525 547.351 59.325C545.651 61.125 544.801 63.925 544.801 67.725C544.801 71.475 545.651 74.25 547.351 76.05C549.101 77.85 551.601 78.75 554.851 78.75ZM596.794 87V48.375H630.469C634.869 48.375 638.069 49.475 640.069 51.675C642.119 53.825 643.144 56.675 643.144 60.225V87H632.269V61.5C632.269 58.5 630.769 57 627.769 57H607.669V87H596.794Z" fill="#ffffff"/>
<path d="M183.913 125.997V110.612H221.313V125.997H214.428V116.137H205.163V141H198.363V116.137H190.798V125.997H183.913ZM225.551 141V119.112H231.713V141H225.551ZM225.508 115.5V110.697H231.756V115.5H225.508ZM236.383 141V110.612H242.546V141H236.383ZM258.436 141.213C254.639 141.213 251.678 140.277 249.553 138.407C247.428 136.509 246.366 133.732 246.366 130.078C246.366 126.394 247.428 123.617 249.553 121.747C251.678 119.849 254.639 118.9 258.436 118.9H269.061C271.554 118.9 273.453 119.495 274.756 120.685C276.088 121.847 276.753 123.518 276.753 125.7C276.753 130.148 274.189 132.372 269.061 132.372H252.996C253.591 135.007 255.404 136.325 258.436 136.325H275.648V141.213H258.436ZM258.436 123.787C255.518 123.787 253.718 125.02 253.038 127.485H268.763C269.33 127.485 269.769 127.315 270.081 126.975C270.421 126.635 270.591 126.167 270.591 125.572C270.591 124.382 269.982 123.787 268.763 123.787H258.436ZM296.081 141V110.612H321.538C324.683 110.612 327.12 111.406 328.848 112.992C330.605 114.579 331.483 116.987 331.483 120.217C331.483 122.966 330.846 125.119 329.571 126.677C328.296 128.236 326.483 129.213 324.131 129.61L331.143 141H323.408L316.906 129.822H302.881V141H296.081ZM320.731 116.137H302.881V124.255L320.731 124.297C321.978 124.297 322.927 123.986 323.578 123.362C324.258 122.739 324.598 121.691 324.598 120.217C324.598 118.716 324.258 117.667 323.578 117.072C322.927 116.449 321.978 116.137 320.731 116.137ZM347.171 141.213C343.375 141.213 340.414 140.277 338.289 138.407C336.164 136.509 335.101 133.732 335.101 130.078C335.101 126.394 336.164 123.617 338.289 121.747C340.414 119.849 343.375 118.9 347.171 118.9H357.796C360.29 118.9 362.188 119.495 363.491 120.685C364.823 121.847 365.489 123.518 365.489 125.7C365.489 130.148 362.925 132.372 357.796 132.372H341.731C342.326 135.007 344.14 136.325 347.171 136.325H364.384V141.213H347.171ZM347.171 123.787C344.253 123.787 342.454 125.02 341.774 127.485H357.499C358.065 127.485 358.505 127.315 358.816 126.975C359.156 126.635 359.326 126.167 359.326 125.572C359.326 124.382 358.717 123.787 357.499 123.787H347.171ZM368.598 141.213V136.325H389.423C390.613 136.325 391.208 135.659 391.208 134.327C391.208 133.024 390.613 132.372 389.423 132.372H375.95C373.429 132.372 371.516 131.806 370.213 130.672C368.91 129.511 368.258 127.853 368.258 125.7C368.258 123.518 368.91 121.847 370.213 120.685C371.545 119.495 373.457 118.9 375.95 118.9H395.33V123.787H376.248C375.03 123.787 374.42 124.382 374.42 125.572C374.42 126.167 374.59 126.635 374.93 126.975C375.27 127.315 375.71 127.485 376.248 127.485H390.528C392.738 127.485 394.424 128.066 395.585 129.227C396.775 130.361 397.37 132.018 397.37 134.2C397.37 136.41 396.775 138.138 395.585 139.385C394.395 140.603 392.71 141.213 390.528 141.213H368.598ZM412.378 141C409.913 141 408.1 140.391 406.938 139.172C405.776 137.926 405.195 136.297 405.195 134.285V124H398.863V119.112H405.195V112.397H411.358V119.112H420.453V124H411.358V133.52C411.358 135.248 412.208 136.112 413.908 136.112H421.643V141H412.378ZM436.031 141.213C432.234 141.213 429.274 140.277 427.149 138.407C425.024 136.509 423.961 133.732 423.961 130.078C423.961 126.394 425.024 123.617 427.149 121.747C429.274 119.849 432.234 118.9 436.031 118.9H443.894C447.69 118.9 450.651 119.849 452.776 121.747C454.901 123.617 455.964 126.394 455.964 130.078C455.964 133.732 454.901 136.509 452.776 138.407C450.651 140.277 447.69 141.213 443.894 141.213H436.031ZM436.031 136.325H443.894C445.735 136.325 447.138 135.815 448.101 134.795C449.093 133.775 449.589 132.202 449.589 130.078C449.589 127.924 449.093 126.337 448.101 125.317C447.138 124.297 445.735 123.787 443.894 123.787H436.031C434.189 123.787 432.773 124.297 431.781 125.317C430.818 126.337 430.336 127.924 430.336 130.078C430.336 132.202 430.818 133.775 431.781 134.795C432.773 135.815 434.189 136.325 436.031 136.325ZM459.799 141V119.112H476.544C479.009 119.112 480.822 119.736 481.984 120.982C483.146 122.201 483.726 123.816 483.726 125.827V130.375H477.479V126.592C477.479 124.892 476.629 124.042 474.929 124.042H466.046V141H459.799ZM492.931 141C490.636 141 488.879 140.419 487.661 139.257C486.443 138.096 485.833 136.438 485.833 134.285C485.833 132.16 486.443 130.517 487.661 129.355C488.879 128.193 490.636 127.612 492.931 127.612H509.251V126.592C509.251 124.864 508.401 124 506.701 124H488.681V119.112H508.316C510.894 119.112 512.722 119.707 513.798 120.897C514.875 122.059 515.413 123.702 515.413 125.827V141H492.931ZM494.036 136.112H509.251V132.5H494.036C493.498 132.5 493.073 132.67 492.761 133.01C492.478 133.322 492.336 133.747 492.336 134.285C492.336 134.823 492.478 135.262 492.761 135.602C493.073 135.942 493.498 136.112 494.036 136.112ZM531.494 141C529.029 141 527.216 140.391 526.054 139.172C524.892 137.926 524.312 136.297 524.312 134.285V124H517.979V119.112H524.312V112.397H530.474V119.112H539.569V124H530.474V133.52C530.474 135.248 531.324 136.112 533.024 136.112H540.759V141H531.494ZM543.927 141V119.112H550.09V141H543.927ZM543.885 115.5V110.697H550.132V115.5H543.885ZM565.98 141.213C562.183 141.213 559.222 140.277 557.097 138.407C554.972 136.509 553.91 133.732 553.91 130.078C553.91 126.394 554.972 123.617 557.097 121.747C559.222 119.849 562.183 118.9 565.98 118.9H573.842C577.639 118.9 580.6 119.849 582.725 121.747C584.85 123.617 585.912 126.394 585.912 130.078C585.912 133.732 584.85 136.509 582.725 138.407C580.6 140.277 577.639 141.213 573.842 141.213H565.98ZM565.98 136.325H573.842C575.684 136.325 577.087 135.815 578.05 134.795C579.042 133.775 579.537 132.202 579.537 130.078C579.537 127.924 579.042 126.337 578.05 125.317C577.087 124.297 575.684 123.787 573.842 123.787H565.98C564.138 123.787 562.722 124.297 561.73 125.317C560.767 126.337 560.285 127.924 560.285 130.078C560.285 132.202 560.767 133.775 561.73 134.795C562.722 135.815 564.138 136.325 565.98 136.325ZM589.748 141V119.112H608.83C611.323 119.112 613.137 119.736 614.27 120.982C615.432 122.201 616.013 123.816 616.013 125.827V141H609.85V126.55C609.85 124.85 609 124 607.3 124H595.91V141H589.748ZM619.738 141.213V136.325H640.563C641.753 136.325 642.348 135.659 642.348 134.327C642.348 133.024 641.753 132.372 640.563 132.372H627.091C624.569 132.372 622.656 131.806 621.353 130.672C620.05 129.511 619.398 127.853 619.398 125.7C619.398 123.518 620.05 121.847 621.353 120.685C622.685 119.495 624.597 118.9 627.091 118.9H646.471V123.787H627.388C626.17 123.787 625.561 124.382 625.561 125.572C625.561 126.167 625.731 126.635 626.071 126.975C626.411 127.315 626.85 127.485 627.388 127.485H641.668C643.878 127.485 645.564 128.066 646.726 129.227C647.916 130.361 648.511 132.018 648.511 134.2C648.511 136.41 647.916 138.138 646.726 139.385C645.536 140.603 643.85 141.213 641.668 141.213H619.738Z" fill="#ffffff"/>
<g clip-path="url(#clip0_9_12)">
<path d="M76.0154 33.3534H33.7865V75.6999H76.0154V33.3534Z" fill="#92423B"/>
<path d="M132.764 33.3534H90.5353V75.6999H132.764V33.3534Z" fill="#C58133"/>
<path d="M76.0154 89.3871H33.7865V131.734H76.0154V89.3871Z" fill="#92423B"/>
<path d="M132.764 89.3871H90.5353V131.734H132.764V89.3871Z" fill="#C58133"/>
<path d="M170 138.174H147.3V0H137.79V23.8168H33.7865V14.4778H24.2928V23.8168H0V33.3534H24.2928V171H33.7865V147.71H137.79V156.473H147.3V147.71H170V138.174ZM137.79 33.3534V79.8505H90.5353V33.3534H137.79ZM81.0415 33.3534V79.8505H33.7865V33.3534H81.0415ZM33.7865 89.3542H81.0415V138.174H33.7865V89.3542ZM90.5353 138.174V89.3871H137.79V138.174H90.5353Z" fill="#ffffff"/>
</g>
<defs fill="#ffffff">
<clipPath id="clip0_9_12" fill="#ffffff">
<rect width="170" height="171" fill="white"/>
</clipPath>
</defs>
</svg>