<svg width="668" height="534" viewBox="0 0 668 534" fill="none" xmlns="http://www.w3.org/2000/svg">
<path d="M34 133.667L297 309C307.955 316.309 320.83 320.21 334 320.21C347.17 320.21 360.045 316.309 371 309L634 133.667M100.667 500.333H567.333C585.014 500.333 601.971 493.31 614.474 480.807C626.976 468.305 634 451.348 634 433.667V100.333C634 82.6523 626.976 65.6953 614.474 53.1929C601.971 40.6905 585.014 33.6667 567.333 33.6667H100.667C82.9856 33.6667 66.0286 40.6905 53.5262 53.1929C41.0238 65.6953 34 82.6523 34 100.333V433.667C34 451.348 41.0238 468.305 53.5262 480.807C66.0286 493.31 82.9856 500.333 100.667 500.333Z" stroke="#91423A" stroke-width="66.6667" stroke-linecap="round" stroke-linejoin="round"/>
</svg>
