<svg width="800" height="800" viewBox="0 0 800 800" fill="none" xmlns="http://www.w3.org/2000/svg">
<path fill-rule="evenodd" clip-rule="evenodd" d="M622.167 478.233C596.48 474.963 571.264 468.698 547.033 459.567C537.381 456.011 526.921 455.25 516.855 457.373C506.79 459.496 497.528 464.416 490.133 471.567C470.2 491.733 438.9 496.4 415.967 479.7C379.767 453.328 347.905 421.467 321.533 385.267C304.833 362.333 309.467 331.033 329.667 311.1C344 296.067 348.633 274.233 341.667 254.667C331.697 229.945 324.682 204.133 320.767 177.767C318.284 165.219 311.517 153.925 301.623 145.819C291.729 137.713 279.324 133.299 266.533 133.333H186.967C171.8 133.333 157.3 139.6 146.967 150.667C136.9 161.8 132.067 176.667 133.633 191.567C142.231 274.333 170.42 353.861 215.867 423.567C257.083 488.316 312.009 543.23 376.767 584.433C446.591 629.364 525.875 657.511 608.4 666.667H612.833C626.367 666.767 639.4 661.667 649.3 652.433C654.785 647.416 659.16 641.307 662.145 634.499C665.13 627.691 666.659 620.334 666.633 612.9V533.333C667.144 520.323 662.919 507.57 654.742 497.437C646.565 487.305 634.991 480.482 622.167 478.233Z" stroke="#91423A" stroke-width="66.6667" stroke-linecap="round"/>
</svg>
