<svg xmlns="http://www.w3.org/2000/svg" version="1.1" xmlns:xlink="http://www.w3.org/1999/xlink" xmlns:svgjs="http://svgjs.com/svgjs" width="512" height="512" x="0" y="0" viewBox="0 0 64 64" style="enable-background:new 0 0 512 512" xml:space="preserve" class=""><g><path d="M11 34v15H8a1 1 0 0 0-1 1v12a1 1 0 0 0 1 1h4a1 1 0 0 0 1-1v-.026A4.948 4.948 0 0 0 16 63h14a4.948 4.948 0 0 0 3-1.026V62a1 1 0 0 0 1 1h4a1 1 0 0 0 1-1V50a1 1 0 0 0-1-1h-3v-2.1a5.009 5.009 0 0 0 4-4.9V9a4.009 4.009 0 0 1 2-3.457V15a1 1 0 0 0 .445.832L50 21.535V53a1 1 0 0 0-1 1v8a1 1 0 0 0 1 1h6a1 1 0 0 0 1-1v-8a1 1 0 0 0-1-1V7a1 1 0 0 0-1-1h-3.638l-5.11-4.259a3.19 3.19 0 0 0-5.112 1.575A6.006 6.006 0 0 0 37 9v33a3 3 0 0 1-2 2.816V34a5 5 0 0 0-4.146-4.914L28.1 13.47l2.456-1.638A1 1 0 0 0 31 11V6a5.006 5.006 0 0 0-5-5h-6a5.006 5.006 0 0 0-5 5v5a1 1 0 0 0 .445.832L17.9 13.47l-2.754 15.616A5 5 0 0 0 11 34Zm32-19.535v-6.6l7 4.667v6.6ZM54 36h-2v-8h2Zm1 25h-4v-6h4Zm-3-8V38h2v15Zm2-27h-2V8h2ZM44.2 3a1.209 1.209 0 0 1 .77.278L50 7.469v2.663l-7-4.667V4.2A1.2 1.2 0 0 1 44.2 3ZM33 42.382l-5.447 2.723A1 1 0 0 0 27 46v15h-8V46a1 1 0 0 0-.553-.9L13 42.382V36h20ZM11 61H9V51h2v10Zm2-3V44.618l4 2V61h-1a3 3 0 0 1-3-3Zm17 3h-1V46.618l4-2V58a3 3 0 0 1-3 3Zm7-10v10h-2V51Zm-4-17H13a3 3 0 0 1 3-3h14a3 3 0 0 1 3 3Zm-11.847-5 1.7-11.869a.158.158 0 0 1 .3 0L24.847 29ZM20 3h6a3 3 0 0 1 2.816 2H17.184A3 3 0 0 1 20 3Zm-3 7.465V7h12v3.465l-2.093 1.395a9.632 9.632 0 0 0-7.814 0Zm2.893 3.224a7.6 7.6 0 0 1 6.214 0L28.808 29h-1.94l-1.736-12.151a2.154 2.154 0 0 0-4.264 0L19.132 29h-1.94Z" fill="#ffffff" data-original="#000000" class="" opacity="1"></path><circle cx="23" cy="57" r="2" fill="#ffffff" data-original="#000000" class="" opacity="1"></circle><path d="M23 46a2.993 2.993 0 0 0 1-5.814V38h-2v2.18A2.992 2.992 0 0 0 23 46Zm0-4a1 1 0 1 1-1 1 1 1 0 0 1 1-1Z" fill="#ffffff" data-original="#000000" class="" opacity="1"></path></g></svg>