<svg xmlns="http://www.w3.org/2000/svg" version="1.1" xmlns:xlink="http://www.w3.org/1999/xlink" xmlns:svgjs="http://svgjs.com/svgjs" width="512" height="512" x="0" y="0" viewBox="0 0 512 512" style="enable-background:new 0 0 512 512" xml:space="preserve" class=""><g><path d="M86.527 136.496a7.5 7.5 0 0 0-7.5 7.5v9.469a7.5 7.5 0 0 0 7.5 7.5 7.5 7.5 0 0 0 7.5-7.5v-9.469c0-4.14-3.359-7.5-7.5-7.5zM126.977 136.496c-4.141 0-7.5 3.36-7.5 7.5v9.469c0 4.14 3.359 7.5 7.5 7.5 4.144 0 7.5-3.356 7.5-7.5v-9.469a7.5 7.5 0 0 0-7.5-7.5zM167.43 136.496a7.5 7.5 0 0 0-7.5 7.5v9.469a7.5 7.5 0 0 0 7.5 7.5 7.5 7.5 0 0 0 7.5-7.5v-9.469c0-4.14-3.36-7.5-7.5-7.5zM207.879 136.496c-4.14 0-7.5 3.36-7.5 7.5v9.469c0 4.14 3.36 7.5 7.5 7.5 4.144 0 7.5-3.356 7.5-7.5v-9.469a7.5 7.5 0 0 0-7.5-7.5zM248.332 136.496a7.5 7.5 0 0 0-7.5 7.5v9.469a7.5 7.5 0 0 0 7.5 7.5 7.5 7.5 0 0 0 7.5-7.5v-9.469c0-4.14-3.36-7.5-7.5-7.5zM106.754 178.57a7.5 7.5 0 0 0-7.5 7.5v9.47c0 4.144 3.355 7.5 7.5 7.5a7.5 7.5 0 0 0 7.5-7.5v-9.47c0-4.14-3.36-7.5-7.5-7.5zM147.203 178.57a7.5 7.5 0 0 0-7.5 7.5v9.47c0 4.144 3.356 7.5 7.5 7.5a7.5 7.5 0 0 0 7.5-7.5v-9.47c0-4.14-3.36-7.5-7.5-7.5zM187.652 178.57c-4.14 0-7.5 3.36-7.5 7.5v9.47a7.5 7.5 0 0 0 7.5 7.5c4.145 0 7.5-3.356 7.5-7.5v-9.47a7.5 7.5 0 0 0-7.5-7.5zM228.105 178.57a7.5 7.5 0 0 0-7.5 7.5v9.47c0 4.144 3.356 7.5 7.5 7.5a7.5 7.5 0 0 0 7.5-7.5v-9.47c0-4.14-3.359-7.5-7.5-7.5zM86.527 215.387a7.497 7.497 0 0 0-7.5 7.5v9.465c0 4.144 3.356 7.5 7.5 7.5a7.5 7.5 0 0 0 7.5-7.5v-9.465a7.5 7.5 0 0 0-7.5-7.5zM126.977 215.387a7.5 7.5 0 0 0-7.5 7.5v9.465a7.5 7.5 0 0 0 7.5 7.5c4.144 0 7.5-3.356 7.5-7.5v-9.465c0-4.145-3.356-7.5-7.5-7.5zM167.43 215.387a7.497 7.497 0 0 0-7.5 7.5v9.465c0 4.144 3.355 7.5 7.5 7.5a7.5 7.5 0 0 0 7.5-7.5v-9.465a7.5 7.5 0 0 0-7.5-7.5zM207.879 215.387a7.5 7.5 0 0 0-7.5 7.5v9.465a7.5 7.5 0 0 0 7.5 7.5c4.144 0 7.5-3.356 7.5-7.5v-9.465c0-4.145-3.356-7.5-7.5-7.5zM248.332 215.387a7.497 7.497 0 0 0-7.5 7.5v9.465c0 4.144 3.356 7.5 7.5 7.5a7.5 7.5 0 0 0 7.5-7.5v-9.465a7.5 7.5 0 0 0-7.5-7.5zM106.754 257.46a7.497 7.497 0 0 0-7.5 7.5v9.466c0 4.144 3.355 7.5 7.5 7.5a7.5 7.5 0 0 0 7.5-7.5v-9.465a7.5 7.5 0 0 0-7.5-7.5zM147.203 257.46a7.497 7.497 0 0 0-7.5 7.5v9.466c0 4.144 3.356 7.5 7.5 7.5a7.5 7.5 0 0 0 7.5-7.5v-9.465a7.5 7.5 0 0 0-7.5-7.5zM187.652 257.46a7.5 7.5 0 0 0-7.5 7.5v9.466a7.5 7.5 0 0 0 7.5 7.5c4.145 0 7.5-3.356 7.5-7.5v-9.465c0-4.145-3.355-7.5-7.5-7.5zM228.105 257.46a7.497 7.497 0 0 0-7.5 7.5v9.466c0 4.144 3.356 7.5 7.5 7.5a7.5 7.5 0 0 0 7.5-7.5v-9.465a7.5 7.5 0 0 0-7.5-7.5zM86.527 294.273a7.5 7.5 0 0 0-7.5 7.5v9.47a7.5 7.5 0 1 0 15 0v-9.47c0-4.14-3.359-7.5-7.5-7.5zM126.977 294.273c-4.141 0-7.5 3.36-7.5 7.5v9.47a7.5 7.5 0 1 0 15 0v-9.47a7.5 7.5 0 0 0-7.5-7.5zM167.43 294.273a7.5 7.5 0 0 0-7.5 7.5v9.47a7.5 7.5 0 1 0 15 0v-9.47c0-4.14-3.36-7.5-7.5-7.5zM207.879 294.273c-4.14 0-7.5 3.36-7.5 7.5v9.47a7.5 7.5 0 1 0 15 0v-9.47a7.5 7.5 0 0 0-7.5-7.5zM248.332 294.273a7.5 7.5 0 0 0-7.5 7.5v9.47a7.5 7.5 0 1 0 15 0v-9.47c0-4.14-3.36-7.5-7.5-7.5zM126.977 380.2c-4.141 0-7.5 3.359-7.5 7.5v9.468a7.5 7.5 0 1 0 15 0v-9.469a7.5 7.5 0 0 0-7.5-7.5zM167.43 380.2a7.5 7.5 0 0 0-7.5 7.5v9.468a7.5 7.5 0 1 0 15 0v-9.469c0-4.14-3.36-7.5-7.5-7.5zM207.879 380.2c-4.14 0-7.5 3.359-7.5 7.5v9.468a7.5 7.5 0 1 0 15 0v-9.469a7.5 7.5 0 0 0-7.5-7.5zM106.754 337.398a7.5 7.5 0 0 0-7.5 7.5v9.47a7.5 7.5 0 1 0 15 0v-9.47c0-4.14-3.36-7.5-7.5-7.5zM147.203 337.398a7.5 7.5 0 0 0-7.5 7.5v9.47a7.5 7.5 0 1 0 15 0v-9.47c0-4.14-3.36-7.5-7.5-7.5zM187.652 337.398c-4.14 0-7.5 3.36-7.5 7.5v9.47a7.5 7.5 0 1 0 15 0v-9.47a7.5 7.5 0 0 0-7.5-7.5zM228.105 337.398a7.5 7.5 0 0 0-7.5 7.5v9.47a7.5 7.5 0 1 0 15 0v-9.47c0-4.14-3.359-7.5-7.5-7.5zm0 0" fill="#ffffff" data-original="#000000" class="" opacity="1"></path><path d="M424.3 449.398h-30.386V405c0-4.145-3.355-7.5-7.5-7.5a7.5 7.5 0 0 0-7.5 7.5v44.398H355.32V15h23.594v353.5a7.5 7.5 0 0 0 7.5 7.5c4.145 0 7.5-3.355 7.5-7.5v-356c0-6.895-5.605-12.5-12.5-12.5H172.43c-6.895 0-12.5 5.605-12.5 12.5v17.54c-24.2 3.476-43.086 23.519-44.707 48.194h-4.578c-6.891 0-12.5 5.606-12.5 12.5v18.45c0 6.894 5.609 12.5 12.5 12.5h113.562c6.895 0 12.5-5.606 12.5-12.5v-18.45c0-6.894-5.605-12.5-12.5-12.5h-4.578c-1.617-24.675-20.504-44.718-44.7-48.195V15h165.395v217.277h-10.691c-6.895 0-12.5 5.61-12.5 12.5v77.043c0 6.895 5.605 12.5 12.5 12.5h10.691v115.078H121.398a7.5 7.5 0 1 0 0 15h300.403V497H15v-32.602h71.898c4.145 0 7.5-3.355 7.5-7.5a7.5 7.5 0 0 0-7.5-7.5H12.5c-6.895 0-12.5 5.61-12.5 12.5V499.5c0 6.895 5.605 12.5 12.5 12.5h411.8c6.891 0 12.5-5.605 12.5-12.5v-37.602c0-6.89-5.609-12.5-12.5-12.5zM204.59 78.234h-6.192a7.5 7.5 0 1 0 0 15h23.309v13.45H113.145v-13.45h49.253c4.145 0 7.5-3.355 7.5-7.5s-3.355-7.5-7.5-7.5h-32.136c1.75-18.894 17.746-33.742 37.168-33.742 19.418 0 35.414 14.848 37.16 33.742zM340.324 319.32h-8.191v-72.043h8.191zm0 0" fill="#ffffff" data-original="#000000" class="" opacity="1"></path></g></svg>