<?xml version="1.0" encoding="UTF-8"?>
<svg xmlns="http://www.w3.org/2000/svg" xmlns:xlink="http://www.w3.org/1999/xlink" version="1.1" id="Capa_1" x="0px" y="0px" viewBox="0 0 512 512" style="enable-background:new 0 0 512 512;" xml:space="preserve" width="512" height="512">
<g>
	<g>
		<path style="fill:#E5EEF9;" d="M324.188,98.995V39.463H187.812v59.531c0,5.986-4.368,11.048-10.279,11.99&#10;&#9;&#9;&#9;c-48.611,7.75-85.763,49.861-85.763,100.655v272.358c0,11.323,9.179,20.502,20.502,20.502h287.456&#10;&#9;&#9;&#9;c11.323,0,20.502-9.179,20.502-20.502V211.639c0-50.793-37.151-92.905-85.763-100.655&#10;&#9;&#9;&#9;C328.556,110.043,324.188,104.98,324.188,98.995z"/>
		<path style="fill:#C4E2FF;" d="M334.467,110.985c-5.911-0.942-10.279-6.004-10.279-11.99V39.463h-28v74.531&#10;&#9;&#9;&#9;c0,5.986,4.368,11.048,10.279,11.99c48.611,7.75,85.763,45.758,85.763,100.655v257.358c0,11.323-9.179,20.502-20.502,20.502h28&#10;&#9;&#9;&#9;c11.323,0,20.502-9.179,20.502-20.502V211.639C420.23,160.846,383.079,118.735,334.467,110.985z"/>
		<path style="fill:#60B7FF;" d="M171.695,462.864H420.23V211.639c0-13.485-2.641-26.348-7.398-38.129H171.695&#10;&#9;&#9;&#9;c-8.635,0-15.635,7-15.635,15.635v258.084C156.061,455.864,163.061,462.864,171.695,462.864z"/>
		<path style="fill:#14A1F7;" d="M392.23,462.864h28V211.639c0-13.485-2.641-26.348-7.398-38.129h-34.465&#10;&#9;&#9;&#9;c8.804,14.974,13.862,32.899,13.862,53.129V462.864z"/>
		<path style="fill:#FE73C5;" d="M420.23,211.639c0-13.486-2.641-26.348-7.398-38.129H171.695c-8.635,0-15.635,7-15.635,15.635&#10;&#9;&#9;&#9;v80.32H308.79c3.528,0,6.84,1.782,8.711,4.774c8.619,13.78,23.929,22.946,41.381,22.946c17.452,0,32.761-9.166,41.381-22.946&#10;&#9;&#9;&#9;c1.871-2.991,5.182-4.773,8.711-4.773h11.257V211.639z"/>
		<path style="fill:#E759AA;" d="M408.973,269.466h11.257v-57.826c0-13.486-2.641-26.348-7.398-38.129h-34.465&#10;&#9;&#9;&#9;c8.804,14.974,13.862,32.899,13.862,53.129v57.344c3.075-2.884,5.785-6.153,8.032-9.745&#10;&#9;&#9;&#9;C402.133,271.248,405.444,269.466,408.973,269.466z"/>
		<path style="fill:#E5EEF9;" d="M362.903,215.304c-1.981-2.747-6.061-2.747-8.043,0c-5.716,7.926-15.507,22.617-15.507,30.253&#10;&#9;&#9;&#9;c0,10.785,8.743,19.528,19.528,19.528c10.785,0,19.528-8.743,19.528-19.528C378.409,237.92,368.619,223.23,362.903,215.304z"/>
		<path style="fill:#E5EEF9;" d="M196.181,316.859v100.174c0,3.368,2.73,6.098,6.098,6.098h100.175c3.368,0,6.098-2.73,6.098-6.098&#10;&#9;&#9;&#9;V316.859c0-3.368-2.73-6.098-6.098-6.098H202.279C198.911,310.761,196.181,313.491,196.181,316.859z"/>
		<path style="fill:#537983;" d="M162.934,58.847V17.5c0-5.523,4.477-10,10-10h166.132c5.523,0,10,4.477,10,10v41.347&#10;&#9;&#9;&#9;c0,5.523-4.477,10-10,10H172.934C167.411,68.847,162.934,64.37,162.934,58.847z"/>
		<path style="fill:#466470;" d="M339.066,7.5h-27c5.523,0,10,4.477,10,10v41.347c0,5.523-4.477,10-10,10h27c5.523,0,10-4.477,10-10&#10;&#9;&#9;&#9;V17.5C349.066,11.977,344.589,7.5,339.066,7.5z"/>
	</g>
	<g>
		<path style="fill:none;stroke:#000000;stroke-width:15;stroke-linecap:round;stroke-linejoin:round;stroke-miterlimit:10;" d="&#10;&#9;&#9;&#9;M412.832,173.511H171.695c-8.635,0-15.635,7-15.635,15.635v258.084c0,8.635,7,15.635,15.635,15.635H420.23"/>
		<path style="fill:none;stroke:#000000;stroke-width:15;stroke-linecap:round;stroke-linejoin:round;stroke-miterlimit:10;" d="&#10;&#9;&#9;&#9;M362.903,215.304c-1.981-2.747-6.061-2.747-8.043,0c-5.716,7.926-15.507,22.617-15.507,30.253&#10;&#9;&#9;&#9;c0,10.785,8.743,19.528,19.528,19.528c10.785,0,19.528-8.743,19.528-19.528C378.409,237.92,368.619,223.23,362.903,215.304z"/>
		<g>
			
				<line style="fill:none;stroke:#000000;stroke-width:15;stroke-linecap:round;stroke-linejoin:round;stroke-miterlimit:10;" x1="224.013" y1="204.177" x2="282.752" y2="204.177"/>
			
				<line style="fill:none;stroke:#000000;stroke-width:15;stroke-linecap:round;stroke-linejoin:round;stroke-miterlimit:10;" x1="224.013" y1="238.799" x2="282.752" y2="238.799"/>
		</g>
		<g>
			
				<polyline style="fill:none;stroke:#000000;stroke-width:15;stroke-linecap:round;stroke-linejoin:round;stroke-miterlimit:10;" points="&#10;&#9;&#9;&#9;&#9;234.822,339.37 252.404,366.35 269.911,339.51 &#9;&#9;&#9;"/>
			
				<line style="fill:none;stroke:#000000;stroke-width:15;stroke-linecap:round;stroke-linejoin:round;stroke-miterlimit:10;" x1="252.404" y1="394.522" x2="252.404" y2="366.35"/>
		</g>
		<path style="fill:none;stroke:#000000;stroke-width:15;stroke-linecap:round;stroke-linejoin:round;stroke-miterlimit:10;" d="&#10;&#9;&#9;&#9;M196.181,316.859v100.174c0,3.368,2.73,6.098,6.098,6.098h100.175c3.368,0,6.098-2.73,6.098-6.098V316.859&#10;&#9;&#9;&#9;c0-3.368-2.73-6.098-6.098-6.098H202.279C198.911,310.761,196.181,313.491,196.181,316.859z"/>
		<path style="fill:none;stroke:#000000;stroke-width:15;stroke-linecap:round;stroke-linejoin:round;stroke-miterlimit:10;" d="&#10;&#9;&#9;&#9;M156.061,269.466H308.79c3.528,0,6.84,1.782,8.711,4.774c8.619,13.78,23.929,22.946,41.381,22.946&#10;&#9;&#9;&#9;c17.452,0,32.761-9.166,41.381-22.946c1.871-2.991,5.182-4.773,8.711-4.773h11.257"/>
		<path style="fill:none;stroke:#000000;stroke-width:15;stroke-linecap:round;stroke-linejoin:round;stroke-miterlimit:10;" d="&#10;&#9;&#9;&#9;M420.23,400.36V484c0,11.32-9.18,20.5-20.5,20.5H112.27c-11.32,0-20.5-9.18-20.5-20.5V211.64c0-50.79,37.15-92.91,85.76-100.66&#10;&#9;&#9;&#9;c5.91-0.94,10.28-6,10.28-11.99V68.85"/>
		<path style="fill:none;stroke:#000000;stroke-width:15;stroke-linecap:round;stroke-linejoin:round;stroke-miterlimit:10;" d="&#10;&#9;&#9;&#9;M324.19,68.85v30.14c0,5.99,4.37,11.05,10.28,11.99c48.61,7.75,85.76,49.87,85.76,100.66v153.72"/>
		<path style="fill:none;stroke:#000000;stroke-width:15;stroke-linecap:round;stroke-linejoin:round;stroke-miterlimit:10;" d="&#10;&#9;&#9;&#9;M238.856,7.5h100.211c5.523,0,10,4.477,10,10v41.347c0,5.523-4.477,10-10,10H172.934c-5.523,0-10-4.477-10-10V17.5&#10;&#9;&#9;&#9;c0-5.523,4.477-10,10-10h30.922"/>
	</g>
</g>















</svg>
