<svg xmlns="http://www.w3.org/2000/svg" version="1.1" xmlns:xlink="http://www.w3.org/1999/xlink" xmlns:svgjs="http://svgjs.com/svgjs" width="512" height="512" x="0" y="0" viewBox="0 0 60 60" style="enable-background:new 0 0 512 512" xml:space="preserve" class=""><g><g fill="#000" fill-rule="nonzero"><path d="M31.432.767A2.881 2.881 0 0 0 29.471 0h-14.16a2.891 2.891 0 0 0-2.756 3.762L16.1 14.979A2.879 2.879 0 0 0 18.855 17H23c.206.001.407.064.577.179l8.991 6.3c.486.34 1.066.522 1.659.521h5.882A2.894 2.894 0 0 0 43 21.109v-8.4a2.9 2.9 0 0 0-.931-2.125zM41 21.109a.891.891 0 0 1-.891.891h-5.882a.893.893 0 0 1-.512-.161l-9.005-6.308A3.054 3.054 0 0 0 23 15h-4.145a.887.887 0 0 1-.849-.623L14.461 3.159A.891.891 0 0 1 15.311 2h14.16c.223 0 .437.085.6.236l10.638 9.817a.891.891 0 0 1 .287.655zM57.109 0H40.953a2.891 2.891 0 0 0-1.962 5.014l4.063 3.753a2.907 2.907 0 0 0 2.777.65l12.094-3.558A2.909 2.909 0 0 0 60 3.085v-.194A2.894 2.894 0 0 0 57.109 0zM58 3.085a.9.9 0 0 1-.64.855L45.267 7.5a.9.9 0 0 1-.856-.2l-4.062-3.755A.891.891 0 0 1 40.953 2h16.156c.492 0 .891.399.891.891zM58.84 8.883a2.863 2.863 0 0 0-2.547-.458l-9.219 2.716A2.907 2.907 0 0 0 45 13.914v7.2A2.894 2.894 0 0 0 47.891 24h1.951c.08 0 .161 0 .238-.01l7.267-.6A2.908 2.908 0 0 0 60 20.509V11.2a2.866 2.866 0 0 0-1.16-2.317zM58 20.509a.9.9 0 0 1-.817.888l-7.341.6h-1.951a.891.891 0 0 1-.891-.888v-7.2a.9.9 0 0 1 .639-.854l9.218-2.717A.89.89 0 0 1 58 11.2zM56.869 25.434l-4.109.341a2.907 2.907 0 0 0-2.54 2.088l-2.627 9.213a2.9 2.9 0 0 0 .735 2.837l6.736 6.743a2.856 2.856 0 0 0 3.151.627A2.846 2.846 0 0 0 60 44.612v-16.3a2.892 2.892 0 0 0-3.131-2.88zM58 44.612a.891.891 0 0 1-1.521.63L49.743 38.5a.893.893 0 0 1-.226-.875l2.627-9.213a.9.9 0 0 1 .782-.644l4.109-.341h.076c.49.002.888.4.889.891zM2.891 17h7.8a2.891 2.891 0 0 0 2.756-3.762L9.9 2.021A2.879 2.879 0 0 0 7.145 0H2.891A2.894 2.894 0 0 0 0 2.891v11.218A2.894 2.894 0 0 0 2.891 17zM2 2.891C2 2.399 2.399 2 2.891 2h4.254a.887.887 0 0 1 .849.623l3.545 11.218a.891.891 0 0 1-.85 1.159h-7.8A.891.891 0 0 1 2 14.109zM1.6 43.8a2.874 2.874 0 0 0 3.027-.273l3.753-2.811a2.9 2.9 0 0 0 1.084-2.954L5.71 21.25a2.891 2.891 0 0 0-5.71.641v19.327A2.875 2.875 0 0 0 1.6 43.8zM2 21.891a.891.891 0 0 1 1.759-.2l3.754 16.514a.893.893 0 0 1-.333.911l-3.754 2.815A.891.891 0 0 1 2 41.218zM12.588 60a2.882 2.882 0 0 0 2.405-1.288l5.072-7.612a2.893 2.893 0 0 0 .3-2.618l-1.582-4.215a2.888 2.888 0 0 0-2-1.788l-4.224-1.06a2.872 2.872 0 0 0-2.438.492l-8.966 6.722A2.908 2.908 0 0 0 0 50.945v6.164A2.894 2.894 0 0 0 2.891 60zM2 57.109v-6.164a.9.9 0 0 1 .355-.713l8.964-6.722a.885.885 0 0 1 .75-.151l4.225 1.06a.89.89 0 0 1 .617.551l1.582 4.216a.888.888 0 0 1-.093.8L13.329 57.6a.889.889 0 0 1-.741.4h-9.7A.891.891 0 0 1 2 57.109zM31.109 51h-7.028c-.965 0-1.865.483-2.4 1.286l-2.148 3.219A2.892 2.892 0 0 0 21.935 60h9.174A2.894 2.894 0 0 0 34 57.109v-3.218A2.894 2.894 0 0 0 31.109 51zM32 57.109a.891.891 0 0 1-.891.891h-9.174a.891.891 0 0 1-.742-1.385l2.148-3.215c.164-.25.442-.4.74-.4h7.028c.492 0 .891.399.891.891zM48.044 42.458a2.9 2.9 0 0 0-4.088 0l-7.109 7.11A2.872 2.872 0 0 0 36 51.613v5.5A2.894 2.894 0 0 0 38.891 60h18.218A2.894 2.894 0 0 0 60 57.109V55.6a2.909 2.909 0 0 0-.848-2.045zM58 57.109a.891.891 0 0 1-.891.891H38.891a.891.891 0 0 1-.891-.891v-5.5c0-.236.094-.463.261-.63l7.109-7.109a.891.891 0 0 1 1.26 0l11.109 11.1a.9.9 0 0 1 .261.63z" fill="#ffffff" data-original="#000000" class="" opacity="1"></path><path d="M30.186 25.385a2.9 2.9 0 0 0-1.207-1.977l-5.547-3.885A2.884 2.884 0 0 0 21.773 19H10.878a2.891 2.891 0 0 0-2.819 3.531l3.387 14.916a2.874 2.874 0 0 0 2.121 2.164l3.293.821a2.9 2.9 0 0 0 2.93-.967l9.762-11.851a2.9 2.9 0 0 0 .634-2.229zm-2.177.957-9.763 11.852a.89.89 0 0 1-.9.3l-3.294-.82A.889.889 0 0 1 13.4 37l-3.39-14.912A.89.89 0 0 1 10.878 21h10.9c.183 0 .362.056.512.162l5.547 3.884a.891.891 0 0 1 .177 1.3zM44.582 39c.347-.347.6-.777.734-1.249l2.307-8.069A2.891 2.891 0 0 0 44.843 26h-10.01a2.88 2.88 0 0 0-2.233 1.053L21.2 40.9a2.9 2.9 0 0 0-.474 2.853l1.266 3.372A2.9 2.9 0 0 0 24.7 49h8.687a2.872 2.872 0 0 0 2.044-.847zm-11.195 8H24.7a.9.9 0 0 1-.834-.578l-1.266-3.37a.893.893 0 0 1 .146-.88l11.4-13.848a.883.883 0 0 1 .687-.324h10.01a.89.89 0 0 1 .856 1.136l-2.306 8.07a.9.9 0 0 1-.226.383l-9.15 9.15a.886.886 0 0 1-.63.261z" fill="#ffffff" data-original="#000000" class="" opacity="1"></path></g></g></svg>