<svg id="Layer_3" height="512" viewBox="0 0 64 64" width="512" xmlns="http://www.w3.org/2000/svg" data-name="Layer 3"><path d="m2 2h28v28h-28z" fill="#c9a897"/><path d="m5 13.125a13.875 13.875 0 0 0 13.875 13.875h11.125v-25h-25z" fill="#d1b3a1"/><path d="m9 3.594a19.406 19.406 0 0 0 19.406 19.406h1.594v-21h-21z" fill="#d6beae"/><path d="m2 16 14-14 14 14-14 14z" fill="#785349"/><path d="m18 4-1.268 1.268a15.178 15.178 0 0 0 0 21.464l1.268 1.268c3.867-3.866 12-12 12-12z" fill="#916658"/><circle cx="16" cy="16" fill="#f4d7cb" r="3"/><path d="m16 13c-.083 0-.16.018-.242.024a2.987 2.987 0 0 0 2.242 4.976c.083 0 .16-.018.242-.024a2.987 2.987 0 0 0 -2.242-4.976z" fill="#ffe7de"/><path d="m2 34h28v28h-28z" fill="#c9a897"/><path d="m5 45.125a13.875 13.875 0 0 0 13.875 13.875h11.125v-25h-25z" fill="#d1b3a1"/><path d="m9 35.594a19.406 19.406 0 0 0 19.406 19.406h1.594v-21h-21z" fill="#d6beae"/><path d="m2 48 14-14 14 14-14 14z" fill="#785349"/><path d="m18 36-1.268 1.268a15.178 15.178 0 0 0 0 21.464l1.268 1.268c3.867-3.866 12-12 12-12z" fill="#916658"/><circle cx="16" cy="48" fill="#f4d7cb" r="3"/><path d="m16 45c-.083 0-.16.018-.242.024a2.987 2.987 0 0 0 2.242 4.976c.083 0 .16-.018.242-.024a2.987 2.987 0 0 0 -2.242-4.976z" fill="#ffe7de"/><path d="m30 37h32v4h-32z" fill="#999"/><path d="m30 37h32v2h-32z" fill="#bababa"/><path d="m30 46h32v4h-32z" fill="#999"/><path d="m30 46h32v2h-32z" fill="#bababa"/><path d="m30 55h32v4h-32z" fill="#999"/><path d="m30 55h32v2h-32z" fill="#bababa"/><path d="m33 2h28v28h-28z" fill="#727272"/><rect fill="#898989" height="24" rx="3.312" width="24" x="35" y="4"/><g fill="#aaa"><path d="m58 9h-2a1 1 0 0 1 -.707-.293l-.939-.939a2.684 2.684 0 0 0 -3.708 0 4.181 4.181 0 0 1 -2.975 1.232h-1.342a4.181 4.181 0 0 1 -2.975-1.232 2.684 2.684 0 0 0 -3.708 0l-.939.939a1 1 0 0 1 -.707.293h-2v-2h1.586l.646-.646a4.621 4.621 0 0 1 6.536 0 2.192 2.192 0 0 0 1.561.646h1.342a2.192 2.192 0 0 0 1.561-.646 4.621 4.621 0 0 1 6.536 0l.646.646h1.586z"/><path d="m58 15h-2a1 1 0 0 1 -.707-.293l-.939-.939a2.684 2.684 0 0 0 -3.708 0 4.181 4.181 0 0 1 -2.975 1.232h-1.342a4.181 4.181 0 0 1 -2.975-1.232 2.684 2.684 0 0 0 -3.708 0l-.939.939a1 1 0 0 1 -.707.293h-2v-2h1.586l.646-.646a4.621 4.621 0 0 1 6.536 0 2.192 2.192 0 0 0 1.561.646h1.342a2.192 2.192 0 0 0 1.561-.646 4.621 4.621 0 0 1 6.536 0l.646.646h1.586z"/><path d="m58 21h-2a1 1 0 0 1 -.707-.293l-.939-.939a2.684 2.684 0 0 0 -3.708 0 4.181 4.181 0 0 1 -2.975 1.232h-1.342a4.181 4.181 0 0 1 -2.975-1.232 2.684 2.684 0 0 0 -3.708 0l-.939.939a1 1 0 0 1 -.707.293h-2v-2h1.586l.646-.646a4.621 4.621 0 0 1 6.536 0 2.192 2.192 0 0 0 1.561.646h1.342a2.192 2.192 0 0 0 1.561-.646 4.621 4.621 0 0 1 6.536 0l.646.646h1.586z"/><path d="m58 27h-2a1 1 0 0 1 -.707-.293l-.939-.939a2.684 2.684 0 0 0 -3.708 0 4.181 4.181 0 0 1 -2.975 1.232h-1.342a4.181 4.181 0 0 1 -2.975-1.232 2.684 2.684 0 0 0 -3.708 0l-.939.939a1 1 0 0 1 -.707.293h-2v-2h1.586l.646-.646a4.621 4.621 0 0 1 6.536 0 2.192 2.192 0 0 0 1.561.646h1.342a2.192 2.192 0 0 0 1.561-.646 4.621 4.621 0 0 1 6.536 0l.646.646h1.586z"/></g><path d="m2 31h13.823a.758.758 0 0 0 .119.028.826.826 0 0 0 .127-.028h13.931a1 1 0 0 0 1-1v-28a1 1 0 0 0 -1-1h-28a1 1 0 0 0 -1 1v28a1 1 0 0 0 1 1zm1-12.586 10.586 10.586h-10.586zm.414-2.414 12.586-12.586 12.586 12.586c-2.397 2.4-10.194 10.2-12.586 12.586zm15 13 10.586-10.586v10.586zm10.586-15.414-10.586-10.586h10.586zm-15.414-10.586-10.586 10.586v-10.586z"/><path d="m16 12a4 4 0 1 0 4 4 4 4 0 0 0 -4-4zm0 6a2 2 0 1 1 2-2 2 2 0 0 1 -2 2z"/><path d="m16 52a4 4 0 1 0 -4-4 4 4 0 0 0 4 4zm0-6a2 2 0 1 1 -2 2 2 2 0 0 1 2-2z"/><path d="m62 36h-31v-2a1 1 0 0 0 -1-1h-28a1 1 0 0 0 -1 1v28a1 1 0 0 0 1 1h13.823a.758.758 0 0 0 .119.028.826.826 0 0 0 .127-.028h13.931a1 1 0 0 0 1-1v-2h31a1 1 0 0 0 1-1v-4a1 1 0 0 0 -1-1h-31v-3h31a1 1 0 0 0 1-1v-4a1 1 0 0 0 -1-1h-31v-3h31a1 1 0 0 0 1-1v-4a1 1 0 0 0 -1-1zm-33 9.586-10.586-10.586h10.586zm-.414 2.414-12.586 12.586-12.586-12.586 12.586-12.586zm-15-13-10.586 10.586v-10.586zm-10.586 15.414 10.586 10.586h-10.586zm15.414 10.586 10.586-10.586v10.586zm42.586-5v2h-30v-2zm0-9v2h-30v-2zm0-7h-30v-2h30z"/><path d="m61 31a1 1 0 0 0 1-1v-28a1 1 0 0 0 -1-1h-28a1 1 0 0 0 -1 1v28a1 1 0 0 0 1 1zm-27-28h26v26h-26z"/><path d="m55.768 6.354a4.621 4.621 0 0 0 -6.536 0 2.192 2.192 0 0 1 -1.561.646h-1.342a2.192 2.192 0 0 1 -1.561-.646 4.621 4.621 0 0 0 -6.536 0l-.646.646h-1.586v2h2a1 1 0 0 0 .707-.293l.939-.939a2.684 2.684 0 0 1 3.708 0 4.181 4.181 0 0 0 2.975 1.232h1.342a4.181 4.181 0 0 0 2.975-1.232 2.684 2.684 0 0 1 3.708 0l.939.939a1 1 0 0 0 .707.293h2v-2h-1.586z"/><path d="m55.768 12.354a4.621 4.621 0 0 0 -6.536 0 2.192 2.192 0 0 1 -1.561.646h-1.342a2.192 2.192 0 0 1 -1.561-.646 4.621 4.621 0 0 0 -6.536 0l-.646.646h-1.586v2h2a1 1 0 0 0 .707-.293l.939-.939a2.684 2.684 0 0 1 3.708 0 4.181 4.181 0 0 0 2.975 1.232h1.342a4.181 4.181 0 0 0 2.975-1.232 2.684 2.684 0 0 1 3.708 0l.939.939a1 1 0 0 0 .707.293h2v-2h-1.586z"/><path d="m55.768 18.354a4.621 4.621 0 0 0 -6.536 0 2.192 2.192 0 0 1 -1.561.646h-1.342a2.192 2.192 0 0 1 -1.561-.646 4.621 4.621 0 0 0 -6.536 0l-.646.646h-1.586v2h2a1 1 0 0 0 .707-.293l.939-.939a2.684 2.684 0 0 1 3.708 0 4.181 4.181 0 0 0 2.975 1.232h1.342a4.181 4.181 0 0 0 2.975-1.232 2.684 2.684 0 0 1 3.708 0l.939.939a1 1 0 0 0 .707.293h2v-2h-1.586z"/><path d="m55.768 24.354a4.621 4.621 0 0 0 -6.536 0 2.192 2.192 0 0 1 -1.561.646h-1.342a2.192 2.192 0 0 1 -1.561-.646 4.621 4.621 0 0 0 -6.536 0l-.646.646h-1.586v2h2a1 1 0 0 0 .707-.293l.939-.939a2.684 2.684 0 0 1 3.708 0 4.181 4.181 0 0 0 2.975 1.232h1.342a4.181 4.181 0 0 0 2.975-1.232 2.684 2.684 0 0 1 3.708 0l.939.939a1 1 0 0 0 .707.293h2v-2h-1.586z"/></svg>