<svg xmlns="http://www.w3.org/2000/svg" version="1.1" xmlns:xlink="http://www.w3.org/1999/xlink" xmlns:svgjs="http://svgjs.com/svgjs" width="512" height="512" x="0" y="0" viewBox="0 0 682.667 682.667" style="enable-background:new 0 0 512 512" xml:space="preserve" class=""><g><defs><clipPath id="a" clipPathUnits="userSpaceOnUse"><path d="M0 512h512V0H0Z" fill="#91423a" data-original="#000000" opacity="1"></path></clipPath></defs><g clip-path="url(#a)" transform="matrix(1.33333 0 0 -1.33333 0 682.667)"><path d="M497 15H15v482h482z" style="stroke-width:30;stroke-linecap:round;stroke-linejoin:round;stroke-miterlimit:10;stroke-dasharray:none;stroke-opacity:1" fill="none" stroke="#91423a" stroke-width="30" stroke-linecap="round" stroke-linejoin="round" stroke-miterlimit="10" stroke-dasharray="none" stroke-opacity="" data-original="#000000" opacity="1"></path><path d="M0 0h-151v-151C-68.295-151 0-82.705 0 0Z" style="stroke-width:30;stroke-linecap:round;stroke-linejoin:round;stroke-miterlimit:10;stroke-dasharray:none;stroke-opacity:1" transform="translate(226 437)" fill="none" stroke="#91423a" stroke-width="30" stroke-linecap="round" stroke-linejoin="round" stroke-miterlimit="10" stroke-dasharray="none" stroke-opacity="" data-original="#000000" opacity="1"></path><path d="M0 0h151v151C68.295 151 0 82.705 0 0Zm-211 151V0h151c0 82.705-68.295 151-151 151z" style="stroke-width:30;stroke-linecap:round;stroke-linejoin:round;stroke-miterlimit:10;stroke-dasharray:none;stroke-opacity:1" transform="translate(286 75)" fill="none" stroke="#91423a" stroke-width="30" stroke-linecap="round" stroke-linejoin="round" stroke-miterlimit="10" stroke-dasharray="none" stroke-opacity="" data-original="#000000" opacity="1"></path><path d="M0 0v151h-151C-151 68.295-82.705 0 0 0Z" style="stroke-width:30;stroke-linecap:round;stroke-linejoin:round;stroke-miterlimit:10;stroke-dasharray:none;stroke-opacity:1" transform="translate(437 286)" fill="none" stroke="#91423a" stroke-width="30" stroke-linecap="round" stroke-linejoin="round" stroke-miterlimit="10" stroke-dasharray="none" stroke-opacity="" data-original="#000000" opacity="1"></path><path d="M0 0a211.612 211.612 0 0 0-71.925 71.924A211.618 211.618 0 0 0-143.849 0a211.618 211.618 0 0 0 71.924-71.924A211.612 211.612 0 0 0 0 0Z" style="stroke-width:30;stroke-linecap:round;stroke-linejoin:round;stroke-miterlimit:10;stroke-dasharray:none;stroke-opacity:1" transform="translate(327.925 256)" fill="none" stroke="#91423a" stroke-width="30" stroke-linecap="round" stroke-linejoin="round" stroke-miterlimit="10" stroke-dasharray="none" stroke-opacity="" data-original="#000000" opacity="1"></path></g></g></svg>