<?xml version="1.0" encoding="UTF-8"?>
<svg xmlns="http://www.w3.org/2000/svg" xmlns:xlink="http://www.w3.org/1999/xlink" version="1.1" id="Capa_1" x="0px" y="0px" viewBox="0 0 512 512" style="enable-background:new 0 0 512 512;" xml:space="preserve" width="512" height="512">
<g>
	<path style="fill:#808B95;" d="M452,137.549L452,137.549c0-10.493-8.507-19-19-19h-25c-10.493,0-19-8.507-19-19v0&#10;&#9;&#9;c0-10.493,8.507-19,19-19h10.333c10.493,0,19-8.507,19-19v0c0-10.493-8.507-19-19-19H179c-10.493,0-19,8.507-19,19v152&#10;&#9;&#9;c0,10.493,8.507,19,19,19h222.333c10.493,0,19-8.507,19-19v0c0-10.493-8.507-19-19-19h-48c-10.493,0-19-8.507-19-19v0&#10;&#9;&#9;c0-10.493,8.507-19,19-19H433C443.493,156.549,452,148.043,452,137.549z"/>
	<path style="fill:#D8E2F1;" d="M236.807,254.141H75.194c-4.403,0-8.218-3.027-9.192-7.302&#10;&#9;&#9;C58.884,215.569,39.053,90.844,151.19,9.062c2.855-2.082,6.755-2.082,9.61,0c112.147,81.782,92.316,206.508,85.198,237.777&#10;&#9;&#9;C245.025,251.113,241.21,254.141,236.807,254.141z"/>
	<path style="fill:#B9CBEA;" d="M160.8,9.062c-2.855-2.082-6.755-2.082-9.61,0c-3.552,2.591-6.97,5.225-10.262,7.898&#10;&#9;&#9;c100.637,81.693,81.828,199.6,74.935,229.878c-0.973,4.275-4.788,7.302-9.192,7.302h30.135c4.403,0,8.218-3.027,9.192-7.302&#10;&#9;&#9;C253.116,215.569,272.947,90.844,160.8,9.062z"/>
	<path style="fill:#C17D4F;" d="M174.376,504.5h-36.751c-10.205,0-18.401-8.416-18.13-18.618l4.064-153.014&#10;&#9;&#9;c0.242-9.109,7.696-16.368,16.808-16.368h31.267c9.112,0,16.567,7.259,16.808,16.368l4.064,153.014&#10;&#9;&#9;C192.776,496.084,184.581,504.5,174.376,504.5z"/>
	<path style="fill:#B16E3D;" d="M188.442,332.868c-0.242-9.109-7.696-16.368-16.808-16.368h-30c9.112,0,16.566,7.259,16.808,16.368&#10;&#9;&#9;l4.064,153.014c0.271,10.201-7.925,18.618-18.13,18.618h30c10.205,0,18.401-8.417,18.13-18.618L188.442,332.868z"/>
	<path style="fill:#808B95;" d="M171,316.484h-30v-101c0-8.284,6.716-15,15-15h0c8.284,0,15,6.716,15,15V316.484z"/>
	<path style="fill:#FFD064;" d="M190,336.657h-68c-8.284,0-15-6.716-15-15v0c0-8.284,6.716-15,15-15h68c8.284,0,15,6.716,15,15v0&#10;&#9;&#9;C205,329.942,198.284,336.657,190,336.657z"/>
	<path style="fill:#FFC250;" d="M190,306.657h-30c8.284,0,15,6.716,15,15c0,8.284-6.716,15-15,15h30c8.284,0,15-6.716,15-15&#10;&#9;&#9;C205,313.373,198.284,306.657,190,306.657z"/>
	<g>
		
			<line style="fill:none;stroke:#000000;stroke-width:15;stroke-linecap:round;stroke-linejoin:round;stroke-miterlimit:10;" x1="354" y1="42.549" x2="201.703" y2="42.549"/>
		<path style="fill:none;stroke:#000000;stroke-width:15;stroke-linecap:round;stroke-linejoin:round;stroke-miterlimit:10;" d="&#10;&#9;&#9;&#9;M250.773,232.549h150.56c10.493,0,19-8.507,19-19v0c0-10.493-8.507-19-19-19h-48c-10.493,0-19-8.507-19-19v0&#10;&#9;&#9;&#9;c0-10.493,8.507-19,19-19H433c10.493,0,19-8.507,19-19v0c0-10.493-8.507-19-19-19h-25c-10.493,0-19-8.507-19-19v0&#10;&#9;&#9;&#9;c0-10.493,8.507-19,19-19h10.333c10.493,0,19-8.507,19-19v0c0-10.493-8.507-19-19-19h-29"/>
		<path style="fill:none;stroke:#000000;stroke-width:15;stroke-linecap:round;stroke-linejoin:round;stroke-miterlimit:10;" d="&#10;&#9;&#9;&#9;M136.494,254.141"/>
		
			<line style="fill:none;stroke:#000000;stroke-width:15;stroke-linecap:round;stroke-linejoin:round;stroke-miterlimit:10;" x1="120.961" y1="430.666" x2="123.416" y2="338.221"/>
		<path style="fill:none;stroke:#000000;stroke-width:15;stroke-linecap:round;stroke-linejoin:round;stroke-miterlimit:10;" d="&#10;&#9;&#9;&#9;M188.581,338.116l3.924,147.766c0.271,10.201-7.925,18.618-18.13,18.618h-36.751c-10.205,0-18.401-8.416-18.13-18.618&#10;&#9;&#9;&#9;l0.544-20.469"/>
		<path style="fill:none;stroke:#000000;stroke-width:15;stroke-linecap:round;stroke-linejoin:round;stroke-miterlimit:10;" d="&#10;&#9;&#9;&#9;M141,305v-89.516c0-8.284,6.716-15,15-15h0c8.284,0,15,6.716,15,15v88.85"/>
		<path style="fill:none;stroke:#000000;stroke-width:15;stroke-linecap:round;stroke-linejoin:round;stroke-miterlimit:10;" d="&#10;&#9;&#9;&#9;M190,336.657h-68c-8.284,0-15-6.716-15-15v0c0-8.284,6.716-15,15-15h68c8.284,0,15,6.716,15,15v0&#10;&#9;&#9;&#9;C205,329.942,198.284,336.657,190,336.657z"/>
		<path style="fill:none;stroke:#000000;stroke-width:15;stroke-linecap:round;stroke-linejoin:round;stroke-miterlimit:10;" d="&#10;&#9;&#9;&#9;M138.444,254.141h-63.25c-4.403,0-8.218-3.027-9.192-7.302C58.884,215.569,39.053,90.844,151.19,9.062&#10;&#9;&#9;&#9;c2.855-2.082,6.755-2.082,9.61,0c112.147,81.782,92.316,206.508,85.198,237.777c-0.973,4.275-4.788,7.302-9.192,7.302h-65.029"/>
	</g>
</g>















</svg>
