<svg xmlns="http://www.w3.org/2000/svg" version="1.1" xmlns:xlink="http://www.w3.org/1999/xlink" xmlns:svgjs="http://svgjs.com/svgjs" width="512" height="512" x="0" y="0" viewBox="0 0 267.119 236.67" style="enable-background:new 0 0 512 512" xml:space="preserve" class=""><g><path d="M53.716 181.484v2h7.836l-.058-2zM36.106 46.181c-2.677-6.552-2.642-13.755.1-20.282 2.74-6.526 7.858-11.595 14.411-14.272a26.352 26.352 0 0 1 10.014-1.974 26.6 26.6 0 0 1 8.523 1.411c6.359-2.559 12.76-4.03 17.611-4.03 6.536 0 8.986 2.638 9.891 4.852 1.01 2.471.96 6.492-5.011 11.62-1.663 1.428-3.671 2.833-5.909 4.166a26.395 26.395 0 0 1-.131 17.32l12.421-7.552-2.236-9.7 50.671-11.682 10.934 47.426h11.822v38h-38V85.911l-2 .346v15.227h-38V90.849l-2-.784v11.418h-9.333v2h9.333v38H79.55v2h9.667v16.64l2-.227v-16.413h38v38H94.718l.227 2H260.216v-2h-9v-38h9v-2h-9v-38h9v-2h-9v-38h9v-2h-9v-38h9V0H31.452v49.555l7.383 1.669a26.665 26.665 0 0 1-2.729-5.043zm135.11 17.303h38v38h-38zm38 78h-38v-38h38zm-40-38v38h-38v-38zm-78 38v-38h38v38zm40 40v-38h38v38zm40 0v-38h38v38zm78 0h-38v-38h38zm0-40h-38v-38h38zm0-40h-38v-38h38zm0-40h-38v-38h38z" fill="#914139" data-original="#000000" opacity="1" class=""></path><path d="m103.232 60.021-5.695 3.463h6.493zM72.458 59.869l15.353 6.017 14.71-8.944-3.786-16.423-15.467 9.404a26.35 26.35 0 0 1-10.81 9.946zM65.319 57.213l1.707.386.048.119c.695-.208 1.387-.45 2.072-.73 11.052-4.515 16.57-16.811 12.822-27.971-5.093 1.351-9.674 1.835-12.933 1.452a61.272 61.272 0 0 0 6.723-2.306c10.992-4.49 18.691-11.102 17.194-14.765-1.497-3.665-11.623-2.995-22.615 1.495-.376.154-.738.315-1.106.474a22.42 22.42 0 0 0-17.102-.038c-11.503 4.699-17.019 17.835-12.32 29.338a22.413 22.413 0 0 0 5.581 8.038l19.472 4.403c.153.03.304.07.457.105zM108.056 67.592l2.961-.512-8.032-34.842 38.978-8.986 8.756 37.979c1.247.33 2.41.873 3.446 1.593l-9.952-43.17-44.826 10.334z" fill="#914139" data-original="#000000" opacity="1" class=""></path><path d="M7.258 235.514a12.45 12.45 0 0 0 5.237 1.156c4.722 0 9.242-2.689 11.354-7.258l23.5-50.834a12.496 12.496 0 0 0 .114-10.234l-8.47-19.456 24.646 27.247 1.367 47.393c.196 6.778 5.752 12.14 12.488 12.14.122 0 .245-.002.367-.005 6.9-.199 12.334-5.955 12.135-12.855l-1.5-52a12.498 12.498 0 0 0-3.225-8.025l-29-32.059 13.597-51.461 23.091 9.05a8 8 0 0 0 4.283.435l52-9a8 8 0 0 0-2.728-15.766l-49.798 8.619L65.8 60.482a8.03 8.03 0 0 0-1.568-.438l-36.825-8.328a8.008 8.008 0 0 0-2.596-.587l-.142-.032c-.018.007-.036.017-.054.025a7.973 7.973 0 0 0-5.644 2.098l-8.596 7.887a8 8 0 0 0 2.444 13.324l.017-.065 2.301.295L3.31 119.429c-1.36 3.083-1.49 6.699-.039 10.032l19.031 43.719-21.145 45.742c-2.897 6.267-.166 13.695 6.101 16.592zM215.119 231h46.725v4h-46.725zM220.395 223.829h46.725v4h-46.725zM218.134 216.658h46.725v4h-46.725zM215.119 209.487h46.725v4h-46.725zM220.395 202.317h46.725v4h-46.725zM127.778 196.069c-.456-1.15-1.771-1.718-2.921-1.262s-1.718 1.771-1.262 2.921l4.411 11.121h4.841zM191.738 228.827l2.65-14.134h1.921c.782 0 1.422-.64 1.422-1.422s-.64-1.422-1.422-1.422h-83.912c-.782 0-1.422.64-1.422 1.422s.64 1.422 1.422 1.422h1.921l2.65 14.134a2.866 2.866 0 0 0 2.818 2.338h69.135a2.867 2.867 0 0 0 2.817-2.338z" fill="#914139" data-original="#000000" opacity="1" class=""></path></g></svg>