<svg xmlns="http://www.w3.org/2000/svg" viewBox="0 0 1080 800"><defs><style>.cls-1{fill:#eb7d88;}.cls-2{fill:#1a3a8a;}.cls-3{fill:#f7cfd5;}.cls-4{fill:#f14753;}.cls-5{fill:#8ba9e7;}.cls-6,.cls-7,.cls-8{fill:none;stroke-linecap:round;stroke-linejoin:round;stroke-width:5px;}.cls-6{stroke:#f14753;}.cls-7{stroke:#1a3a8a;}.cls-8{stroke:#8ba9e7;}</style></defs><g id="Layer_3" data-name="Layer 3"><path class="cls-1" d="M865.32,526V507.46A37.36,37.36,0,0,1,828,470.11V418.49L914.4,413V525.29Z"/><path class="cls-2" d="M440.27,505.07l-35,44.37a138.94,138.94,0,0,0-17.23-12,138.27,138.27,0,0,0-147.94,5.2q-1.23.84-2.43,1.71L217,530.7s4.6-13.44,12.17-19.54c9-7.28-4.26-31.68-5.43-35.62C217,453,239,434.72,238.93,419.5c-.11-38.44,26.93-75.26,70.59-63.86,63.2-26.71,88.29,46.27,88,87.64C397.26,471.62,440.27,505.07,440.27,505.07Z"/><path class="cls-3" d="M610.52,275.4H174.7a31.18,31.18,0,0,0-31.19,31.19V590.22h53.54a138.73,138.73,0,0,1,43.08-47.55,124.81,124.81,0,1,1,147.94-5.2,138.71,138.71,0,0,1,51.26,52.75H610.52A31.2,31.2,0,0,0,641.71,559V306.59A31.19,31.19,0,0,0,610.52,275.4Zm-96,290.71A25.49,25.49,0,1,1,540,540.62,25.48,25.48,0,0,1,514.51,566.11Zm67.91,0a25.49,25.49,0,1,1,25.49-25.49A25.48,25.48,0,0,1,582.42,566.11Z"/><path class="cls-4" d="M361.64,810.12H303.4c0-23.93,20.84-43.33,49-43.33Z"/><path class="cls-4" d="M483.63,700.84l10.65,40.76c-23.93,0-50.64-22.05-50.64-41Z"/><path class="cls-1" d="M581.23,759c-3.91-7.6-45.18-2.06-58,12.38-20.51,5.68-26.72,28.67-16.62,41h74.61Z"/><path class="cls-5" d="M591,426H445.05l-18.51,17.86a3.69,3.69,0,0,1-6.25-2.66V332.77a15.57,15.57,0,0,1,15.57-15.57H575.43A15.57,15.57,0,0,1,591,332.77Z"/><circle class="cls-2" cx="406.81" cy="667.87" r="22.56"/><path class="cls-2" d="M912.88,356.3C988.73,355.89,981.31,490,924.94,500c-34.86,6.19-70.05-24.76-41.38-43.33,12.87-16.78,4.89-28-14.66-24.76-6.28,1.05-62.55-9.12-69.72-48.87C792.54,346.17,871.83,313.94,912.88,356.3Z"/><path class="cls-3" d="M89.32,916H244.17a3.69,3.69,0,0,0,3.68-3.39c1.1-15.06-10.8-22.16-24.78-20.94C216.34,838,158.79,842.81,141,870.83c-32.21-8.42-56.32,5.21-55.34,41.61A3.67,3.67,0,0,0,89.32,916Z"/><path class="cls-5" d="M974.15,257.26H801.74a3.83,3.83,0,0,1-3.83-3.6c-2-36.27,25.76-60.76,61.11-45.49,21.28-34.53,81.45-34.75,93,23,14.53-2.78,24.92,7.38,26,22A3.83,3.83,0,0,1,974.15,257.26Z"/></g><g id="Layer_2" data-name="Layer 2"><line class="cls-6" x1="338.19" y1="700.62" x2="361.64" y2="810.12"/><path class="cls-6" d="M641.83,700.62H130.16a50,50,0,0,1-50-50V271.07a50,50,0,0,1,50-50H683.47a50,50,0,0,1,50,50V580.66"/><rect class="cls-7" x="143.51" y="275.4" width="526.61" height="360.94" rx="31.57"/><line class="cls-7" x1="80.16" y1="810.12" x2="481.86" y2="810.12"/><line class="cls-8" x1="257.5" y1="875.39" x2="705.68" y2="875.39"/><path class="cls-7" d="M775.62,736.6,756.5,875.39H973.26l38.34-229.1C1006.28,459,742.82,491.5,677.66,707.72"/><path class="cls-7" d="M681.5,695.85c-10.29,0-21.82,7.69-20.45,16.86"/><path class="cls-7" d="M661.32,708.46l-80.09,47.26v54.4H708.49a30.27,30.27,0,0,0,27.12-16.81l66.18-133.38"/><line class="cls-6" x1="483.63" y1="700.62" x2="499.57" y2="775.01"/><path class="cls-1" d="M284,496.12v26.67a139.23,139.23,0,0,1,56.47-2.48V496.12a41.31,41.31,0,0,0,24.62-37.79V432.81c-36.65,0-26-44.8-52.86-44.8-11.87,18.17-30.8,25.84-52.85,28.88v41.44A41.31,41.31,0,0,0,284,496.12Z"/><line class="cls-7" x1="449.28" y1="341.96" x2="562.01" y2="341.96"/><line class="cls-7" x1="544.74" y1="370.31" x2="562.01" y2="370.31"/><line class="cls-7" x1="449.28" y1="370.31" x2="527.8" y2="370.31"/><line class="cls-7" x1="449.28" y1="398.65" x2="562.01" y2="398.65"/><path class="cls-8" d="M183.9,624.1a137,137,0,0,1,13.15-33.88,138.63,138.63,0,0,1,40.65-45.84q1.2-.87,2.43-1.71A138.21,138.21,0,0,1,452.48,624.1"/><path class="cls-7" d="M259.35,416.89v41.44a41.3,41.3,0,0,0,41.31,41.31h21.89"/></g></svg>