<svg xmlns="http://www.w3.org/2000/svg" viewBox="0 0 1000 1000"><defs><style>.cls-1{fill:#f14753;}.cls-2{fill:#1a3a8a;}.cls-3{fill:#8ba9e7;}.cls-4{fill:#f7cfd5;}.cls-10,.cls-11,.cls-5,.cls-6,.cls-7,.cls-8,.cls-9{fill:none;stroke-linecap:round;stroke-linejoin:round;}.cls-11,.cls-5,.cls-8{stroke:#f14753;}.cls-10,.cls-5,.cls-6{stroke-width:5px;}.cls-6,.cls-7{stroke:#1a3a8a;}.cls-7,.cls-8{stroke-width:4px;}.cls-9{stroke:#8ba9e7;stroke-width:15px;}.cls-10{stroke:#fff;}.cls-11{stroke-width:6.51px;}</style></defs><g id="Layer_3" data-name="Layer 3"><circle class="cls-1" cx="678.59" cy="541.75" r="5.01"/><circle class="cls-1" cx="693.98" cy="541.75" r="5.01"/><circle class="cls-2" cx="639.26" cy="495.89" r="5.4"/><circle class="cls-2" cx="654.25" cy="495.89" r="5.4"/><circle class="cls-1" cx="667.11" cy="837.9" r="12.27"/><path class="cls-3" d="M418.42,91.75V141.6H857.53c3.87,30.15,30.92,53.5,63.7,53.5V91.75ZM828,128.52a12.21,12.21,0,1,1,12.21-12.21A12.21,12.21,0,0,1,828,128.52Zm44.75,0A12.21,12.21,0,1,1,885,116.31,12.21,12.21,0,0,1,872.78,128.52Z"/><path class="cls-4" d="M400.94,297.65h269a0,0,0,0,1,0,0V416.24a0,0,0,0,1,0,0H370.64a0,0,0,0,1,0,0V328A30.3,30.3,0,0,1,400.94,297.65Z"/><path class="cls-2" d="M695,405.27H846.92a4,4,0,0,0,3.14-6.6L798.19,334.8a3.13,3.13,0,0,0-4.83,0l-40.89,48.89-21.14-23.77a3.12,3.12,0,0,0-4.66,0L692,398.51A4,4,0,0,0,695,405.27Z"/><circle class="cls-1" cx="749.42" cy="328.2" r="17.02"/><rect class="cls-4" x="671.74" y="627.35" width="249.48" height="118.59"/><path class="cls-4" d="M901.86,809H469.14V961.2a33.65,33.65,0,0,0,33.64,33.65H921.23V828.35A19.37,19.37,0,0,0,901.86,809Zm-235.38,82.7A38.53,38.53,0,1,1,705,853.15,38.53,38.53,0,0,1,666.48,891.68Z"/><path class="cls-2" d="M494.18,735H646.12a4,4,0,0,0,3.14-6.6l-51.88-63.86a3.12,3.12,0,0,0-4.82,0l-40.9,48.89-21.13-23.77a3.12,3.12,0,0,0-4.66,0l-34.7,38.63A4,4,0,0,0,494.18,735Z"/><circle class="cls-1" cx="548.62" cy="657.9" r="17.02"/><path class="cls-3" d="M608.29,523a54.12,54.12,0,0,1,39.91-52.21H349.89V545.6a29.64,29.64,0,0,0,29.63,29.63H648.2A54.13,54.13,0,0,1,608.29,523Z"/><path class="cls-3" d="M852.51,470.81H676.6a54.11,54.11,0,0,1,0,104.42H875.13V493.42A22.62,22.62,0,0,0,852.51,470.81Z"/></g><g id="Layer_2" data-name="Layer 2"><rect class="cls-5" x="669.94" y="297.65" width="202.85" height="118.59"/><rect class="cls-5" x="469.14" y="627.35" width="202.85" height="118.59"/><path class="cls-6" d="M686.5,875.48H647.73a19.39,19.39,0,0,1,38.77,0Z"/><path class="cls-7" d="M651.53,508.5s5-1.76,5-9.94"/><path class="cls-7" d="M636.41,508.5s5-1.76,5-9.94"/><path class="cls-8" d="M681.6,530.18S677,531.8,677,539.39"/><path class="cls-8" d="M697.11,530.18s-4.61,1.62-4.61,9.21"/><polyline class="cls-6" points="392.08 903.84 418.42 903.84 418.42 91.75 921.23 91.75 921.23 994.85 418.42 994.85 418.42 928.6"/><path class="cls-6" d="M349.79,761.92V889.75a14.09,14.09,0,0,0,14.09,14.09h6.27"/><line class="cls-6" x1="349.79" y1="612.15" x2="349.79" y2="731.28"/><line class="cls-6" x1="349.79" y1="462.38" x2="349.79" y2="585.87"/><line class="cls-6" x1="349.79" y1="311.5" x2="349.79" y2="438.07"/><line class="cls-6" x1="349.79" y1="157.56" x2="349.79" y2="283.16"/><line class="cls-6" x1="897.77" y1="141.6" x2="418.42" y2="141.6"/><line class="cls-6" x1="787.32" y1="228.8" x2="544.72" y2="228.8"/><line class="cls-6" x1="614" y1="325.67" x2="469.14" y2="325.67"/><line class="cls-6" x1="550.26" y1="346.52" x2="469.14" y2="346.52"/><line class="cls-6" x1="614" y1="367.37" x2="469.14" y2="367.37"/><line class="cls-6" x1="550.26" y1="388.22" x2="469.14" y2="388.22"/><line class="cls-6" x1="874.41" y1="655.37" x2="729.55" y2="655.37"/><line class="cls-6" x1="810.67" y1="676.22" x2="729.55" y2="676.22"/><line class="cls-6" x1="874.41" y1="697.07" x2="729.55" y2="697.07"/><line class="cls-6" x1="810.67" y1="717.92" x2="729.55" y2="717.92"/><line class="cls-6" x1="760.94" y1="926.43" x2="573.29" y2="926.43"/><line class="cls-5" x1="724.66" y1="908.84" x2="609.56" y2="908.84"/><line class="cls-9" x1="715.33" y1="196.98" x2="616.72" y2="196.98"/><line class="cls-10" x1="547.87" y1="117.49" x2="440.36" y2="117.49"/><line class="cls-10" x1="585.82" y1="117.49" x2="569.04" y2="117.49"/><polyline class="cls-11" points="374.49 886.25 392.1 903.86 374.49 921.46"/><polyline class="cls-11" points="367.39 744.31 349.79 761.92 332.18 744.31"/><polyline class="cls-11" points="367.39 594.55 349.79 612.15 332.18 594.55"/><polyline class="cls-11" points="367.39 444.78 349.79 462.38 332.18 444.78"/><polyline class="cls-11" points="367.39 295.01 349.79 312.62 332.18 295.01"/><polyline class="cls-11" points="367.39 140.17 349.79 157.77 332.18 140.17"/><path class="cls-2" d="M205.74,146.26l9.63-22.18h.23l9.63,22.18h-4.87l-6.15-15.6,3-2.09-7.37,17.69Zm6.59-7.71h6.41l1.47,3.53H211Z"/><path class="cls-2" d="M231.35,133.59l.32,2.26-.06-.2a5.22,5.22,0,0,1,1.89-1.93,5.56,5.56,0,0,1,3-.74,4.35,4.35,0,0,1,3,1.06,3.54,3.54,0,0,1,1.24,2.74v9.48h-4.06v-8a2.16,2.16,0,0,0-.45-1.35,1.73,1.73,0,0,0-1.41-.51,2.35,2.35,0,0,0-1.62.61,3.82,3.82,0,0,0-1.07,1.65,6.89,6.89,0,0,0-.38,2.41v5.16h-4.06V133.59Z"/><path class="cls-2" d="M249,146.52a7.58,7.58,0,0,1-2.91-.55,6.43,6.43,0,0,1-2.28-1.54l1.68-2.23a7,7,0,0,0,1.73,1.2,3.41,3.41,0,0,0,1.43.37,4,4,0,0,0,.89-.1,1.45,1.45,0,0,0,.62-.32.74.74,0,0,0,.23-.57A.91.91,0,0,0,250,142a3,3,0,0,0-1-.48c-.4-.13-.84-.26-1.3-.39a4.79,4.79,0,0,1-2.51-1.61,3.88,3.88,0,0,1-.77-2.31,4.12,4.12,0,0,1,2.13-3.55,5.65,5.65,0,0,1,2.89-.65,9.48,9.48,0,0,1,2.69.32,6.6,6.6,0,0,1,2.09,1l-1.53,2.38a5.65,5.65,0,0,0-1.24-.74,3.58,3.58,0,0,0-1.26-.33,2.14,2.14,0,0,0-.88.11,1.43,1.43,0,0,0-.57.38.75.75,0,0,0-.2.49.94.94,0,0,0,.42.87,3.33,3.33,0,0,0,1.14.49c.47.12.92.26,1.37.41a5.13,5.13,0,0,1,1.59.78,3.4,3.4,0,0,1,1,1.18,3.45,3.45,0,0,1,.36,1.64,4.29,4.29,0,0,1-.59,2.19,4.4,4.4,0,0,1-1.8,1.66A6.43,6.43,0,0,1,249,146.52Z"/><path class="cls-2" d="M266.9,133.59l2.79,6.52-.76.06,2.44-6.58h3.94L269.6,147l-4.06-8.41L261.83,147l-5.77-13.42H260l3.08,7-1.4-.2,2.44-5.39-.67-1.45Z"/><path class="cls-2" d="M283.49,146.61a8.21,8.21,0,0,1-3.93-.87,5.93,5.93,0,0,1-2.45-2.41,7.24,7.24,0,0,1-.84-3.54,6.26,6.26,0,0,1,1-3.45,7.16,7.16,0,0,1,2.64-2.45,7.46,7.46,0,0,1,3.68-.91,6.45,6.45,0,0,1,4.48,1.58,7.72,7.72,0,0,1,2.28,4.57l-9.86,3.13-.9-2.21,7.13-2.4-.84.37a3,3,0,0,0-.83-1.31,2.47,2.47,0,0,0-1.78-.57,2.94,2.94,0,0,0-1.58.42,2.69,2.69,0,0,0-1,1.19,4.67,4.67,0,0,0,.07,3.8,2.87,2.87,0,0,0,1.19,1.2,3.48,3.48,0,0,0,1.68.41,3.81,3.81,0,0,0,1.29-.23,7,7,0,0,0,1.23-.61l1.8,3a10.16,10.16,0,0,1-2.19.93A7.87,7.87,0,0,1,283.49,146.61Z"/><path class="cls-2" d="M297,133.59l.38,3.48-.09-.52a5.71,5.71,0,0,1,1.51-1.93,8.56,8.56,0,0,1,1.9-1.24,3.74,3.74,0,0,1,1.43-.43l-.2,4.06a3.64,3.64,0,0,0-2.44.46,4.37,4.37,0,0,0-1.56,1.69,4.49,4.49,0,0,0-.55,2.14v5h-4V133.59Z"/><path class="cls-2" d="M181.53,276.31h14.56v4.06H185.73v4.55h9.17V289h-9.17v4.61h10.76v4.06h-15Z"/><path class="cls-2" d="M206,297.92,198.38,285h4.81l4.32,8.76-2.49-.09,3.74-8.67h4.53l-7.2,12.94Z"/><path class="cls-2" d="M215.58,280.49a1.8,1.8,0,0,1,.71-1.48,2.34,2.34,0,0,1,1.52-.58,2.22,2.22,0,0,1,1.49.58,1.83,1.83,0,0,1,.68,1.48,1.79,1.79,0,0,1-.68,1.46,2.26,2.26,0,0,1-1.49.57,2.38,2.38,0,0,1-1.52-.57A1.76,1.76,0,0,1,215.58,280.49Zm.08,4.49h4.06v12.67h-4.06Z"/><path class="cls-2" d="M229.06,298a6.08,6.08,0,0,1-3.16-.82,5.74,5.74,0,0,1-2.19-2.4,8.09,8.09,0,0,1-.8-3.71,7.17,7.17,0,0,1,.87-3.65,5.71,5.71,0,0,1,2.38-2.29,7.25,7.25,0,0,1,3.42-.79,7.35,7.35,0,0,1,2.34.38,4.67,4.67,0,0,1,1.87,1.16V274.77h4v22.88h-4.06v-2.46l.32.87a10.3,10.3,0,0,1-2.21,1.38A6.71,6.71,0,0,1,229.06,298Zm1.33-3.42a4.23,4.23,0,0,0,1.44-.22,3.28,3.28,0,0,0,1.1-.64,3.82,3.82,0,0,0,.83-1.05v-3.11a2.94,2.94,0,0,0-.71-1.09,3.44,3.44,0,0,0-1.16-.69,4.49,4.49,0,0,0-1.5-.25,3.21,3.21,0,0,0-1.66.45,3.4,3.4,0,0,0-1.24,1.23A3.6,3.6,0,0,0,227,291a3.71,3.71,0,0,0,.46,1.83,3.46,3.46,0,0,0,1.24,1.28A3.12,3.12,0,0,0,230.39,294.58Z"/><path class="cls-2" d="M248.23,298a8.15,8.15,0,0,1-3.93-.87,5.93,5.93,0,0,1-2.45-2.41,7.23,7.23,0,0,1-.84-3.53,6.29,6.29,0,0,1,1-3.45,7.15,7.15,0,0,1,2.64-2.45,7.48,7.48,0,0,1,3.69-.92A6.47,6.47,0,0,1,252.8,286a7.8,7.8,0,0,1,2.27,4.57l-9.86,3.13-.9-2.2,7.14-2.41-.84.38a3,3,0,0,0-.83-1.32,2.49,2.49,0,0,0-1.78-.57,2.94,2.94,0,0,0-1.58.42,2.71,2.71,0,0,0-1,1.19A4.25,4.25,0,0,0,245,291a4,4,0,0,0,.44,2,2.79,2.79,0,0,0,1.18,1.2,3.44,3.44,0,0,0,1.69.41,3.81,3.81,0,0,0,1.29-.23,7.8,7.8,0,0,0,1.23-.61l1.8,3a10.66,10.66,0,0,1-2.19.92A7.63,7.63,0,0,1,248.23,298Z"/><path class="cls-2" d="M261.71,285l.32,2.26L262,287a5.29,5.29,0,0,1,1.89-1.93,5.69,5.69,0,0,1,3-.74,4.39,4.39,0,0,1,3,1.06,3.58,3.58,0,0,1,1.23,2.74v9.48H267v-8a2.18,2.18,0,0,0-.45-1.35,1.73,1.73,0,0,0-1.41-.51,2.42,2.42,0,0,0-1.62.61,4,4,0,0,0-1.07,1.65,7.13,7.13,0,0,0-.38,2.41v5.16H258V285Z"/><path class="cls-2" d="M286,296.52a6.54,6.54,0,0,1-2.11,1.08,8,8,0,0,1-2.48.4,8.29,8.29,0,0,1-3.78-.8,5.84,5.84,0,0,1-2.5-2.29,7,7,0,0,1-.88-3.61,6.55,6.55,0,0,1,1-3.61,6.3,6.3,0,0,1,2.51-2.27,7,7,0,0,1,3.26-.79,8.57,8.57,0,0,1,3,.47,7.26,7.26,0,0,1,2.16,1.21l-2,2.61a5.73,5.73,0,0,0-1.12-.65,3.9,3.9,0,0,0-1.66-.33,2.82,2.82,0,0,0-1.54.43,3.16,3.16,0,0,0-1.1,1.19,3.55,3.55,0,0,0-.41,1.74,3.35,3.35,0,0,0,.44,1.71,3.11,3.11,0,0,0,1.2,1.24,3.52,3.52,0,0,0,1.81.45,4,4,0,0,0,1.23-.19,3.1,3.1,0,0,0,1-.54Z"/><path class="cls-2" d="M295.38,298a8.21,8.21,0,0,1-3.93-.87,5.93,5.93,0,0,1-2.45-2.41,7.23,7.23,0,0,1-.84-3.53,6.21,6.21,0,0,1,1-3.45,7,7,0,0,1,2.64-2.45,7.47,7.47,0,0,1,3.68-.92A6.45,6.45,0,0,1,300,286a7.75,7.75,0,0,1,2.28,4.57l-9.86,3.13-.9-2.2L298.6,289l-.84.38a2.94,2.94,0,0,0-.83-1.32,2.47,2.47,0,0,0-1.78-.57,2.94,2.94,0,0,0-1.58.42,2.75,2.75,0,0,0-1,1.19,4.67,4.67,0,0,0,.07,3.8,2.81,2.81,0,0,0,1.19,1.2,3.37,3.37,0,0,0,1.68.41,3.81,3.81,0,0,0,1.29-.23,7,7,0,0,0,1.23-.61l1.8,3a10.66,10.66,0,0,1-2.19.92A7.53,7.53,0,0,1,295.38,298Z"/><path class="cls-2" d="M205.74,452.66l9.63-22.19h.23l9.63,22.19h-4.87l-6.15-15.61,3-2.08-7.37,17.69Zm6.59-7.72h6.41l1.47,3.54H211Z"/><path class="cls-2" d="M231.35,440l.32,2.26-.06-.2a5.37,5.37,0,0,1,1.89-1.93,5.65,5.65,0,0,1,3-.74,4.4,4.4,0,0,1,3,1.06,3.56,3.56,0,0,1,1.24,2.74v9.49h-4.06v-8a2.18,2.18,0,0,0-.45-1.35,1.73,1.73,0,0,0-1.41-.51,2.4,2.4,0,0,0-1.62.61,3.86,3.86,0,0,0-1.07,1.66,6.79,6.79,0,0,0-.38,2.4v5.17h-4.06V440Z"/><path class="cls-2" d="M249,452.92a7.77,7.77,0,0,1-2.91-.55,6.43,6.43,0,0,1-2.28-1.54l1.68-2.23a7,7,0,0,0,1.73,1.2,3.53,3.53,0,0,0,1.43.36,3.46,3.46,0,0,0,.89-.1,1.35,1.35,0,0,0,.62-.32.7.7,0,0,0,.23-.56.94.94,0,0,0-.39-.79,3.45,3.45,0,0,0-1-.48l-1.3-.39a4.68,4.68,0,0,1-2.51-1.61,3.83,3.83,0,0,1-.77-2.3,4.15,4.15,0,0,1,2.13-3.56,5.75,5.75,0,0,1,2.89-.65,9.86,9.86,0,0,1,2.69.32,6.43,6.43,0,0,1,2.09,1l-1.53,2.37a6.07,6.07,0,0,0-1.24-.74,3.58,3.58,0,0,0-1.26-.33,2,2,0,0,0-.88.12,1.41,1.41,0,0,0-.57.37.78.78,0,0,0-.2.5,1,1,0,0,0,.42.87,3.53,3.53,0,0,0,1.14.49c.47.12.92.25,1.37.41a5.13,5.13,0,0,1,1.59.78,3.24,3.24,0,0,1,1.39,2.81,4.26,4.26,0,0,1-.59,2.19,4.43,4.43,0,0,1-1.8,1.67A6.55,6.55,0,0,1,249,452.92Z"/><path class="cls-2" d="M266.9,440l2.79,6.53-.76.06,2.44-6.59h3.94l-5.71,13.43L265.54,445l-3.71,8.41L256.06,440H260l3.08,7-1.4-.2,2.44-5.4-.67-1.45Z"/><path class="cls-2" d="M283.49,453a8.21,8.21,0,0,1-3.93-.87,6,6,0,0,1-2.45-2.4,7.29,7.29,0,0,1-.84-3.54,6.21,6.21,0,0,1,1-3.45,7.08,7.08,0,0,1,2.64-2.45,7.47,7.47,0,0,1,3.68-.92,6.45,6.45,0,0,1,4.48,1.58,7.75,7.75,0,0,1,2.28,4.57l-9.86,3.13-.9-2.2,7.13-2.41-.84.38a3.08,3.08,0,0,0-.83-1.32,2.47,2.47,0,0,0-1.78-.57,2.86,2.86,0,0,0-1.58.43,2.66,2.66,0,0,0-1,1.18,4.14,4.14,0,0,0-.37,1.82,4.08,4.08,0,0,0,.44,2,2.89,2.89,0,0,0,1.19,1.21,3.48,3.48,0,0,0,1.68.4,3.58,3.58,0,0,0,1.29-.23,6.4,6.4,0,0,0,1.23-.61l1.8,3a11.27,11.27,0,0,1-2.19.93A7.84,7.84,0,0,1,283.49,453Z"/><path class="cls-2" d="M297,440l.38,3.48-.09-.52a5.81,5.81,0,0,1,1.51-1.93,8.5,8.5,0,0,1,1.9-1.23,3.8,3.8,0,0,1,1.43-.44l-.2,4.06a3.64,3.64,0,0,0-2.44.47,4.27,4.27,0,0,0-1.56,1.68,4.52,4.52,0,0,0-.55,2.15v5h-4V440Z"/><path class="cls-2" d="M181.53,582.71h14.56v4H185.73v4.56h9.17v4.06h-9.17V600h10.76v4.06h-15Z"/><path class="cls-2" d="M206,604.31l-7.6-12.93h4.81l4.32,8.75-2.49-.08,3.74-8.67h4.53l-7.2,12.93Z"/><path class="cls-2" d="M215.58,586.88a1.81,1.81,0,0,1,.71-1.48,2.39,2.39,0,0,1,1.52-.58,2.27,2.27,0,0,1,1.49.58,1.84,1.84,0,0,1,.68,1.48,1.81,1.81,0,0,1-.68,1.47,2.3,2.3,0,0,1-1.49.56,2.42,2.42,0,0,1-1.52-.56A1.78,1.78,0,0,1,215.58,586.88Zm.08,4.5h4.06v12.67h-4.06Z"/><path class="cls-2" d="M229.06,604.4a6.08,6.08,0,0,1-3.16-.83,5.71,5.71,0,0,1-2.19-2.39,8.12,8.12,0,0,1-.8-3.71,7.24,7.24,0,0,1,.87-3.66,5.77,5.77,0,0,1,2.38-2.29,7.36,7.36,0,0,1,3.42-.78,7.09,7.09,0,0,1,2.34.38,4.56,4.56,0,0,1,1.87,1.16V581.17h4v22.88h-4.06v-2.47l.32.87a9.93,9.93,0,0,1-2.21,1.38A6.56,6.56,0,0,1,229.06,604.4Zm1.33-3.43a4.5,4.5,0,0,0,1.44-.21,3.45,3.45,0,0,0,1.1-.64,3.73,3.73,0,0,0,.83-1.06V596a2.79,2.79,0,0,0-.71-1.09,3.46,3.46,0,0,0-1.16-.7,4.49,4.49,0,0,0-1.5-.24,3.21,3.21,0,0,0-1.66.45,3.4,3.4,0,0,0-1.24,1.23,3.54,3.54,0,0,0-.46,1.8,3.7,3.7,0,0,0,.46,1.82,3.39,3.39,0,0,0,1.24,1.28A3.12,3.12,0,0,0,230.39,601Z"/><path class="cls-2" d="M248.23,604.4a8.15,8.15,0,0,1-3.93-.87,6,6,0,0,1-2.45-2.41,7.24,7.24,0,0,1-.84-3.54,6.34,6.34,0,0,1,1-3.45,7.32,7.32,0,0,1,2.64-2.45,7.48,7.48,0,0,1,3.69-.91,6.42,6.42,0,0,1,4.48,1.58,7.74,7.74,0,0,1,2.27,4.57l-9.86,3.13-.9-2.21,7.14-2.4-.84.37a3.08,3.08,0,0,0-.83-1.32,2.53,2.53,0,0,0-1.78-.56,2.94,2.94,0,0,0-1.58.42,2.71,2.71,0,0,0-1,1.19,4.2,4.2,0,0,0-.36,1.81,4,4,0,0,0,.44,2,2.85,2.85,0,0,0,1.18,1.2,3.55,3.55,0,0,0,1.69.41,3.6,3.6,0,0,0,1.29-.24,7,7,0,0,0,1.23-.6l1.8,3a10.16,10.16,0,0,1-2.19.93A8,8,0,0,1,248.23,604.4Z"/><path class="cls-2" d="M261.71,591.38l.32,2.26-.06-.2a5.22,5.22,0,0,1,1.89-1.93,5.6,5.6,0,0,1,3-.74,4.39,4.39,0,0,1,3,1.06,3.57,3.57,0,0,1,1.23,2.74v9.48H267v-8a2.18,2.18,0,0,0-.45-1.35,1.76,1.76,0,0,0-1.41-.5,2.37,2.37,0,0,0-1.62.61,3.85,3.85,0,0,0-1.07,1.65,7.13,7.13,0,0,0-.38,2.41v5.16H258V591.38Z"/><path class="cls-2" d="M286,602.92a6.74,6.74,0,0,1-2.11,1.07,8.05,8.05,0,0,1-2.48.41,8.42,8.42,0,0,1-3.78-.8,5.9,5.9,0,0,1-2.5-2.29,7,7,0,0,1-.88-3.61,6.52,6.52,0,0,1,1-3.61,6.26,6.26,0,0,1,2.51-2.28A7.15,7.15,0,0,1,281,591a8.58,8.58,0,0,1,3,.46,7.28,7.28,0,0,1,2.16,1.22l-2,2.61a5.73,5.73,0,0,0-1.12-.65,3.9,3.9,0,0,0-1.66-.34,2.82,2.82,0,0,0-1.54.44,3.16,3.16,0,0,0-1.1,1.19,3.5,3.5,0,0,0-.41,1.74,3.35,3.35,0,0,0,.44,1.71,3.15,3.15,0,0,0,1.2,1.23,3.52,3.52,0,0,0,1.81.45,3.69,3.69,0,0,0,1.23-.19,2.89,2.89,0,0,0,1-.53Z"/><path class="cls-2" d="M295.38,604.4a8.21,8.21,0,0,1-3.93-.87,6,6,0,0,1-2.45-2.41,7.24,7.24,0,0,1-.84-3.54,6.26,6.26,0,0,1,1-3.45,7.16,7.16,0,0,1,2.64-2.45,7.46,7.46,0,0,1,3.68-.91,6.41,6.41,0,0,1,4.48,1.58,7.69,7.69,0,0,1,2.28,4.57l-9.86,3.13-.9-2.21,7.13-2.4-.84.37a3,3,0,0,0-.83-1.32,2.52,2.52,0,0,0-1.78-.56,2.94,2.94,0,0,0-1.58.42,2.75,2.75,0,0,0-1,1.19,4.06,4.06,0,0,0-.37,1.81,4.15,4.15,0,0,0,.44,2,2.87,2.87,0,0,0,1.19,1.2,3.48,3.48,0,0,0,1.68.41,3.6,3.6,0,0,0,1.29-.24,6.35,6.35,0,0,0,1.23-.6l1.8,3a10.16,10.16,0,0,1-2.19.93A7.87,7.87,0,0,1,295.38,604.4Z"/><path class="cls-2" d="M216.36,749.93,226,727.75h.23l9.63,22.18H231l-6.14-15.6,3-2.09-7.36,17.69Zm6.58-7.71h6.41l1.48,3.54h-9.19Z"/><path class="cls-2" d="M248.61,748.8a6.54,6.54,0,0,1-2.11,1.08,8,8,0,0,1-2.48.4,8.29,8.29,0,0,1-3.78-.8,5.81,5.81,0,0,1-2.49-2.29,7,7,0,0,1-.89-3.61,6.55,6.55,0,0,1,1-3.61,6.3,6.3,0,0,1,2.51-2.27,7,7,0,0,1,3.26-.79,8.57,8.57,0,0,1,3,.47,7.07,7.07,0,0,1,2.16,1.22l-2,2.61a5.7,5.7,0,0,0-1.12-.66,3.9,3.9,0,0,0-1.66-.33,2.84,2.84,0,0,0-1.54.43,3.08,3.08,0,0,0-1.1,1.19,3.66,3.66,0,0,0-.41,1.74,3.46,3.46,0,0,0,.44,1.71,3.18,3.18,0,0,0,1.2,1.24,3.52,3.52,0,0,0,1.81.45,4.08,4.08,0,0,0,1.24-.19,3.16,3.16,0,0,0,1-.54Z"/><path class="cls-2" d="M252.93,731.69H257v5.51h3.07v3.16H257v9.57h-4.06v-9.57h-2V737.2h2Z"/><path class="cls-2" d="M263.08,732.77a1.8,1.8,0,0,1,.71-1.48,2.34,2.34,0,0,1,1.52-.58,2.22,2.22,0,0,1,1.49.58,1.83,1.83,0,0,1,.68,1.48,1.79,1.79,0,0,1-.68,1.46,2.26,2.26,0,0,1-1.49.57,2.38,2.38,0,0,1-1.52-.57A1.76,1.76,0,0,1,263.08,732.77Zm.08,4.49h4.06v12.67h-4.06Z"/><path class="cls-2" d="M270.41,743.44a6.65,6.65,0,0,1,.92-3.48,6.42,6.42,0,0,1,2.56-2.42,8,8,0,0,1,3.8-.89,7.64,7.64,0,0,1,3.77.89,6.07,6.07,0,0,1,2.45,2.42,7,7,0,0,1,.86,3.48,7.11,7.11,0,0,1-.86,3.49,6.14,6.14,0,0,1-2.45,2.45,7.67,7.67,0,0,1-3.83.9,8.27,8.27,0,0,1-3.72-.81,6.08,6.08,0,0,1-2.57-2.35A7,7,0,0,1,270.41,743.44Zm4.09,0a3.89,3.89,0,0,0,.41,1.78,3.29,3.29,0,0,0,1.1,1.26,2.76,2.76,0,0,0,1.57.47,2.91,2.91,0,0,0,1.65-.47,3.07,3.07,0,0,0,1.07-1.26,4.41,4.41,0,0,0,0-3.58,3.1,3.1,0,0,0-1.07-1.25,2.9,2.9,0,0,0-1.65-.46,2.76,2.76,0,0,0-1.57.46,3.34,3.34,0,0,0-1.1,1.25A3.85,3.85,0,0,0,274.5,743.47Z"/><path class="cls-2" d="M291.64,737.26l.32,2.26-.06-.2a5.29,5.29,0,0,1,1.89-1.93,5.69,5.69,0,0,1,3-.74,4.39,4.39,0,0,1,3,1.06,3.58,3.58,0,0,1,1.23,2.74v9.48H297v-8a2.18,2.18,0,0,0-.45-1.35,1.73,1.73,0,0,0-1.41-.51,2.4,2.4,0,0,0-1.62.61,3.86,3.86,0,0,0-1.07,1.66,6.79,6.79,0,0,0-.38,2.4v5.16H288V737.26Z"/><path class="cls-2" d="M235.32,880h4.21v17.29h10v4.06H235.32Z"/><path class="cls-2" d="M259.48,901.68a8.15,8.15,0,0,1-3.93-.87,6,6,0,0,1-2.45-2.41,7.29,7.29,0,0,1-.84-3.54,6.21,6.21,0,0,1,1-3.45,7.13,7.13,0,0,1,2.63-2.45,7.51,7.51,0,0,1,3.69-.92,6.43,6.43,0,0,1,4.48,1.59,7.63,7.63,0,0,1,2.27,4.56l-9.86,3.14-.89-2.21,7.13-2.41-.84.38a3.08,3.08,0,0,0-.83-1.32,2.49,2.49,0,0,0-1.78-.56,2.94,2.94,0,0,0-1.58.42,2.71,2.71,0,0,0-1.05,1.19,4.2,4.2,0,0,0-.36,1.81,4.15,4.15,0,0,0,.44,2,2.9,2.9,0,0,0,1.18,1.2,3.54,3.54,0,0,0,1.69.4,3.58,3.58,0,0,0,1.29-.23,6.7,6.7,0,0,0,1.23-.61l1.8,3a10.16,10.16,0,0,1-2.19.93A7.87,7.87,0,0,1,259.48,901.68Z"/><path class="cls-2" d="M274.62,901.68a7.08,7.08,0,0,1-3.21-.72,5.29,5.29,0,0,1-2.27-2.18,8.63,8.63,0,0,1,0-7.49,6.36,6.36,0,0,1,2.29-2.42,5.72,5.72,0,0,1,3-.85,5.3,5.3,0,0,1,2.86.62,7.12,7.12,0,0,1,1.61,1.38l-.17.49.37-1.86h3.77v12.68h-4.06v-2.76l.32.87s-.15.11-.35.34a6.29,6.29,0,0,1-.85.78,5.55,5.55,0,0,1-1.39.78A5.28,5.28,0,0,1,274.62,901.68Zm1.16-3.31a3.55,3.55,0,0,0,1.3-.22,2.85,2.85,0,0,0,1-.64,3.81,3.81,0,0,0,.75-1v-3.11a2.82,2.82,0,0,0-.69-1.09,3.31,3.31,0,0,0-1.11-.69,4,4,0,0,0-1.42-.25,3.06,3.06,0,0,0-1.61.45,3.29,3.29,0,0,0-1.17,1.23,3.69,3.69,0,0,0-.44,1.8,3.61,3.61,0,0,0,.47,1.83,3.52,3.52,0,0,0,1.23,1.28A3.25,3.25,0,0,0,275.78,898.37Z"/><path class="cls-2" d="M292.25,901.68a6.08,6.08,0,0,1-3.16-.83,5.71,5.71,0,0,1-2.19-2.39,8.13,8.13,0,0,1-.8-3.72,7.2,7.2,0,0,1,.87-3.65,5.76,5.76,0,0,1,2.38-2.29,7.76,7.76,0,0,1,5.76-.41,4.67,4.67,0,0,1,1.87,1.16v-11.1h4v22.88H297v-2.47l.32.87a10.3,10.3,0,0,1-2.21,1.38A6.56,6.56,0,0,1,292.25,901.68Zm1.33-3.43A4.55,4.55,0,0,0,295,898a3.35,3.35,0,0,0,1.1-.64,3.87,3.87,0,0,0,.83-1.06v-3.1a2.79,2.79,0,0,0-.71-1.09,3.46,3.46,0,0,0-1.16-.7,4.54,4.54,0,0,0-1.5-.24,3.21,3.21,0,0,0-1.66.45,3.4,3.4,0,0,0-1.24,1.23,3.54,3.54,0,0,0-.46,1.8,3.7,3.7,0,0,0,.46,1.82,3.46,3.46,0,0,0,1.24,1.28A3.12,3.12,0,0,0,293.58,898.25Z"/></g></svg>