<svg xmlns="http://www.w3.org/2000/svg" viewBox="0 0 1080 1080"><defs><style>.cls-1{fill:#f7cfd5;}.cls-2{fill:#8ba9e7;}.cls-3,.cls-7{fill:#f14753;}.cls-4{fill:#eb7d88;}.cls-5,.cls-6,.cls-9{fill:none;}.cls-5,.cls-7{stroke:#f14753;}.cls-5,.cls-6,.cls-7,.cls-8,.cls-9{stroke-linecap:round;stroke-linejoin:round;stroke-width:5px;}.cls-6,.cls-8{stroke:#1a3a8a;}.cls-8{fill:#1a3a8a;}.cls-9{stroke:#8ba9e7;}</style></defs><g id="Layer_3" data-name="Layer 3"><path class="cls-1" d="M763,101.51H235.62a65.8,65.8,0,0,0-65.8,65.8V841.43s7,3.32,21.14-6.3a35.72,35.72,0,0,0,15.49-28.6V787.47S198.79,662.7,313.85,662.7H650.74A57.23,57.23,0,0,0,708,605.47V146.62C708.15,118.15,727.48,103.86,763,101.51ZM334.68,308a52.77,52.77,0,1,1,52.77-52.77A52.77,52.77,0,0,1,334.68,308Zm153.13-71.92a34.47,34.47,0,1,1,34.47-34.46A34.46,34.46,0,0,1,487.81,236.06Zm108.56,0a34.47,34.47,0,1,1,34.47-34.46A34.47,34.47,0,0,1,596.37,236.06Z"/><path class="cls-1" d="M798.79,415H982.62S976,382.87,960.4,376.49s-25.78-1.79-25.78-1.79S916.17,342,890.7,345.34c-31.15,4.09-37.53,38.81-37.53,38.81s-19.4-11.49-35.34-1.18C799.52,394.82,798.79,415,798.79,415Z"/><path class="cls-2" d="M758.84,227.26H893V154.62S889.94,102,836,102c-24.13,0-64.77,15.12-73.06,44.83C756.15,171.21,758.84,227.26,758.84,227.26Z"/><circle class="cls-1" cx="597.6" cy="770.37" r="33.19"/><circle class="cls-2" cx="414.28" cy="830.5" r="60.13"/><path class="cls-3" d="M738.93,902.42h20a0,0,0,0,1,0,0V959.6a18.6,18.6,0,0,1-18.6,18.6H679.3a0,0,0,0,1,0,0V962A59.63,59.63,0,0,1,738.93,902.42Z"/><path class="cls-2" d="M107.13,999.72h239s-.22-22.36-16.56-28-24.29-1.64-24.29-1.64-3.83-27.83-35.49-35.24c-27.22-6.36-45.71,12.26-45.71,12.26s-44.68-31.41-83.23-7.15C106.73,961.43,107.13,999.72,107.13,999.72Z"/><polygon class="cls-4" points="844.98 584.85 701.51 756.15 723.04 775.02 868.01 604.66 844.98 584.85"/><polygon class="cls-4" points="858.71 568.46 879.21 543.98 905.77 560.29 882.24 587.94 858.71 568.46"/></g><g id="Layer_2" data-name="Layer 2"><path class="cls-5" d="M758.84,803.56V956.85a21.35,21.35,0,0,1-21.35,21.35H351"/><path class="cls-5" d="M169.82,920.57V166.29a64.78,64.78,0,0,1,64.78-64.78H844.74c-55.42,3.67-85.62,26-85.9,70.47V646.87"/><path class="cls-6" d="M307.81,199.3H620.7A41.75,41.75,0,0,1,662.45,241v14.17"/><line class="cls-6" x1="399.47" y1="255.21" x2="634.36" y2="255.21"/><line class="cls-6" x1="307.81" y1="351.21" x2="634.36" y2="351.21"/><line class="cls-6" x1="356.06" y1="424.21" x2="634.36" y2="424.21"/><line class="cls-6" x1="356.06" y1="497.21" x2="634.36" y2="497.21"/><line class="cls-6" x1="448.49" y1="570.21" x2="634.36" y2="570.21"/><line class="cls-6" x1="507.28" y1="640.21" x2="634.36" y2="640.21"/><line class="cls-6" x1="414.28" y1="570.21" x2="307.81" y2="570.21"/><line class="cls-6" x1="334.62" y1="424.21" x2="307.81" y2="424.21"/><path class="cls-6" d="M413.61,742.82a92.32,92.32,0,1,1-85.15-56.62c31.31,0,58.54,14.95,75.22,38.8"/><polyline class="cls-5" points="281 768.4 320.64 808.04 445.11 683.57"/><line class="cls-6" x1="879.21" y1="543.98" x2="701.51" y2="756.15"/><line class="cls-6" x1="691.7" y1="786.23" x2="697.68" y2="763.81"/><path class="cls-7" d="M688.91,796.71l-6.55,24.55L706.25,808S700.22,793.36,688.91,796.71Z"/><polyline class="cls-6" points="917.12 577.49 739.42 789.66 714.32 803.56"/><line class="cls-6" x1="858.71" y1="568.46" x2="897.22" y2="601.24"/><path class="cls-8" d="M879.21,544A40,40,0,0,0,891.72,567c12.94,11.81,25.4,10.45,25.4,10.45s4.56-12.15-11.1-25.09C889.68,538.9,879.21,544,879.21,544Z"/><path class="cls-6" d="M516.06,839.55S545,717.68,585.85,717.68c43.58,0-11.91,164.09-57.19,164.77-18.54.28-27.23-33.36,31.73-51.17,59.37-17.93,142.45,28,78.57,45.72"/><path class="cls-6" d="M539.55,899.13s56.85-46.3,144.34-42.56"/><circle class="cls-9" cx="334.68" cy="255.21" r="26.87"/><path class="cls-8" d="M722.92,730.59s9.55,5.54,11.4,20.58a34.21,34.21,0,0,1-7.91,26.8l-24.9-21.82Z"/></g></svg>