<svg xmlns="http://www.w3.org/2000/svg" viewBox="0 0 1080 1080"><defs><style>.cls-1{fill:#1a3a8a;}.cls-2{fill:#f14753;}.cls-3{fill:#8ba9e7;}.cls-4{fill:#f7cfd5;}.cls-5,.cls-6{fill:none;stroke-linecap:round;stroke-linejoin:round;stroke-width:5px;}.cls-5{stroke:#1a3a8a;}.cls-6{stroke:#f14753;}</style></defs><g id="Layer_3" data-name="Layer 3"><path class="cls-1" d="M331.73,839.44h282.6a2.72,2.72,0,0,0,2-4.59L516,727.85a7.89,7.89,0,0,0-11.21-.29l-60.91,58.56-26.17-22.19a7.89,7.89,0,0,0-10.41.19L329.89,834.7A2.73,2.73,0,0,0,331.73,839.44Z"/><circle class="cls-2" cx="437.69" cy="704.89" r="29.37"/><circle class="cls-3" cx="739.88" cy="935.38" r="89.8"/><path class="cls-3" d="M121.07,929H300.42c-1.32-41.31-36.16-53.11-58.15-38.94C221,831.3,127.37,851.28,121.07,929Z"/><path class="cls-4" d="M649.44,189.44a75.48,75.48,0,1,1-129.31,0H419.89V142.22a35.47,35.47,0,0,0-35.48-35.48H171.25v82.7h-.33V813.06H301.78V627.14H616.51A22.52,22.52,0,0,1,639,649.67V813.06H698.7V189.44Z"/><path class="cls-3" d="M646.4,149.09H862.48a1.7,1.7,0,0,0,1.67-1.38c6.88-38.07-29.74-61.65-60-47.81-39.88-53-106.89-22.59-105.48,25.17-20.86-16.12-51.24-1.95-55,20.81A2.76,2.76,0,0,0,646.4,149.09Z"/><circle class="cls-1" cx="555.6" cy="194.81" r="8.85"/><path class="cls-1" d="M638.11,439.62H303.52a7.5,7.5,0,0,1,0-15H638.11a7.5,7.5,0,0,1,0,15Z"/></g><g id="Layer_2" data-name="Layer 2"><path class="cls-1" d="M925.93,191.11h4.2v17.28h10v4.06H925.93Z"/><path class="cls-1" d="M942.86,206a6.65,6.65,0,0,1,.92-3.48,6.36,6.36,0,0,1,2.56-2.42,7.93,7.93,0,0,1,3.8-.89,7.64,7.64,0,0,1,3.77.89,6.14,6.14,0,0,1,2.45,2.42,7,7,0,0,1,.86,3.48,7.11,7.11,0,0,1-.86,3.49,6.21,6.21,0,0,1-2.45,2.45,7.67,7.67,0,0,1-3.83.9,8.27,8.27,0,0,1-3.72-.81,6,6,0,0,1-2.57-2.35A7,7,0,0,1,942.86,206Zm4.09,0a3.89,3.89,0,0,0,.41,1.78,3.29,3.29,0,0,0,1.1,1.26,2.76,2.76,0,0,0,1.57.47,2.93,2.93,0,0,0,1.65-.47,3.07,3.07,0,0,0,1.07-1.26,4.41,4.41,0,0,0,0-3.58,3.1,3.1,0,0,0-1.07-1.25,2.92,2.92,0,0,0-1.65-.46,2.76,2.76,0,0,0-1.57.46,3.34,3.34,0,0,0-1.1,1.25A3.85,3.85,0,0,0,947,206Z"/><path class="cls-1" d="M967,218.83a8.89,8.89,0,0,1-2.88-.4,7.54,7.54,0,0,1-2-1c-.54-.39-1-.75-1.45-1.1l2.38-2.78a11.82,11.82,0,0,0,1.55,1.17,4.25,4.25,0,0,0,2.33.57,4.79,4.79,0,0,0,1.79-.34,3.13,3.13,0,0,0,1.33-1,2.48,2.48,0,0,0,.51-1.59v-2.79l.14.73a4.17,4.17,0,0,1-1.68,1.72,6.65,6.65,0,0,1-6.36-.14,6.6,6.6,0,0,1-2.34-2.41,7.3,7.3,0,0,1,.06-7,7.07,7.07,0,0,1,2.41-2.45,5.91,5.91,0,0,1,3.13-.9,7.75,7.75,0,0,1,2.86.48,4.63,4.63,0,0,1,1.81,1.18l-.15.37.44-1.39h3.74v12.67a5.46,5.46,0,0,1-1.05,3.3,7.2,7.2,0,0,1-2.77,2.26A8.71,8.71,0,0,1,967,218.83Zm-3.45-12.9a3.74,3.74,0,0,0,.46,1.83,3.37,3.37,0,0,0,1.27,1.27,3.45,3.45,0,0,0,1.78.47,4.82,4.82,0,0,0,1.49-.22,3.64,3.64,0,0,0,1.16-.64,3.48,3.48,0,0,0,.86-1.06v-3.1a3,3,0,0,0-.78-1.09,3.7,3.7,0,0,0-1.21-.69,4.29,4.29,0,0,0-1.52-.25,3.54,3.54,0,0,0-1.78.45,3.34,3.34,0,0,0-1.27,1.23A3.54,3.54,0,0,0,963.51,205.93Z"/><path class="cls-1" d="M977.78,206a6.65,6.65,0,0,1,.91-3.48,6.45,6.45,0,0,1,2.57-2.42,7.93,7.93,0,0,1,3.8-.89,7.67,7.67,0,0,1,3.77.89,6.14,6.14,0,0,1,2.45,2.42,7,7,0,0,1,.85,3.48,7.1,7.1,0,0,1-.85,3.49,6.21,6.21,0,0,1-2.45,2.45,7.69,7.69,0,0,1-3.83.9,8.34,8.34,0,0,1-3.73-.81,6.06,6.06,0,0,1-2.56-2.35A7,7,0,0,1,977.78,206Zm4.09,0a3.88,3.88,0,0,0,.4,1.78,3.24,3.24,0,0,0,1.11,1.26,2.73,2.73,0,0,0,1.56.47,2.88,2.88,0,0,0,1.65-.47,3,3,0,0,0,1.08-1.26,4.51,4.51,0,0,0,0-3.58,3.05,3.05,0,0,0-1.08-1.25,2.88,2.88,0,0,0-1.65-.46,2.72,2.72,0,0,0-1.56.46,3.28,3.28,0,0,0-1.11,1.25A3.85,3.85,0,0,0,981.87,206Z"/><path class="cls-1" d="M924.48,413.21h14.38v4.06h-5.19v17.29h-4.21V417.27h-5Z"/><path class="cls-1" d="M945.59,434.91a8.15,8.15,0,0,1-3.93-.87,6,6,0,0,1-2.45-2.41,7.26,7.26,0,0,1-.84-3.54,6.31,6.31,0,0,1,1-3.45,7.32,7.32,0,0,1,2.64-2.45,7.48,7.48,0,0,1,3.69-.91,6.42,6.42,0,0,1,4.48,1.58,7.68,7.68,0,0,1,2.27,4.56l-9.86,3.14-.9-2.21,7.14-2.4-.84.37a3.08,3.08,0,0,0-.83-1.32,2.53,2.53,0,0,0-1.78-.56,2.94,2.94,0,0,0-1.58.42,2.65,2.65,0,0,0-1,1.19,4.2,4.2,0,0,0-.36,1.81,4.15,4.15,0,0,0,.43,2,2.93,2.93,0,0,0,1.19,1.2,3.55,3.55,0,0,0,1.69.41,3.6,3.6,0,0,0,1.29-.24,6.39,6.39,0,0,0,1.23-.61l1.8,3a10.16,10.16,0,0,1-2.19.93A8,8,0,0,1,945.59,434.91Z"/><path class="cls-1" d="M967.83,434.56h-4.9l-9.77-12.67h5Zm-7.65-4.06-2.85,4.06h-4l5-6.79Zm.52-4.58,2.41-4h4l-5,7Z"/><path class="cls-1" d="M971.4,416.32h4.06v5.51h3.07V425h-3.07v9.57H971.4V425h-2v-3.16h2Z"/><path class="cls-1" d="M925.93,674.51h4.2v21.34h-4.2Z"/><path class="cls-1" d="M938.66,683.18l.32,2.24-.06-.18a5.81,5.81,0,0,1,1.88-2,5.09,5.09,0,0,1,2.73-.71,5.42,5.42,0,0,1,1.84.29,3.64,3.64,0,0,1,1.35.86,2.91,2.91,0,0,1,.75,1.46l-.14,0a6.6,6.6,0,0,1,2-1.91,4.43,4.43,0,0,1,2.39-.73,4.19,4.19,0,0,1,3,1.06,3.73,3.73,0,0,1,1.15,2.74v9.51h-4V688a3.48,3.48,0,0,0-.26-1.37,1.12,1.12,0,0,0-1.07-.6,2.29,2.29,0,0,0-1.67.68,4.28,4.28,0,0,0-1,1.74,7.37,7.37,0,0,0-.34,2.19v5.19h-4.06V688a3.12,3.12,0,0,0-.3-1.37,1.24,1.24,0,0,0-1.12-.6,2.18,2.18,0,0,0-1.61.68,4.43,4.43,0,0,0-1,1.73,7.1,7.1,0,0,0-.33,2.15v5.24H935V683.18Z"/><path class="cls-1" d="M965.34,696.2a7.07,7.07,0,0,1-3.21-.71,5.26,5.26,0,0,1-2.27-2.19,8.56,8.56,0,0,1,0-7.48,6.39,6.39,0,0,1,2.3-2.42,5.73,5.73,0,0,1,3-.86,5.3,5.3,0,0,1,2.86.63,7.09,7.09,0,0,1,1.61,1.37l-.18.5.38-1.86h3.77v12.67h-4.06V693.1l.32.87s-.15.11-.35.33a6.23,6.23,0,0,1-.85.79,5.45,5.45,0,0,1-1.4.78A5.24,5.24,0,0,1,965.34,696.2Zm1.16-3.3a3.77,3.77,0,0,0,1.3-.22,3,3,0,0,0,1-.64,3.72,3.72,0,0,0,.75-1.06v-3.1a2.94,2.94,0,0,0-.69-1.09,3.16,3.16,0,0,0-1.11-.69,3.78,3.78,0,0,0-1.42-.25,3.06,3.06,0,0,0-1.61.45,3.29,3.29,0,0,0-1.17,1.23,3.85,3.85,0,0,0,0,3.63,3.49,3.49,0,0,0,1.23,1.27A3.17,3.17,0,0,0,966.5,692.9Z"/><path class="cls-1" d="M984.36,702.23a8.89,8.89,0,0,1-2.88-.4,7.54,7.54,0,0,1-2-1c-.54-.38-1-.75-1.45-1.1l2.38-2.78a11.82,11.82,0,0,0,1.55,1.17,4.25,4.25,0,0,0,2.33.57,4.79,4.79,0,0,0,1.79-.34,3.13,3.13,0,0,0,1.33-1,2.46,2.46,0,0,0,.51-1.59V693l.14.73a4.11,4.11,0,0,1-1.68,1.72,6.65,6.65,0,0,1-6.36-.14,6.52,6.52,0,0,1-2.34-2.41,7.3,7.3,0,0,1,.06-7,7.07,7.07,0,0,1,2.41-2.45,5.91,5.91,0,0,1,3.13-.9,7.75,7.75,0,0,1,2.86.48A4.63,4.63,0,0,1,988,684.2l-.15.37.44-1.39H992v12.67a5.46,5.46,0,0,1-1,3.3,7.13,7.13,0,0,1-2.77,2.26A8.71,8.71,0,0,1,984.36,702.23Zm-3.45-12.9a3.61,3.61,0,0,0,.47,1.83,3.27,3.27,0,0,0,1.26,1.27,3.45,3.45,0,0,0,1.78.47,4.82,4.82,0,0,0,1.49-.22,3.64,3.64,0,0,0,1.16-.64,3.48,3.48,0,0,0,.86-1.06v-3.1a3,3,0,0,0-.78-1.09,3.7,3.7,0,0,0-1.21-.69,4.29,4.29,0,0,0-1.52-.25,3.54,3.54,0,0,0-1.78.45,3.24,3.24,0,0,0-1.26,1.23A3.45,3.45,0,0,0,980.91,689.33Z"/><path class="cls-1" d="M1002.4,696.2a8.15,8.15,0,0,1-3.93-.87,6,6,0,0,1-2.45-2.4,7.29,7.29,0,0,1-.84-3.54,6.29,6.29,0,0,1,1-3.45,7.24,7.24,0,0,1,2.64-2.45,7.51,7.51,0,0,1,3.69-.92,6.47,6.47,0,0,1,4.48,1.58,7.69,7.69,0,0,1,2.27,4.57l-9.86,3.13-.9-2.2,7.14-2.41-.84.38a3.08,3.08,0,0,0-.83-1.32,2.49,2.49,0,0,0-1.78-.57,2.94,2.94,0,0,0-1.58.42,2.71,2.71,0,0,0-1.05,1.19,4.28,4.28,0,0,0-.36,1.82,4.08,4.08,0,0,0,.44,2,2.93,2.93,0,0,0,1.18,1.21,3.54,3.54,0,0,0,1.69.4,3.81,3.81,0,0,0,1.29-.23,7,7,0,0,0,1.23-.61l1.8,3a10.66,10.66,0,0,1-2.19.92A7.63,7.63,0,0,1,1002.4,696.2Z"/><path class="cls-1" d="M1016.32,696.12a7.63,7.63,0,0,1-2.92-.56,6.32,6.32,0,0,1-2.27-1.53l1.68-2.24a6.6,6.6,0,0,0,1.73,1.21,3.33,3.33,0,0,0,2.32.26,1.52,1.52,0,0,0,.62-.32.75.75,0,0,0,.23-.56.94.94,0,0,0-.39-.79,3.45,3.45,0,0,0-1-.48l-1.31-.39a4.7,4.7,0,0,1-2.5-1.61,3.77,3.77,0,0,1-.77-2.3,4.13,4.13,0,0,1,.51-1.93,4,4,0,0,1,1.62-1.63,5.71,5.71,0,0,1,2.88-.65,9.89,9.89,0,0,1,2.7.32,6.6,6.6,0,0,1,2.09,1l-1.54,2.38a6.28,6.28,0,0,0-1.23-.74,3.63,3.63,0,0,0-1.26-.33,2,2,0,0,0-.89.12,1.37,1.37,0,0,0-.56.37.73.73,0,0,0-.2.5,1,1,0,0,0,.42.87,3.53,3.53,0,0,0,1.14.49c.47.11.92.25,1.36.4a5.56,5.56,0,0,1,1.6.79,3.57,3.57,0,0,1,1,1.17,3.48,3.48,0,0,1,.36,1.64,4.28,4.28,0,0,1-2.39,3.86A6.55,6.55,0,0,1,1016.32,696.12Z"/><polyline class="cls-5" points="171.25 842.59 171.25 106.74 693.16 106.74"/><path class="cls-5" d="M775,725.74V966H181.23a10,10,0,0,1-10-10V939"/><line class="cls-5" x1="303.52" y1="212.3" x2="494.21" y2="212.3"/><line class="cls-5" x1="303.52" y1="241.83" x2="494.21" y2="241.83"/><line class="cls-5" x1="303.52" y1="356.4" x2="529.62" y2="356.4"/><line class="cls-5" x1="303.52" y1="390.4" x2="638.11" y2="390.4"/><line class="cls-5" x1="303.52" y1="478.03" x2="529.62" y2="478.03"/><line class="cls-5" x1="303.52" y1="512.02" x2="638.11" y2="512.02"/><line class="cls-5" x1="303.52" y1="548.19" x2="529.62" y2="548.19"/><line class="cls-5" x1="303.52" y1="582.18" x2="638.11" y2="582.18"/><path class="cls-5" d="M541,247.16a5,5,0,0,0,3.91,1.62c2-.06,61.9-4.94,61.9,5.81,0,9.78-31.44,2.67-31.44,14.88,0,9.94,44.47,4.08,44.47,4.08"/><path class="cls-6" d="M535.59,228s11.75-7.52,23.51-9.34c16.45-2.55,23.2,10.68,11,17.43-8,4.45-14.49.36-12.48-7.39,1.48-5.73,8.93-12,13.52-19.33,4.38-7,11.39-15.92,17.06-22.79a9.94,9.94,0,0,1,16.23,1.32l36.75,62.85"/><polyline class="cls-5" points="862.47 210.67 871.91 220.12 893.96 201"/><polyline class="cls-5" points="862.47 428.98 871.91 438.43 893.96 419.32"/><polyline class="cls-5" points="862.47 693.61 871.91 703.06 893.96 683.95"/><line class="cls-5" x1="774.97" y1="462.18" x2="774.97" y2="697.94"/><line class="cls-5" x1="774.97" y1="231.36" x2="774.97" y2="432.12"/><line class="cls-5" x1="774.97" y1="156.91" x2="774.97" y2="215.34"/><line class="cls-6" x1="681.87" y1="697.94" x2="844.77" y2="697.94"/><line class="cls-6" x1="681.87" y1="432.12" x2="844.77" y2="432.12"/><line class="cls-6" x1="681.87" y1="215.34" x2="844.77" y2="215.34"/><path class="cls-6" d="M301.78,627.14H616.51A22.53,22.53,0,0,1,639,649.67V857.36a0,0,0,0,1,0,0H301.78a0,0,0,0,1,0,0V627.14A0,0,0,0,1,301.78,627.14Z"/></g></svg>