<svg xmlns="http://www.w3.org/2000/svg" viewBox="0 0 1080 900"><defs><style>.cls-1{fill:#f7cfd5;}.cls-2{fill:#8ba9e7;}.cls-3,.cls-4,.cls-5,.cls-6,.cls-7{fill:none;stroke-linecap:round;stroke-linejoin:round;}.cls-3,.cls-6{stroke:#1a3a8a;}.cls-3,.cls-4{stroke-width:15px;}.cls-4,.cls-7{stroke:#00ca61;}.cls-5{stroke:#f14753;}.cls-5,.cls-6,.cls-7{stroke-width:5px;}.cls-8{fill:#1a3a8a;}</style></defs><g id="Layer_3" data-name="Layer 3"><path class="cls-1" d="M387.33,352.85H971.67a27.3,27.3,0,0,0,27.3-27.3V235.76H337.14v66.9A50.19,50.19,0,0,0,387.33,352.85Z"/><path class="cls-1" d="M387.33,503.23H971.67a27.3,27.3,0,0,0,27.3-27.3v-89.8H337.14V453A50.19,50.19,0,0,0,387.33,503.23Z"/><path class="cls-1" d="M387.33,653.61H971.67a27.3,27.3,0,0,0,27.3-27.3v-89.8H337.14v66.9A50.2,50.2,0,0,0,387.33,653.61Z"/><path class="cls-1" d="M387.33,804H971.67A27.29,27.29,0,0,0,999,776.69v-89.8H337.14v66.9A50.19,50.19,0,0,0,387.33,804Z"/><path class="cls-2" d="M79.48,888.2H290.14a2.86,2.86,0,0,0,2.78-3.62c-5.4-18.71-30.2-28.22-46.35-18.31-10.21-30.63-51.69-30.63-72.11-8.47-28.7-46.36-95.08-19.23-97.86,27.38A2.87,2.87,0,0,0,79.48,888.2Z"/><path class="cls-2" d="M811.53,208.39h203.86a4.53,4.53,0,0,0,4.54-4.65c-2.48-85.81-74.14-76.22-106.79-31-42.5-40.42-97.9-11.26-106.08,30.26A4.54,4.54,0,0,0,811.53,208.39Z"/></g><g id="Layer_2" data-name="Layer 2"><line class="cls-3" x1="628.14" y1="294.3" x2="962.73" y2="294.3"/><line class="cls-4" x1="598.17" y1="294.3" x2="936.6" y2="294.3"/><line class="cls-5" x1="152.18" y1="188.62" x2="384.49" y2="188.62"/><line class="cls-5" x1="420.33" y1="836.3" x2="776.31" y2="836.3"/><path class="cls-6" d="M150.16,235.76H999v89.79a27.3,27.3,0,0,1-27.3,27.3H150.16"/><path class="cls-7" d="M208.71,294.3a58.51,58.51,0,1,1-1.46-13"/><line class="cls-4" x1="628.14" y1="444.68" x2="962.73" y2="444.68"/><path class="cls-6" d="M150.16,386.13H999v89.8a27.3,27.3,0,0,1-27.3,27.3H150.16"/><line class="cls-4" x1="628.14" y1="595.06" x2="962.73" y2="595.06"/><path class="cls-6" d="M150.16,536.51H999v89.8a27.3,27.3,0,0,1-27.3,27.3H150.16"/><line class="cls-4" x1="628.14" y1="745.44" x2="962.73" y2="745.44"/><path class="cls-6" d="M150.16,686.89H999v89.8A27.29,27.29,0,0,1,971.67,804H150.16"/><circle class="cls-7" cx="150.16" cy="595.06" r="58.55"/><circle class="cls-7" cx="150.16" cy="745.44" r="58.55"/><circle class="cls-7" cx="150.16" cy="444.68" r="58.55"/><path class="cls-8" d="M282,281.92a10.31,10.31,0,0,1,4.46.88,6.42,6.42,0,0,1,2.79,2.5,7.38,7.38,0,0,1,.95,3.81,9.26,9.26,0,0,1-.39,2.63,7,7,0,0,1-1.25,2.39,6,6,0,0,1-2.29,1.72,8.38,8.38,0,0,1-3.52.66h-3v6.75h-4.2V281.92Zm.72,10.5a3.35,3.35,0,0,0,1.6-.34,2.86,2.86,0,0,0,1-.84,3.55,3.55,0,0,0,.52-1.05,3.42,3.42,0,0,0,.16-1,5.81,5.81,0,0,0-.1-.86,3.55,3.55,0,0,0-.42-1.08,2.59,2.59,0,0,0-1-.93,3.47,3.47,0,0,0-1.75-.38h-3v6.44Z"/><path class="cls-8" d="M299.51,303.61a8.15,8.15,0,0,1-3.93-.87,5.93,5.93,0,0,1-2.45-2.41,7.23,7.23,0,0,1-.84-3.53,6.21,6.21,0,0,1,1-3.45,7,7,0,0,1,2.63-2.45,7.51,7.51,0,0,1,3.69-.92,6.47,6.47,0,0,1,4.48,1.58,7.69,7.69,0,0,1,2.27,4.57l-9.86,3.13-.89-2.2,7.13-2.41-.84.38a3.08,3.08,0,0,0-.83-1.32,2.47,2.47,0,0,0-1.78-.57,2.94,2.94,0,0,0-1.58.42,2.77,2.77,0,0,0-1.05,1.19,4.27,4.27,0,0,0-.36,1.81,4.1,4.1,0,0,0,.44,2,3,3,0,0,0,1.19,1.21,3.48,3.48,0,0,0,1.68.4,3.81,3.81,0,0,0,1.29-.23,7.8,7.8,0,0,0,1.23-.61l1.8,3a10.66,10.66,0,0,1-2.19.92A7.53,7.53,0,0,1,299.51,303.61Z"/><path class="cls-8" d="M313,290.59l.37,3.48-.08-.52a5.69,5.69,0,0,1,1.5-1.93,9,9,0,0,1,1.9-1.23,3.89,3.89,0,0,1,1.44-.44l-.2,4.06a3.64,3.64,0,0,0-2.44.47,4.3,4.3,0,0,0-1.57,1.68,4.61,4.61,0,0,0-.55,2.15v4.95h-4V290.59Z"/><path class="cls-8" d="M322.42,303.26v-9.13h-2.15v-3.6h2.15v-4.41a5.8,5.8,0,0,1,1.44-4.07,5.33,5.33,0,0,1,4.16-1.58,7.39,7.39,0,0,1,1.81.25,4.92,4.92,0,0,1,1.75.79l-1.71,2.93a1.36,1.36,0,0,0-.68-.5,2.27,2.27,0,0,0-.74-.13,1.86,1.86,0,0,0-1.42.58,2.59,2.59,0,0,0-.55,1.85v4.29h3.83v3.6h-3.83v9.13Z"/><path class="cls-8" d="M332,296.77a6.65,6.65,0,0,1,.92-3.48,6.36,6.36,0,0,1,2.56-2.42,7.93,7.93,0,0,1,3.8-.89,7.64,7.64,0,0,1,3.77.89,6.14,6.14,0,0,1,2.45,2.42,7,7,0,0,1,.86,3.48,7.11,7.11,0,0,1-.86,3.49,6.21,6.21,0,0,1-2.45,2.45,7.67,7.67,0,0,1-3.83.9,8.27,8.27,0,0,1-3.72-.81,6,6,0,0,1-2.57-2.35A7,7,0,0,1,332,296.77Zm4.09,0a3.89,3.89,0,0,0,.41,1.78,3.21,3.21,0,0,0,1.1,1.26,2.73,2.73,0,0,0,1.56.47,2.94,2.94,0,0,0,1.66-.47,3.07,3.07,0,0,0,1.07-1.26,4.41,4.41,0,0,0,0-3.58,3.1,3.1,0,0,0-1.07-1.25,2.94,2.94,0,0,0-1.66-.46,2.72,2.72,0,0,0-1.56.46,3.25,3.25,0,0,0-1.1,1.25A3.85,3.85,0,0,0,336.05,296.8Z"/><path class="cls-8" d="M353.16,290.59l.38,3.48-.09-.52a5.71,5.71,0,0,1,1.51-1.93,8.73,8.73,0,0,1,1.9-1.23,3.85,3.85,0,0,1,1.43-.44l-.2,4.06a3.64,3.64,0,0,0-2.44.47,4.35,4.35,0,0,0-1.56,1.68,4.5,4.5,0,0,0-.55,2.15v4.95h-4V290.59Z"/><path class="cls-8" d="M365.08,290.59l.32,2.23-.06-.17a5.81,5.81,0,0,1,1.88-2A5.09,5.09,0,0,1,370,290a5.42,5.42,0,0,1,1.84.29,3.64,3.64,0,0,1,1.35.86,2.91,2.91,0,0,1,.75,1.46l-.14,0a6.6,6.6,0,0,1,2-1.91,4.43,4.43,0,0,1,2.39-.73,4.19,4.19,0,0,1,3,1.06,3.73,3.73,0,0,1,1.15,2.74v9.51h-4v-7.83a3.88,3.88,0,0,0-.26-1.37,1.15,1.15,0,0,0-1.08-.6,2.29,2.29,0,0,0-1.67.68,4.28,4.28,0,0,0-1,1.74,7.36,7.36,0,0,0-.33,2.19v5.19h-4.06v-7.83a3.26,3.26,0,0,0-.31-1.37,1.23,1.23,0,0,0-1.12-.6,2.14,2.14,0,0,0-1.6.68,4.32,4.32,0,0,0-1,1.73,7.05,7.05,0,0,0-.33,2.15v5.24H361.4V290.59Z"/><path class="cls-8" d="M391.76,303.61a7.07,7.07,0,0,1-3.21-.71,5.26,5.26,0,0,1-2.27-2.19,8.61,8.61,0,0,1,0-7.48,6.36,6.36,0,0,1,2.29-2.42,5.73,5.73,0,0,1,3-.86,5.3,5.3,0,0,1,2.86.63,7.09,7.09,0,0,1,1.61,1.37l-.17.5.37-1.86h3.77v12.67H396v-2.75l.32.87s-.15.11-.35.33a5.68,5.68,0,0,1-.85.79,5.55,5.55,0,0,1-1.39.78A5.29,5.29,0,0,1,391.76,303.61Zm1.16-3.3a3.77,3.77,0,0,0,1.3-.22,3,3,0,0,0,1-.64,3.72,3.72,0,0,0,.75-1.06v-3.1a2.75,2.75,0,0,0-.69-1.09,3.21,3.21,0,0,0-1.1-.69,3.83,3.83,0,0,0-1.43-.25,3.06,3.06,0,0,0-1.61.45,3.29,3.29,0,0,0-1.17,1.23,3.85,3.85,0,0,0,0,3.63,3.49,3.49,0,0,0,1.23,1.27A3.17,3.17,0,0,0,392.92,300.31Z"/><path class="cls-8" d="M407.91,290.59l.32,2.26-.06-.2a5.29,5.29,0,0,1,1.89-1.93,5.68,5.68,0,0,1,3-.74,4.39,4.39,0,0,1,3,1.06,3.58,3.58,0,0,1,1.23,2.74v9.48h-4.06v-8a2.18,2.18,0,0,0-.45-1.35,1.73,1.73,0,0,0-1.41-.51,2.4,2.4,0,0,0-1.62.61,3.86,3.86,0,0,0-1.07,1.66,6.79,6.79,0,0,0-.38,2.4v5.16h-4.06V290.59Z"/><path class="cls-8" d="M432.21,302.13a6.49,6.49,0,0,1-2.1,1.08,8.08,8.08,0,0,1-2.48.4,8.29,8.29,0,0,1-3.78-.8,5.78,5.78,0,0,1-2.5-2.29,7,7,0,0,1-.88-3.61,6.63,6.63,0,0,1,.95-3.61,6.37,6.37,0,0,1,2.51-2.27,7.1,7.1,0,0,1,3.27-.79,8.57,8.57,0,0,1,3,.47,7.07,7.07,0,0,1,2.16,1.22l-2,2.61a5.51,5.51,0,0,0-1.12-.66,3.92,3.92,0,0,0-1.67-.33A2.81,2.81,0,0,0,426,294a3.18,3.18,0,0,0-1.11,1.19,3.66,3.66,0,0,0-.4,1.74,3.45,3.45,0,0,0,.43,1.71,3.14,3.14,0,0,0,1.21,1.24,3.5,3.5,0,0,0,1.81.45,4.06,4.06,0,0,0,1.23-.19,2.94,2.94,0,0,0,1-.54Z"/><path class="cls-8" d="M441.58,303.61a8.15,8.15,0,0,1-3.93-.87,5.93,5.93,0,0,1-2.45-2.41,7.23,7.23,0,0,1-.84-3.53,6.29,6.29,0,0,1,1-3.45A7.15,7.15,0,0,1,438,290.9a7.51,7.51,0,0,1,3.69-.92,6.47,6.47,0,0,1,4.48,1.58,7.69,7.69,0,0,1,2.27,4.57l-9.86,3.13-.89-2.2,7.13-2.41L444,295a3.08,3.08,0,0,0-.83-1.32,2.49,2.49,0,0,0-1.78-.57,2.94,2.94,0,0,0-1.58.42,2.71,2.71,0,0,0-1,1.19,4.27,4.27,0,0,0-.36,1.81,4.1,4.1,0,0,0,.44,2,3,3,0,0,0,1.18,1.21,3.54,3.54,0,0,0,1.69.4,3.81,3.81,0,0,0,1.29-.23,7.8,7.8,0,0,0,1.23-.61l1.8,3a10.66,10.66,0,0,1-2.19.92A7.53,7.53,0,0,1,441.58,303.61Z"/><path class="cls-8" d="M139.25,297.77a5.93,5.93,0,0,1-3.15-.92,7.28,7.28,0,0,1-3.48-6.35,8.51,8.51,0,0,1,1.2-4.63,8.12,8.12,0,0,1,3.11-2.89,8.59,8.59,0,0,1,4-1,8.8,8.8,0,0,1,4.43,1.1,8.48,8.48,0,0,1,3.12,3,8.32,8.32,0,0,1,1.15,4.33,12.42,12.42,0,0,1-1,5,14.46,14.46,0,0,1-2.58,4,23.92,23.92,0,0,1-3.59,3.21q-2,1.45-4,2.71l-3.3-3.57a25.19,25.19,0,0,0,4.8-2.57,13.37,13.37,0,0,0,3.23-3,5.28,5.28,0,0,0,1.16-3.11l1.22.14a8.55,8.55,0,0,1-2.35,3.33A6.1,6.1,0,0,1,139.25,297.77Zm1.9-4.15a3.39,3.39,0,0,0,2.41-.91,2.8,2.8,0,0,0,1-2.08v-.78a3.42,3.42,0,0,0-.44-1.67,3.68,3.68,0,0,0-1.21-1.27,3.14,3.14,0,0,0-1.75-.49,3.6,3.6,0,0,0-1.73.42,3,3,0,0,0-1.23,1.24,4.24,4.24,0,0,0-.44,2,3.8,3.8,0,0,0,.46,2,2.91,2.91,0,0,0,1.22,1.19A3.75,3.75,0,0,0,141.15,293.62Z"/><path class="cls-8" d="M157.81,297.77a5.87,5.87,0,0,1-3.14-.92,7.32,7.32,0,0,1-3.49-6.35,8.42,8.42,0,0,1,1.21-4.63A8,8,0,0,1,155.5,283a8.55,8.55,0,0,1,4-1,8.86,8.86,0,0,1,4.44,1.1,8.45,8.45,0,0,1,3.11,3,8.22,8.22,0,0,1,1.15,4.33,12.59,12.59,0,0,1-1,5,14.49,14.49,0,0,1-2.59,4,23.92,23.92,0,0,1-3.59,3.21c-1.31,1-2.64,1.87-4,2.71l-3.3-3.57a25.4,25.4,0,0,0,4.79-2.57,13.37,13.37,0,0,0,3.23-3,5.28,5.28,0,0,0,1.16-3.11l1.22.14a8.64,8.64,0,0,1-2.34,3.33A6.13,6.13,0,0,1,157.81,297.77Zm1.9-4.15a3.42,3.42,0,0,0,2.42-.91,2.78,2.78,0,0,0,1-2.08v-.78a3.31,3.31,0,0,0-.44-1.67,3.5,3.5,0,0,0-1.21-1.27,3.12,3.12,0,0,0-1.75-.49,3.6,3.6,0,0,0-1.73.42,3,3,0,0,0-1.22,1.24,4.12,4.12,0,0,0-.45,2,3.91,3.91,0,0,0,.46,2,2.93,2.93,0,0,0,1.23,1.19A3.71,3.71,0,0,0,159.71,293.62Z"/><path class="cls-8" d="M281.76,432.3a9.26,9.26,0,0,1,5.31,1.35,4.54,4.54,0,0,1,2,4,5.35,5.35,0,0,1-1,3.29,5.89,5.89,0,0,1-2.64,2,10.49,10.49,0,0,1-3.81.65l-.67-2.26a14,14,0,0,1,4.68.72,7.61,7.61,0,0,1,3.24,2.08,4.71,4.71,0,0,1,1.19,3.23,6.26,6.26,0,0,1-.63,2.94,5.22,5.22,0,0,1-1.68,1.95,7.11,7.11,0,0,1-2.39,1.07,11.46,11.46,0,0,1-2.76.33h-7.1V432.3Zm.5,8.73a2.19,2.19,0,0,0,1.84-.76,2.71,2.71,0,0,0,.59-1.71,1.92,1.92,0,0,0-.74-1.65,3.21,3.21,0,0,0-2-.55H279.7V441Zm.14,8.7a5.2,5.2,0,0,0,1.68-.25,2.39,2.39,0,0,0,1.19-.78,2.09,2.09,0,0,0,.44-1.35,1.85,1.85,0,0,0-.52-1.41,2.86,2.86,0,0,0-1.35-.66,7.52,7.52,0,0,0-1.73-.19H279.7v4.64Z"/><path class="cls-8" d="M299.83,454a8.15,8.15,0,0,1-3.93-.87,5.93,5.93,0,0,1-2.45-2.41,7.23,7.23,0,0,1-.84-3.53,6.34,6.34,0,0,1,1-3.46,7.32,7.32,0,0,1,2.64-2.45,7.5,7.5,0,0,1,3.69-.91,6.47,6.47,0,0,1,4.48,1.58,7.66,7.66,0,0,1,2.27,4.57l-9.86,3.13-.89-2.2,7.13-2.41-.84.38a3,3,0,0,0-.83-1.32,2.49,2.49,0,0,0-1.78-.57,2.94,2.94,0,0,0-1.58.42,2.71,2.71,0,0,0-1,1.19,4.24,4.24,0,0,0-.36,1.81,4.1,4.1,0,0,0,.44,2,2.9,2.9,0,0,0,1.18,1.2,3.55,3.55,0,0,0,1.69.41,3.81,3.81,0,0,0,1.29-.23,7.8,7.8,0,0,0,1.23-.61l1.8,3a10.16,10.16,0,0,1-2.19.93A7.87,7.87,0,0,1,299.83,454Z"/><path class="cls-8" d="M313.75,453.9a7.63,7.63,0,0,1-2.92-.55,6.48,6.48,0,0,1-2.27-1.54l1.68-2.23a7.12,7.12,0,0,0,1.73,1.21,3.53,3.53,0,0,0,1.43.36,4,4,0,0,0,.89-.1,1.52,1.52,0,0,0,.62-.32.78.78,0,0,0,.23-.57.91.91,0,0,0-.39-.78,3.45,3.45,0,0,0-1-.48l-1.3-.39a4.73,4.73,0,0,1-2.51-1.61,3.8,3.8,0,0,1-.77-2.31,4.09,4.09,0,0,1,.51-1.92A4,4,0,0,1,311.3,441a5.71,5.71,0,0,1,2.88-.65,9.89,9.89,0,0,1,2.7.32,6.6,6.6,0,0,1,2.09,1l-1.54,2.38a5.58,5.58,0,0,0-1.23-.74,3.58,3.58,0,0,0-1.26-.33,2.22,2.22,0,0,0-.89.11,1.49,1.49,0,0,0-.56.38.72.72,0,0,0-.2.49.94.94,0,0,0,.42.87,3.33,3.33,0,0,0,1.14.5c.47.11.92.25,1.36.4a5.43,5.43,0,0,1,1.6.79,3.24,3.24,0,0,1,1.39,2.81,4.39,4.39,0,0,1-.59,2.19,4.49,4.49,0,0,1-1.8,1.67A6.56,6.56,0,0,1,313.75,453.9Z"/><path class="cls-8" d="M323.78,435.4h4.06v5.51h3.08v3.16h-3.08v9.57h-4.06v-9.57h-2v-3.16h2Z"/><path class="cls-8" d="M350.58,432.3a10.21,10.21,0,0,1,4.47.88,6.39,6.39,0,0,1,2.78,2.5,7.28,7.28,0,0,1,1,3.81,8.87,8.87,0,0,1-.4,2.62,7,7,0,0,1-1.24,2.4,6.13,6.13,0,0,1-2.29,1.72,8.43,8.43,0,0,1-3.53.66h-3v6.75h-4.21V432.3Zm.72,10.5a3.35,3.35,0,0,0,1.6-.34,2.77,2.77,0,0,0,1-.84,3.37,3.37,0,0,0,.52-1.06,3.3,3.3,0,0,0,.16-.95,4.62,4.62,0,0,0-.1-.86,3.6,3.6,0,0,0-.42-1.09,2.72,2.72,0,0,0-1-.93,3.54,3.54,0,0,0-1.76-.37h-3v6.44Z"/><path class="cls-8" d="M365.54,441l.38,3.48-.09-.52a5.71,5.71,0,0,1,1.51-1.93,8.73,8.73,0,0,1,1.9-1.23,3.89,3.89,0,0,1,1.44-.44l-.21,4.06a3.61,3.61,0,0,0-2.43.46,4.39,4.39,0,0,0-1.57,1.69,4.49,4.49,0,0,0-.55,2.14v5h-4V441Z"/><path class="cls-8" d="M378.68,454a7.13,7.13,0,0,1-3.2-.71,5.23,5.23,0,0,1-2.28-2.19,8.61,8.61,0,0,1,0-7.48,6.29,6.29,0,0,1,2.29-2.42,5.76,5.76,0,0,1,3-.86,5.38,5.38,0,0,1,2.85.62,7.15,7.15,0,0,1,1.61,1.38l-.17.5.37-1.86H387v12.67h-4.06v-2.75l.32.87s-.15.11-.35.33a6.29,6.29,0,0,1-.85.78,5.89,5.89,0,0,1-1.39.79A5.29,5.29,0,0,1,378.68,454Zm1.16-3.31a3.77,3.77,0,0,0,1.3-.21,3,3,0,0,0,1-.64,3.72,3.72,0,0,0,.75-1.06v-3.1a2.75,2.75,0,0,0-.69-1.09,3.39,3.39,0,0,0-1.1-.7,4,4,0,0,0-1.42-.24,3.09,3.09,0,0,0-1.62.45,3.29,3.29,0,0,0-1.17,1.23,3.63,3.63,0,0,0-.43,1.8,3.59,3.59,0,0,0,.46,1.82,3.44,3.44,0,0,0,1.23,1.28A3.16,3.16,0,0,0,379.84,450.68Z"/><path class="cls-8" d="M401.91,452.51a6.48,6.48,0,0,1-2.1,1.07,8.15,8.15,0,0,1-2.48.41,8.5,8.5,0,0,1-3.79-.8,5.81,5.81,0,0,1-2.49-2.29,7,7,0,0,1-.89-3.61,6.55,6.55,0,0,1,1-3.61,6.4,6.4,0,0,1,2.51-2.28,7.15,7.15,0,0,1,3.26-.78,8.82,8.82,0,0,1,3,.46A7.16,7.16,0,0,1,402,442.3l-2,2.61a5.92,5.92,0,0,0-1.11-.65,4,4,0,0,0-1.67-.33,2.86,2.86,0,0,0-1.54.43,3.16,3.16,0,0,0-1.1,1.19,3.61,3.61,0,0,0-.41,1.74,3.46,3.46,0,0,0,.44,1.71,3.15,3.15,0,0,0,1.2,1.23,3.52,3.52,0,0,0,1.81.45,4.08,4.08,0,0,0,1.24-.18,3,3,0,0,0,1-.54Z"/><path class="cls-8" d="M406.23,435.4h4.06v5.51h3.07v3.16h-3.07v9.57h-4.06v-9.57h-2v-3.16h2Z"/><path class="cls-8" d="M416.38,436.47a1.82,1.82,0,0,1,.71-1.47,2.34,2.34,0,0,1,1.52-.58,2.27,2.27,0,0,1,1.5.58,1.93,1.93,0,0,1,0,2.94,2.3,2.3,0,0,1-1.5.56,2.37,2.37,0,0,1-1.52-.56A1.81,1.81,0,0,1,416.38,436.47Zm.09,4.5h4.06v12.67h-4.06Z"/><path class="cls-8" d="M435.46,452.51a6.48,6.48,0,0,1-2.1,1.07,8.1,8.1,0,0,1-2.48.41,8.5,8.5,0,0,1-3.79-.8,5.81,5.81,0,0,1-2.49-2.29,7,7,0,0,1-.88-3.61,6.63,6.63,0,0,1,.95-3.61,6.47,6.47,0,0,1,2.51-2.28,7.18,7.18,0,0,1,3.26-.78,8.89,8.89,0,0,1,3,.46,7.28,7.28,0,0,1,2.16,1.22l-2,2.61a6.4,6.4,0,0,0-1.12-.65,4,4,0,0,0-1.67-.33,2.86,2.86,0,0,0-1.54.43,3.16,3.16,0,0,0-1.1,1.19,3.6,3.6,0,0,0-.4,1.74,3.45,3.45,0,0,0,.43,1.71,3.11,3.11,0,0,0,1.21,1.23,3.5,3.5,0,0,0,1.81.45,4.06,4.06,0,0,0,1.23-.18,2.94,2.94,0,0,0,1-.54Z"/><path class="cls-8" d="M444.83,454a8.15,8.15,0,0,1-3.93-.87,5.93,5.93,0,0,1-2.45-2.41,7.23,7.23,0,0,1-.84-3.53,6.34,6.34,0,0,1,1-3.46,7.32,7.32,0,0,1,2.64-2.45,7.48,7.48,0,0,1,3.69-.91,6.47,6.47,0,0,1,4.48,1.58,7.77,7.77,0,0,1,2.27,4.57l-9.86,3.13-.9-2.2,7.14-2.41-.84.38a3,3,0,0,0-.83-1.32,2.49,2.49,0,0,0-1.78-.57,2.94,2.94,0,0,0-1.58.42,2.71,2.71,0,0,0-1,1.19,4.24,4.24,0,0,0-.36,1.81,4.1,4.1,0,0,0,.43,2,2.93,2.93,0,0,0,1.19,1.2,3.55,3.55,0,0,0,1.69.41,3.81,3.81,0,0,0,1.29-.23,7.8,7.8,0,0,0,1.23-.61l1.8,3a10.16,10.16,0,0,1-2.19.93A8,8,0,0,1,444.83,454Z"/><path class="cls-8" d="M124.66,432.65h6.77v22.54h-5V437.4h-1.8Z"/><path class="cls-8" d="M145.33,455.22a9.87,9.87,0,0,1-3.65-.68,8.14,8.14,0,0,1-3-2.09,10,10,0,0,1-2.06-3.57,15.77,15.77,0,0,1-.74-5.08,17.73,17.73,0,0,1,.71-5.46,9.13,9.13,0,0,1,2-3.52,7.27,7.27,0,0,1,3-1.89,12.27,12.27,0,0,1,3.77-.56,10,10,0,0,1,3.66.68,8.3,8.3,0,0,1,3,2.09,9.87,9.87,0,0,1,2.06,3.57,15.55,15.55,0,0,1,.75,5.09,16,16,0,0,1-.75,5.2,9.55,9.55,0,0,1-2.07,3.55,8.43,8.43,0,0,1-3,2A10.17,10.17,0,0,1,145.33,455.22Zm0-4.72a3.7,3.7,0,0,0,2.65-.91,5,5,0,0,0,1.34-2.46,14.34,14.34,0,0,0,.39-3.47,12.9,12.9,0,0,0-.39-3.33A4.72,4.72,0,0,0,148,438a3.78,3.78,0,0,0-2.65-.87,3.7,3.7,0,0,0-2.62.89,4.68,4.68,0,0,0-1.33,2.38,13.83,13.83,0,0,0-.37,3.36,14.28,14.28,0,0,0,.37,3.4,4.8,4.8,0,0,0,1.33,2.43A3.66,3.66,0,0,0,145.3,450.5Z"/><path class="cls-8" d="M166.68,455.22a9.87,9.87,0,0,1-3.65-.68,8.22,8.22,0,0,1-3-2.09,9.85,9.85,0,0,1-2.05-3.57,15.49,15.49,0,0,1-.75-5.08,18,18,0,0,1,.71-5.46,9.13,9.13,0,0,1,2-3.52,7.27,7.27,0,0,1,3-1.89,12.31,12.31,0,0,1,3.77-.56,9.92,9.92,0,0,1,3.66.68,8.42,8.42,0,0,1,3,2.09,10,10,0,0,1,2,3.57,15.55,15.55,0,0,1,.75,5.09,16,16,0,0,1-.75,5.2,9.55,9.55,0,0,1-2.07,3.55,8.34,8.34,0,0,1-3,2A10.13,10.13,0,0,1,166.68,455.22Zm0-4.72a3.7,3.7,0,0,0,2.65-.91,4.89,4.89,0,0,0,1.34-2.46,13.84,13.84,0,0,0,.4-3.47,12.46,12.46,0,0,0-.4-3.33A4.64,4.64,0,0,0,169.3,438a3.78,3.78,0,0,0-2.65-.87A3.71,3.71,0,0,0,164,438a4.74,4.74,0,0,0-1.32,2.38,13.8,13.8,0,0,0-.38,3.36,14.26,14.26,0,0,0,.38,3.4,4.86,4.86,0,0,0,1.32,2.43A3.68,3.68,0,0,0,166.65,450.5Z"/><path class="cls-8" d="M124.66,583h6.77v22.55h-5V587.78h-1.8Z"/><path class="cls-8" d="M145.33,605.6a9.87,9.87,0,0,1-3.65-.68,8.14,8.14,0,0,1-3-2.09,10,10,0,0,1-2.06-3.57,15.84,15.84,0,0,1-.74-5.09,17.71,17.71,0,0,1,.71-5.45,9.05,9.05,0,0,1,2-3.52,7.27,7.27,0,0,1,3-1.89,12.27,12.27,0,0,1,3.77-.56,10,10,0,0,1,3.66.68,8.18,8.18,0,0,1,3,2.09,9.87,9.87,0,0,1,2.06,3.57,15.53,15.53,0,0,1,.75,5.08,16.06,16.06,0,0,1-.75,5.21,9.55,9.55,0,0,1-2.07,3.55,8.27,8.27,0,0,1-3,2A10.18,10.18,0,0,1,145.33,605.6Zm0-4.73A3.7,3.7,0,0,0,148,600a5,5,0,0,0,1.34-2.46,14.39,14.39,0,0,0,.39-3.47,12.9,12.9,0,0,0-.39-3.33,4.72,4.72,0,0,0-1.34-2.33,3.78,3.78,0,0,0-2.65-.87,3.7,3.7,0,0,0-2.62.89,4.68,4.68,0,0,0-1.33,2.38,13.77,13.77,0,0,0-.37,3.36,14.28,14.28,0,0,0,.37,3.4,4.8,4.8,0,0,0,1.33,2.43A3.66,3.66,0,0,0,145.3,600.87Z"/><path class="cls-8" d="M166.68,605.6a9.87,9.87,0,0,1-3.65-.68,8.22,8.22,0,0,1-3-2.09,9.85,9.85,0,0,1-2.05-3.57,15.55,15.55,0,0,1-.75-5.09,18,18,0,0,1,.71-5.45,9.05,9.05,0,0,1,2-3.52,7.27,7.27,0,0,1,3-1.89,12.31,12.31,0,0,1,3.77-.56,9.92,9.92,0,0,1,3.66.68,8.3,8.3,0,0,1,3,2.09,10,10,0,0,1,2,3.57,15.53,15.53,0,0,1,.75,5.08,16.06,16.06,0,0,1-.75,5.21,9.55,9.55,0,0,1-2.07,3.55,8.19,8.19,0,0,1-3,2A10.14,10.14,0,0,1,166.68,605.6Zm0-4.73a3.7,3.7,0,0,0,2.65-.9,4.89,4.89,0,0,0,1.34-2.46A13.89,13.89,0,0,0,171,594a12.46,12.46,0,0,0-.4-3.33,4.64,4.64,0,0,0-1.34-2.33,3.78,3.78,0,0,0-2.65-.87,3.71,3.71,0,0,0-2.62.89,4.74,4.74,0,0,0-1.32,2.38,13.74,13.74,0,0,0-.38,3.36,14.26,14.26,0,0,0,.38,3.4A4.86,4.86,0,0,0,164,600,3.67,3.67,0,0,0,166.65,600.87Z"/><path class="cls-8" d="M124.66,733.4h6.77v22.54h-5V738.16h-1.8Z"/><path class="cls-8" d="M145.33,756a9.87,9.87,0,0,1-3.65-.68,8.25,8.25,0,0,1-3-2.09,10.06,10.06,0,0,1-2.06-3.58,15.73,15.73,0,0,1-.74-5.08,17.82,17.82,0,0,1,.71-5.46,9,9,0,0,1,2-3.51,7.07,7.07,0,0,1,3-1.89,12.27,12.27,0,0,1,3.77-.56,10,10,0,0,1,3.66.68,8.18,8.18,0,0,1,3,2.09,9.87,9.87,0,0,1,2.06,3.57,15.49,15.49,0,0,1,.75,5.08,16,16,0,0,1-.75,5.2,9.51,9.51,0,0,1-2.07,3.56,8.27,8.27,0,0,1-3,2A10.18,10.18,0,0,1,145.33,756Zm0-4.73a3.7,3.7,0,0,0,2.65-.9,5,5,0,0,0,1.34-2.47,14.25,14.25,0,0,0,.39-3.46,13,13,0,0,0-.39-3.34,4.76,4.76,0,0,0-1.34-2.33,3.82,3.82,0,0,0-2.65-.86,3.69,3.69,0,0,0-2.62.88,4.72,4.72,0,0,0-1.33,2.38,13.91,13.91,0,0,0-.37,3.37,14.34,14.34,0,0,0,.37,3.4,4.8,4.8,0,0,0,1.33,2.43A3.66,3.66,0,0,0,145.3,751.25Z"/><path class="cls-8" d="M166.68,756a9.87,9.87,0,0,1-3.65-.68,8.34,8.34,0,0,1-3-2.09,9.9,9.9,0,0,1-2.05-3.58,15.45,15.45,0,0,1-.75-5.08,18.13,18.13,0,0,1,.71-5.46,9,9,0,0,1,2-3.51,7.07,7.07,0,0,1,3-1.89,12.31,12.31,0,0,1,3.77-.56,9.92,9.92,0,0,1,3.66.68,8.3,8.3,0,0,1,3,2.09,10,10,0,0,1,2,3.57,15.49,15.49,0,0,1,.75,5.08,16,16,0,0,1-.75,5.2,9.51,9.51,0,0,1-2.07,3.56,8.19,8.19,0,0,1-3,2A10.14,10.14,0,0,1,166.68,756Zm0-4.73a3.7,3.7,0,0,0,2.65-.9,4.89,4.89,0,0,0,1.34-2.47,13.76,13.76,0,0,0,.4-3.46,12.59,12.59,0,0,0-.4-3.34,4.69,4.69,0,0,0-1.34-2.33,3.82,3.82,0,0,0-2.65-.86,3.71,3.71,0,0,0-2.62.88,4.78,4.78,0,0,0-1.32,2.38,13.89,13.89,0,0,0-.38,3.37,14.32,14.32,0,0,0,.38,3.4,4.86,4.86,0,0,0,1.32,2.43A3.67,3.67,0,0,0,166.65,751.25Z"/><path class="cls-8" d="M286.9,587.84a15.92,15.92,0,0,0-2.48-1.1,7.29,7.29,0,0,0-2.37-.44,3.63,3.63,0,0,0-2.14.55,1.88,1.88,0,0,0-.79,1.65,1.83,1.83,0,0,0,.6,1.35,5.56,5.56,0,0,0,1.54,1.06,20.08,20.08,0,0,0,1.95.84,15.06,15.06,0,0,1,1.84.83,6.69,6.69,0,0,1,1.64,1.19,5,5,0,0,1,1.16,1.77,6.8,6.8,0,0,1,.44,2.59,5.73,5.73,0,0,1-.84,3A6.15,6.15,0,0,1,285,603.4a8.49,8.49,0,0,1-4,.85,13.18,13.18,0,0,1-5-1,13.21,13.21,0,0,1-2.35-1.29l1.86-3.28a9.88,9.88,0,0,0,1.64,1,10.33,10.33,0,0,0,1.78.65,6.87,6.87,0,0,0,1.65.23,5.44,5.44,0,0,0,1.53-.22,2.75,2.75,0,0,0,1.27-.74,2,2,0,0,0,.51-1.45,1.82,1.82,0,0,0-.42-1.16,4.34,4.34,0,0,0-1.13-1,9.3,9.3,0,0,0-1.55-.76c-.66-.25-1.34-.54-2-.87a10.61,10.61,0,0,1-2-1.2,5.65,5.65,0,0,1-1.48-1.77,5.43,5.43,0,0,1-.57-2.6,6.12,6.12,0,0,1,.83-3.22,6,6,0,0,1,2.34-2.16,8.13,8.13,0,0,1,3.48-.88,12,12,0,0,1,4.19.61,14.91,14.91,0,0,1,2.88,1.45Z"/><path class="cls-8" d="M292.41,582.68H307v4.06H296.61v4.55h9.17v4.06h-9.17V600h10.76V604h-15Z"/><path class="cls-8" d="M310.42,593.38a10.58,10.58,0,0,1,.84-4.18,11.12,11.12,0,0,1,2.33-3.49,11,11,0,0,1,3.47-2.4,10.67,10.67,0,0,1,8.44,0,11.45,11.45,0,0,1,3.49,2.4,11.27,11.27,0,0,1,2.38,3.49,10.83,10.83,0,0,1,0,8.41,11,11,0,0,1-2.38,3.47,11.41,11.41,0,0,1-3.49,2.33,11,11,0,0,1-8.44,0,11,11,0,0,1-3.47-2.33,10.81,10.81,0,0,1-2.33-3.47A10.68,10.68,0,0,1,310.42,593.38Zm4.34,0a6.89,6.89,0,0,0,1.93,4.83,6.75,6.75,0,0,0,2.12,1.46,6.49,6.49,0,0,0,2.62.52,6.14,6.14,0,0,0,2.54-.52,6.35,6.35,0,0,0,2-1.46,7.06,7.06,0,0,0,1.85-4.83,7.24,7.24,0,0,0-.5-2.7,7.13,7.13,0,0,0-1.4-2.19A6.14,6.14,0,0,0,323.9,587a6.46,6.46,0,0,0-7.25,1.46,6.75,6.75,0,0,0-1.39,2.19A7.24,7.24,0,0,0,314.76,593.38Z"/><path class="cls-8" d="M273.09,754.4l9.63-22.19H283l9.63,22.19h-4.87l-6.15-15.61,3.05-2.08-7.37,17.69Zm6.58-7.72h6.41l1.48,3.54h-9.19Z"/><path class="cls-8" d="M305.34,753.27a6.68,6.68,0,0,1-2.1,1.07,8.1,8.1,0,0,1-2.48.41A8.5,8.5,0,0,1,297,754a5.87,5.87,0,0,1-2.49-2.29,7,7,0,0,1-.89-3.61,6.5,6.5,0,0,1,1-3.61,6.32,6.32,0,0,1,2.51-2.28,7.15,7.15,0,0,1,3.26-.78,8.64,8.64,0,0,1,3,.46,7.28,7.28,0,0,1,2.16,1.22l-2,2.61a5.92,5.92,0,0,0-1.11-.65,3.8,3.8,0,0,0-1.67-.34,2.87,2.87,0,0,0-1.54.44,3.08,3.08,0,0,0-1.1,1.19,3.6,3.6,0,0,0-.4,1.74,3.47,3.47,0,0,0,.43,1.71,3.22,3.22,0,0,0,1.2,1.23,3.56,3.56,0,0,0,1.82.45,3.78,3.78,0,0,0,1.23-.19,2.77,2.77,0,0,0,1-.54Z"/><path class="cls-8" d="M319.23,753.27a6.68,6.68,0,0,1-2.1,1.07,8.1,8.1,0,0,1-2.48.41,8.5,8.5,0,0,1-3.79-.8,5.87,5.87,0,0,1-2.49-2.29,7,7,0,0,1-.88-3.61,6.5,6.5,0,0,1,.95-3.61,6.32,6.32,0,0,1,2.51-2.28,7.18,7.18,0,0,1,3.26-.78,8.64,8.64,0,0,1,3,.46,7.28,7.28,0,0,1,2.16,1.22l-2,2.61a6.4,6.4,0,0,0-1.12-.65,3.8,3.8,0,0,0-1.67-.34,2.87,2.87,0,0,0-1.54.44,3.08,3.08,0,0,0-1.1,1.19,3.6,3.6,0,0,0-.4,1.74,3.47,3.47,0,0,0,.43,1.71,3.22,3.22,0,0,0,1.2,1.23,3.56,3.56,0,0,0,1.82.45,3.78,3.78,0,0,0,1.23-.19,2.77,2.77,0,0,0,1-.54Z"/><path class="cls-8" d="M328.6,754.75a8.15,8.15,0,0,1-3.93-.87,6,6,0,0,1-2.45-2.41,7.29,7.29,0,0,1-.84-3.54,6.29,6.29,0,0,1,1-3.45A7.24,7.24,0,0,1,325,742a7.47,7.47,0,0,1,3.68-.92,6.44,6.44,0,0,1,4.49,1.59,7.74,7.74,0,0,1,2.27,4.56l-9.86,3.13-.9-2.2,7.14-2.41-.84.38a3.18,3.18,0,0,0-.83-1.32,2.49,2.49,0,0,0-1.78-.56,2.94,2.94,0,0,0-1.58.42,2.68,2.68,0,0,0-1.05,1.18,4.28,4.28,0,0,0-.36,1.82,4.09,4.09,0,0,0,.43,2,2.89,2.89,0,0,0,1.19,1.21,3.73,3.73,0,0,0,3,.17,6.78,6.78,0,0,0,1.24-.61l1.8,3a10.16,10.16,0,0,1-2.19.93A8,8,0,0,1,328.6,754.75Z"/><path class="cls-8" d="M342.52,754.66a7.78,7.78,0,0,1-2.92-.55,6.39,6.39,0,0,1-2.27-1.54l1.68-2.23a6.93,6.93,0,0,0,1.72,1.2,3.58,3.58,0,0,0,1.44.36,3.38,3.38,0,0,0,.88-.1,1.39,1.39,0,0,0,.63-.32.74.74,0,0,0,.23-.56.94.94,0,0,0-.39-.79,3.32,3.32,0,0,0-1-.47l-1.31-.4a4.72,4.72,0,0,1-2.51-1.61,3.82,3.82,0,0,1-.76-2.3,4.11,4.11,0,0,1,.5-1.93,4,4,0,0,1,1.63-1.62,5.58,5.58,0,0,1,2.88-.66,9.89,9.89,0,0,1,2.7.32,6.74,6.74,0,0,1,2.09,1l-1.54,2.37a5.79,5.79,0,0,0-1.23-.73,3.5,3.5,0,0,0-1.26-.34,2,2,0,0,0-.89.12,1.37,1.37,0,0,0-.56.37.74.74,0,0,0-.21.5.94.94,0,0,0,.42.87,3.59,3.59,0,0,0,1.15.49c.46.12.92.25,1.36.41a5.3,5.3,0,0,1,1.6.78,3.57,3.57,0,0,1,1,1.17,3.48,3.48,0,0,1,.36,1.64,4.33,4.33,0,0,1-.59,2.19,4.43,4.43,0,0,1-1.8,1.67A6.61,6.61,0,0,1,342.52,754.66Z"/><path class="cls-8" d="M355.48,754.66a7.73,7.73,0,0,1-2.91-.55,6.43,6.43,0,0,1-2.28-1.54l1.68-2.23a7,7,0,0,0,1.73,1.2,3.53,3.53,0,0,0,1.43.36,3.46,3.46,0,0,0,.89-.1,1.35,1.35,0,0,0,.62-.32.74.74,0,0,0,.23-.56.94.94,0,0,0-.39-.79,3.21,3.21,0,0,0-1-.47l-1.3-.4a4.68,4.68,0,0,1-2.51-1.61,3.77,3.77,0,0,1-.77-2.3,4.13,4.13,0,0,1,.51-1.93A4,4,0,0,1,353,741.8a5.62,5.62,0,0,1,2.89-.66,9.86,9.86,0,0,1,2.69.32,6.63,6.63,0,0,1,2.09,1l-1.54,2.37a5.55,5.55,0,0,0-1.23-.73,3.4,3.4,0,0,0-1.26-.34,2,2,0,0,0-.88.12,1.35,1.35,0,0,0-.57.37.73.73,0,0,0-.2.5.94.94,0,0,0,.42.87,3.53,3.53,0,0,0,1.14.49c.47.12.92.25,1.37.41a5.24,5.24,0,0,1,1.59.78,3.24,3.24,0,0,1,1.39,2.81,4.33,4.33,0,0,1-.59,2.19,4.43,4.43,0,0,1-1.8,1.67A6.55,6.55,0,0,1,355.48,754.66Z"/><path class="cls-8" d="M364.24,737.23a1.81,1.81,0,0,1,.71-1.48,2.34,2.34,0,0,1,1.52-.58,2.22,2.22,0,0,1,1.49.58,1.85,1.85,0,0,1,.69,1.48,1.79,1.79,0,0,1-.69,1.46,2.26,2.26,0,0,1-1.49.57,2.38,2.38,0,0,1-1.52-.57A1.75,1.75,0,0,1,364.24,737.23Zm.08,4.49h4.06V754.4h-4.06Z"/><path class="cls-8" d="M380.88,754.75a6,6,0,0,1-2.68-.54,6.63,6.63,0,0,1-1.9-1.41l.32-.87v2.47h-4.06V731.52h4v11.07a6.36,6.36,0,0,1,2-1.07,8.6,8.6,0,0,1,2.84-.43,6,6,0,0,1,3,.78,5.73,5.73,0,0,1,2.19,2.28,7.39,7.39,0,0,1,.83,3.64,7.24,7.24,0,0,1-.92,3.71,6.34,6.34,0,0,1-2.42,2.4A6.57,6.57,0,0,1,380.88,754.75Zm-.9-3.43a3.16,3.16,0,0,0,1.67-.46,3.44,3.44,0,0,0,1.23-1.28,3.6,3.6,0,0,0,.47-1.82,3.45,3.45,0,0,0-.47-1.8,3.37,3.37,0,0,0-1.23-1.23,3.24,3.24,0,0,0-1.67-.45,4.34,4.34,0,0,0-1.46.24,3.46,3.46,0,0,0-1.16.7,3,3,0,0,0-.74,1.09v3.1a3.87,3.87,0,0,0,.83,1.06,3.4,3.4,0,0,0,1.11.64A4.55,4.55,0,0,0,380,751.32Z"/><path class="cls-8" d="M390.57,737.23a1.84,1.84,0,0,1,.71-1.48,2.34,2.34,0,0,1,1.52-.58,2.27,2.27,0,0,1,1.5.58,1.87,1.87,0,0,1,.68,1.48,1.81,1.81,0,0,1-.68,1.46,2.31,2.31,0,0,1-1.5.57,2.38,2.38,0,0,1-1.52-.57A1.78,1.78,0,0,1,390.57,737.23Zm.09,4.49h4.06V754.4h-4.06Z"/><path class="cls-8" d="M398.89,731.52H403V754.4h-4.06Z"/><path class="cls-8" d="M407,737.23a1.84,1.84,0,0,1,.71-1.48,2.34,2.34,0,0,1,1.52-.58,2.25,2.25,0,0,1,1.5.58,1.87,1.87,0,0,1,.68,1.48,1.81,1.81,0,0,1-.68,1.46,2.29,2.29,0,0,1-1.5.57,2.38,2.38,0,0,1-1.52-.57A1.78,1.78,0,0,1,407,737.23Zm.09,4.49h4.06V754.4h-4.06Z"/><path class="cls-8" d="M416.55,736.16h4.06v5.51h3.08v3.16h-3.08v9.57h-4.06v-9.57h-2v-3.16h2Z"/><path class="cls-8" d="M431.2,754.46,425,741.72h4.55l4.79,10.7Zm-3.4,6,8.44-18.77h3.66l-8.18,18.77Z"/></g></svg>