<svg xmlns="http://www.w3.org/2000/svg" viewBox="50 50 1080 1080"><defs><style>.cls-1{fill:#fff;}.cls-2{fill:#053891;}.cls-3{fill:#ff2d46;}.cls-4,.cls-5,.cls-6{fill:none;stroke-linecap:round;stroke-linejoin:round;}.cls-4{stroke:#ff2d46;}.cls-4,.cls-5{stroke-width:5px;}.cls-5,.cls-6{stroke:#053891;}.cls-6{stroke-width:25px;}</style></defs><g id="Layer_3" data-name="Layer 3"><rect class="cls-1" x="294.11" y="94.36" width="101.62" height="21.45" rx="10.72"/><rect class="cls-1" x="648.74" y="94.36" width="61.53" height="21.45" rx="10.72"/><rect class="cls-1" x="570.11" y="94.36" width="61.53" height="21.45" rx="10.72"/><path class="cls-1" d="M500.4,293H801.85V126H481.77v148.4A18.63,18.63,0,0,0,500.4,293Z"/><path class="cls-1" d="M224.4,263.64H362.61a0,0,0,0,1,0,0v64.89a36.89,36.89,0,0,1-36.89,36.89H224.4a0,0,0,0,1,0,0V263.64A0,0,0,0,1,224.4,263.64Z"/><circle class="cls-1" cx="646.96" cy="361.1" r="47.7"/><path class="cls-1" d="M522.84,547.56c0-.25,0-.49,0-.73a40.58,40.58,0,0,1-48.54-64.38H364.06a27.83,27.83,0,0,1-27.83-27.83v-46H269.18V576.4h265.7A40.45,40.45,0,0,1,522.84,547.56Z"/><path class="cls-1" d="M735,482.45H530.36a40.48,40.48,0,0,1,12.57,29.36c0,.24,0,.48,0,.72A40.59,40.59,0,0,1,592,576.4H759V506.45A24,24,0,0,0,735,482.45Z"/><circle class="cls-1" cx="680.09" cy="706.49" r="77.74"/><path class="cls-1" d="M368.66,821.51H801.85a0,0,0,0,1,0,0v152a27,27,0,0,1-27,27H300.49a0,0,0,0,1,0,0V889.68A68.17,68.17,0,0,1,368.66,821.51Z"/><circle class="cls-1" cx="345.29" cy="705.12" r="81.11"/></g><g id="Layer_2" data-name="Layer 2"><path class="cls-2" d="M832.69,549.74h14.39v4.06h-5.19v17.28h-4.21V553.8h-5Z"/><path class="cls-2" d="M853.8,571.43a8.14,8.14,0,0,1-3.92-.87,5.87,5.87,0,0,1-2.45-2.41,7.12,7.12,0,0,1-.85-3.53,6.21,6.21,0,0,1,1-3.45,7.26,7.26,0,0,1,2.64-2.46,7.57,7.57,0,0,1,3.68-.91,6.45,6.45,0,0,1,4.48,1.58,7.75,7.75,0,0,1,2.28,4.57l-9.86,3.13-.9-2.2,7.13-2.41-.84.38a3,3,0,0,0-.82-1.32,2.5,2.5,0,0,0-1.79-.57,3,3,0,0,0-1.58.42,2.75,2.75,0,0,0-1,1.19,4.24,4.24,0,0,0-.36,1.81,4.1,4.1,0,0,0,.43,2,2.93,2.93,0,0,0,1.19,1.2,3.48,3.48,0,0,0,1.68.41,3.73,3.73,0,0,0,1.29-.23,7,7,0,0,0,1.23-.61l1.8,3a9.75,9.75,0,0,1-2.19.93A7.87,7.87,0,0,1,853.8,571.43Z"/><path class="cls-2" d="M867.72,571.34a7.58,7.58,0,0,1-2.91-.55,6.41,6.41,0,0,1-2.28-1.53l1.69-2.24a7.09,7.09,0,0,0,1.72,1.21,3.54,3.54,0,0,0,1.44.36,3.38,3.38,0,0,0,.88-.1,1.45,1.45,0,0,0,.62-.32.75.75,0,0,0,.24-.57.9.9,0,0,0-.4-.78,3.45,3.45,0,0,0-1-.48l-1.3-.39a4.73,4.73,0,0,1-2.51-1.61,3.86,3.86,0,0,1-.77-2.3,4.13,4.13,0,0,1,2.14-3.56,5.69,5.69,0,0,1,2.88-.65,10,10,0,0,1,2.7.32,6.71,6.71,0,0,1,2.09,1l-1.54,2.38a5.82,5.82,0,0,0-1.23-.74,3.68,3.68,0,0,0-1.27-.33,2.17,2.17,0,0,0-.88.11,1.62,1.62,0,0,0-.57.38.77.77,0,0,0-.2.49.94.94,0,0,0,.42.87,3.3,3.3,0,0,0,1.15.5c.46.11.91.25,1.36.4a5.56,5.56,0,0,1,1.6.79,3.44,3.44,0,0,1,1,1.17,3.37,3.37,0,0,1,.37,1.64,4.3,4.3,0,0,1-.6,2.19,4.4,4.4,0,0,1-1.79,1.67A6.63,6.63,0,0,1,867.72,571.34Z"/><path class="cls-2" d="M877.76,552.84h4.06v5.51h3.07v3.16h-3.07v9.57h-4.06v-9.57h-2v-3.16h2Z"/><path class="cls-2" d="M887.91,553.92a1.8,1.8,0,0,1,.71-1.48,2.34,2.34,0,0,1,1.52-.58,2.22,2.22,0,0,1,1.49.58,1.84,1.84,0,0,1,.69,1.48,1.81,1.81,0,0,1-.69,1.46,2.25,2.25,0,0,1-1.49.56,2.37,2.37,0,0,1-1.52-.56A1.78,1.78,0,0,1,887.91,553.92Zm.09,4.49h4.06v12.67H888Z"/><path class="cls-2" d="M899.92,558.41l.31,2.23-.05-.17a5.81,5.81,0,0,1,1.88-2,5,5,0,0,1,2.73-.71,5.47,5.47,0,0,1,1.84.29,3.51,3.51,0,0,1,1.35.86,3,3,0,0,1,.75,1.46l-.14,0a6.68,6.68,0,0,1,1.95-1.91,4.4,4.4,0,0,1,2.4-.73,4.18,4.18,0,0,1,3,1.06,3.72,3.72,0,0,1,1.14,2.74v9.51h-4v-7.83a3.67,3.67,0,0,0-.26-1.37,1.12,1.12,0,0,0-1.07-.6,2.28,2.28,0,0,0-1.67.68,4.28,4.28,0,0,0-1,1.74,7.06,7.06,0,0,0-.34,2.19v5.19h-4.06v-7.83a3.27,3.27,0,0,0-.3-1.37,1.25,1.25,0,0,0-1.12-.6,2.16,2.16,0,0,0-1.61.68,4.57,4.57,0,0,0-1,1.73,7,7,0,0,0-.33,2.14v5.25h-4.06V558.41Z"/><path class="cls-2" d="M920.27,564.59a6.65,6.65,0,0,1,.92-3.48,6.36,6.36,0,0,1,2.56-2.42,7.93,7.93,0,0,1,3.8-.89,7.64,7.64,0,0,1,3.77.89,6.14,6.14,0,0,1,2.45,2.42,7,7,0,0,1,.86,3.48,7.11,7.11,0,0,1-.86,3.49,6.21,6.21,0,0,1-2.45,2.45,7.67,7.67,0,0,1-3.83.9,8.27,8.27,0,0,1-3.72-.81,6.09,6.09,0,0,1-2.57-2.35A7,7,0,0,1,920.27,564.59Zm4.09,0a3.89,3.89,0,0,0,.41,1.78,3.29,3.29,0,0,0,1.1,1.26,2.76,2.76,0,0,0,1.57.46,2.92,2.92,0,0,0,1.65-.46,3.07,3.07,0,0,0,1.07-1.26,4.41,4.41,0,0,0,0-3.58,3.1,3.1,0,0,0-1.07-1.25,2.92,2.92,0,0,0-1.65-.46,2.76,2.76,0,0,0-1.57.46,3.34,3.34,0,0,0-1.1,1.25A3.85,3.85,0,0,0,924.36,564.62Z"/><path class="cls-2" d="M941.5,558.41l.32,2.26-.06-.2a5.29,5.29,0,0,1,1.89-1.93,5.68,5.68,0,0,1,3-.74,4.35,4.35,0,0,1,3,1.06,3.56,3.56,0,0,1,1.24,2.74v9.48h-4.06v-8a2.18,2.18,0,0,0-.45-1.35,1.73,1.73,0,0,0-1.41-.51,2.4,2.4,0,0,0-1.62.61,3.88,3.88,0,0,0-1.07,1.65,6.89,6.89,0,0,0-.38,2.41v5.16h-4.06V558.41Z"/><path class="cls-2" d="M955,553.92a1.8,1.8,0,0,1,.71-1.48,2.34,2.34,0,0,1,1.52-.58,2.22,2.22,0,0,1,1.49.58,1.84,1.84,0,0,1,.69,1.48,1.81,1.81,0,0,1-.69,1.46,2.25,2.25,0,0,1-1.49.56,2.37,2.37,0,0,1-1.52-.56A1.78,1.78,0,0,1,955,553.92Zm.08,4.49h4.06v12.67H955Z"/><path class="cls-2" d="M968.62,571.43a7.2,7.2,0,0,1-3.21-.71,5.28,5.28,0,0,1-2.28-2.19,8.61,8.61,0,0,1,0-7.48,6.36,6.36,0,0,1,2.29-2.42,5.79,5.79,0,0,1,3-.86,5.3,5.3,0,0,1,2.86.63,7.31,7.31,0,0,1,1.61,1.37l-.18.5.38-1.86h3.77v12.67h-4.06v-2.75l.32.87s-.16.11-.35.33a6.48,6.48,0,0,1-.86.78,5.39,5.39,0,0,1-1.39.79A5.24,5.24,0,0,1,968.62,571.43Zm1.16-3.31a3.81,3.81,0,0,0,1.3-.21,3.09,3.09,0,0,0,1-.64,3.93,3.93,0,0,0,.75-1.06v-3.1a2.88,2.88,0,0,0-.7-1.09,3.29,3.29,0,0,0-1.1-.7,4,4,0,0,0-1.42-.24,3,3,0,0,0-1.61.45,3.29,3.29,0,0,0-1.17,1.23,3.83,3.83,0,0,0,0,3.62,3.37,3.37,0,0,0,1.23,1.28A3.16,3.16,0,0,0,969.78,568.12Z"/><path class="cls-2" d="M981.09,548.2h4.06v22.88h-4.06Z"/><path class="cls-2" d="M993.44,571.34a7.59,7.59,0,0,1-2.92-.55,6.36,6.36,0,0,1-2.27-1.53l1.68-2.24a7.12,7.12,0,0,0,1.73,1.21,3.53,3.53,0,0,0,1.43.36,3.38,3.38,0,0,0,.88-.1,1.5,1.5,0,0,0,.63-.32.78.78,0,0,0,.23-.57.91.91,0,0,0-.39-.78,3.45,3.45,0,0,0-1-.48l-1.31-.39a4.77,4.77,0,0,1-2.51-1.61,3.84,3.84,0,0,1-.76-2.3,4.1,4.1,0,0,1,.51-1.93,4,4,0,0,1,1.62-1.63,5.71,5.71,0,0,1,2.88-.65,9.89,9.89,0,0,1,2.7.32,6.71,6.71,0,0,1,2.09,1l-1.54,2.38a5.82,5.82,0,0,0-1.23-.74,3.63,3.63,0,0,0-1.26-.33,2.19,2.19,0,0,0-.89.11,1.49,1.49,0,0,0-.56.38.74.74,0,0,0-.21.49,1,1,0,0,0,.42.87,3.48,3.48,0,0,0,1.15.5c.47.11.92.25,1.36.4a5.56,5.56,0,0,1,1.6.79,3.24,3.24,0,0,1,1.39,2.81,4.39,4.39,0,0,1-.59,2.19,4.49,4.49,0,0,1-1.8,1.67A6.56,6.56,0,0,1,993.44,571.34Z"/><path class="cls-2" d="M850.15,929.48a8.34,8.34,0,0,1-1.29.78,11.68,11.68,0,0,1-2.31.87,10.54,10.54,0,0,1-3,.35,12,12,0,0,1-4.51-.92,9.73,9.73,0,0,1-3.36-2.33,10.46,10.46,0,0,1-2.11-3.39,11.54,11.54,0,0,1-.72-4.09,12.78,12.78,0,0,1,.74-4.47,10.21,10.21,0,0,1,2.12-3.51,9.46,9.46,0,0,1,3.29-2.29,10.7,10.7,0,0,1,4.23-.81,11.37,11.37,0,0,1,3.8.58,13.21,13.21,0,0,1,2.7,1.25l-1.66,4a11.66,11.66,0,0,0-1.93-1.15,6.22,6.22,0,0,0-2.76-.59,5.57,5.57,0,0,0-2.34.51,6.11,6.11,0,0,0-2,1.43,7,7,0,0,0-1.35,2.16,7.19,7.19,0,0,0-.49,2.69,8.41,8.41,0,0,0,.45,2.81,6.29,6.29,0,0,0,1.29,2.19,5.57,5.57,0,0,0,2,1.4,6.82,6.82,0,0,0,2.66.5,7.14,7.14,0,0,0,2.92-.55,6.72,6.72,0,0,0,1.86-1.16Z"/><path class="cls-2" d="M859,931.59a7.07,7.07,0,0,1-3.21-.71,5.28,5.28,0,0,1-2.28-2.19,8.61,8.61,0,0,1,0-7.48,6.44,6.44,0,0,1,2.29-2.42,5.79,5.79,0,0,1,3-.86,5.3,5.3,0,0,1,2.86.63,7.08,7.08,0,0,1,1.61,1.38l-.18.49.38-1.86h3.77v12.68h-4.06v-2.76l.32.87s-.16.11-.35.33a6.23,6.23,0,0,1-.85.79,5.62,5.62,0,0,1-1.4.78A5.24,5.24,0,0,1,859,931.59Zm1.16-3.3a3.81,3.81,0,0,0,1.3-.22,2.94,2.94,0,0,0,1-.64,3.93,3.93,0,0,0,.75-1.06v-3.1a3,3,0,0,0-.7-1.09,3.12,3.12,0,0,0-1.1-.69,3.78,3.78,0,0,0-1.42-.25,3,3,0,0,0-1.61.45,3.29,3.29,0,0,0-1.17,1.23,3.66,3.66,0,0,0-.44,1.8,3.61,3.61,0,0,0,.47,1.83,3.41,3.41,0,0,0,1.23,1.27A3.17,3.17,0,0,0,860.19,928.29Z"/><path class="cls-2" d="M871.49,908.37h4.06v22.88h-4.06Z"/><path class="cls-2" d="M879.73,908.37h4.06v22.88h-4.06Z"/><path class="cls-2" d="M898.58,913h4.06v5.51h3.07v3.17h-3.07v9.57h-4.06v-9.57h-2v-3.17h2Z"/><path class="cls-2" d="M907.83,924.75a6.68,6.68,0,0,1,.92-3.48,6.43,6.43,0,0,1,2.56-2.42,7.93,7.93,0,0,1,3.8-.89,7.64,7.64,0,0,1,3.77.89,6.2,6.2,0,0,1,2.45,2.42,7.49,7.49,0,0,1,0,7,6.23,6.23,0,0,1-2.45,2.46,7.77,7.77,0,0,1-3.83.89,8.27,8.27,0,0,1-3.72-.81,6,6,0,0,1-2.57-2.35A7,7,0,0,1,907.83,924.75Zm4.09,0a3.86,3.86,0,0,0,.41,1.78,3.21,3.21,0,0,0,1.1,1.26,2.73,2.73,0,0,0,1.56.47,2.94,2.94,0,0,0,1.66-.47,3.07,3.07,0,0,0,1.07-1.26,4.41,4.41,0,0,0,0-3.58,3.1,3.1,0,0,0-1.07-1.25,2.94,2.94,0,0,0-1.66-.46,2.72,2.72,0,0,0-1.56.46,3.25,3.25,0,0,0-1.1,1.25A3.85,3.85,0,0,0,911.92,924.78Z"/><path class="cls-2" d="M933.06,931.25l9.63-22.19h.23l9.63,22.19h-4.87l-6.15-15.61,3-2.08-7.36,17.69Zm6.58-7.72h6.41l1.48,3.54h-9.19Z"/><path class="cls-2" d="M965.31,930.12a6.68,6.68,0,0,1-2.1,1.07,8.08,8.08,0,0,1-2.48.4,8.5,8.5,0,0,1-3.79-.79,5.9,5.9,0,0,1-2.49-2.3,6.93,6.93,0,0,1-.89-3.61,6.55,6.55,0,0,1,1-3.61A6.37,6.37,0,0,1,957,919a7.16,7.16,0,0,1,3.26-.79,8.67,8.67,0,0,1,3,.47,7.07,7.07,0,0,1,2.16,1.22l-2,2.61a5.89,5.89,0,0,0-1.11-.66,4,4,0,0,0-1.67-.33,2.87,2.87,0,0,0-1.54.44,3.13,3.13,0,0,0-1.1,1.18,3.66,3.66,0,0,0-.41,1.74,3.52,3.52,0,0,0,.44,1.72,3.22,3.22,0,0,0,1.2,1.23,3.56,3.56,0,0,0,1.82.45,4.06,4.06,0,0,0,1.23-.19,2.94,2.94,0,0,0,1-.54Z"/><path class="cls-2" d="M969.63,913h4.06v5.51h3.07v3.17h-3.07v9.57h-4.06v-9.57h-2v-3.17h2Z"/><path class="cls-2" d="M979.78,914.08a1.84,1.84,0,0,1,.71-1.48A2.34,2.34,0,0,1,982,912a2.27,2.27,0,0,1,1.5.58,1.87,1.87,0,0,1,.68,1.48,1.81,1.81,0,0,1-.68,1.46,2.31,2.31,0,0,1-1.5.57,2.38,2.38,0,0,1-1.52-.57A1.78,1.78,0,0,1,979.78,914.08Zm.09,4.49h4.06v12.68h-4.06Z"/><path class="cls-2" d="M987.12,924.75a6.67,6.67,0,0,1,.91-3.48,6.52,6.52,0,0,1,2.57-2.42,7.9,7.9,0,0,1,3.8-.89,7.67,7.67,0,0,1,3.77.89,6.2,6.2,0,0,1,2.45,2.42,7.57,7.57,0,0,1,0,7,6.23,6.23,0,0,1-2.45,2.46,7.8,7.8,0,0,1-3.83.89,8.31,8.31,0,0,1-3.73-.81,6.08,6.08,0,0,1-2.57-2.35A7.05,7.05,0,0,1,987.12,924.75Zm4.09,0a3.85,3.85,0,0,0,.4,1.78,3.29,3.29,0,0,0,1.1,1.26,2.79,2.79,0,0,0,1.57.47,2.88,2.88,0,0,0,1.65-.47,3.09,3.09,0,0,0,1.08-1.26,4.51,4.51,0,0,0,0-3.58,3.13,3.13,0,0,0-1.08-1.25,2.88,2.88,0,0,0-1.65-.46,2.78,2.78,0,0,0-1.57.46,3.34,3.34,0,0,0-1.1,1.25A3.85,3.85,0,0,0,991.21,924.78Z"/><path class="cls-2" d="M1008.35,918.57l.31,2.26,0-.2a5.26,5.26,0,0,1,1.88-1.93,5.69,5.69,0,0,1,3-.74,4.4,4.4,0,0,1,3,1.06,3.58,3.58,0,0,1,1.23,2.74v9.49h-4.06v-8a2.18,2.18,0,0,0-.45-1.35,1.73,1.73,0,0,0-1.41-.51,2.42,2.42,0,0,0-1.62.61,4,4,0,0,0-1.07,1.66,7.07,7.07,0,0,0-.38,2.4v5.17h-4.06V918.57Z"/><path class="cls-2" d="M1026,931.51a7.78,7.78,0,0,1-2.92-.55,6.43,6.43,0,0,1-2.28-1.54l1.69-2.23a6.93,6.93,0,0,0,1.72,1.2,3.54,3.54,0,0,0,1.44.36,3.38,3.38,0,0,0,.88-.1,1.44,1.44,0,0,0,.63-.32.74.74,0,0,0,.23-.56.94.94,0,0,0-.39-.79,3.72,3.72,0,0,0-1-.48l-1.31-.39a4.68,4.68,0,0,1-2.51-1.61,3.83,3.83,0,0,1-.77-2.3,4.15,4.15,0,0,1,2.13-3.56,5.75,5.75,0,0,1,2.89-.65,10,10,0,0,1,2.7.32,6.38,6.38,0,0,1,2.08,1.05l-1.53,2.37a6.28,6.28,0,0,0-1.23-.74,3.68,3.68,0,0,0-1.27-.33,2,2,0,0,0-.88.12,1.48,1.48,0,0,0-.57.37.78.78,0,0,0-.2.5,1,1,0,0,0,.42.87,3.5,3.5,0,0,0,1.15.49,12.55,12.55,0,0,1,1.36.41,5.13,5.13,0,0,1,1.59.78,3.61,3.61,0,0,1,1,1.17,3.48,3.48,0,0,1,.36,1.64,4.25,4.25,0,0,1-.6,2.19,4.3,4.3,0,0,1-1.8,1.67A6.54,6.54,0,0,1,1026,931.51Z"/><path class="cls-3" d="M316.36,392.3H462.07a2.43,2.43,0,0,0,1.75-4.1L408,329.58a3.57,3.57,0,0,0-5.28.12l-40.89,47-19.32-19.85a3.57,3.57,0,0,0-5.34.24l-23.63,29.25A3.65,3.65,0,0,0,316.36,392.3Z"/><circle class="cls-2" cx="362.61" cy="334.59" r="15.88"/><circle class="cls-2" cx="565.02" cy="663.56" r="18.36"/><circle class="cls-3" cx="565.02" cy="745.27" r="18.36"/><circle class="cls-3" cx="546.94" cy="543.21" r="11.96"/><circle class="cls-3" cx="575.39" cy="543.21" r="11.96"/><circle class="cls-2" cx="488.51" cy="504.12" r="11.96"/><circle class="cls-2" cx="516.97" cy="504.12" r="11.96"/><circle class="cls-3" cx="535.52" cy="849.1" r="12.27"/><path class="cls-3" d="M498.16,718.92a72.67,72.67,0,1,1-77-89.17l2.58,70.36Z"/><path class="cls-2" d="M500.11,702.13a72.58,72.58,0,0,1-1.95,16.79l-74.45-18.81-2.58-70.36q3.12-.29,6.32-.28A72.66,72.66,0,0,1,500.11,702.13Z"/><path class="cls-2" d="M110.25,384.07h4.2v21.35h-4.2Z"/><path class="cls-2" d="M123,392.75l.31,2.23-.05-.18a5.69,5.69,0,0,1,1.88-2,5,5,0,0,1,2.73-.71,5.23,5.23,0,0,1,1.84.29,3.61,3.61,0,0,1,1.35.85,3,3,0,0,1,.75,1.47l-.14,0a6.72,6.72,0,0,1,1.95-1.92,4.47,4.47,0,0,1,2.4-.72,4.18,4.18,0,0,1,3,1.06,3.71,3.71,0,0,1,1.14,2.74v9.51h-4v-7.83a3.77,3.77,0,0,0-.26-1.38,1.12,1.12,0,0,0-1.07-.59,2.26,2.26,0,0,0-1.67.68,4.15,4.15,0,0,0-1,1.74,7,7,0,0,0-.34,2.19v5.19H127.7v-7.83a3.36,3.36,0,0,0-.3-1.38,1.25,1.25,0,0,0-1.12-.59,2.12,2.12,0,0,0-1.61.68,4.39,4.39,0,0,0-1,1.72,6.86,6.86,0,0,0-.34,2.15v5.25h-4.06V392.75Z"/><path class="cls-2" d="M149.66,405.77a7.2,7.2,0,0,1-3.21-.71,5.4,5.4,0,0,1-2.28-2.19,8.63,8.63,0,0,1,0-7.49,6.44,6.44,0,0,1,2.29-2.42,5.78,5.78,0,0,1,3-.85,5.4,5.4,0,0,1,2.86.62,7.62,7.62,0,0,1,1.61,1.38l-.18.49.38-1.85H158v12.67h-4.06v-2.76l.32.87s-.16.12-.35.34a6.48,6.48,0,0,1-.86.78,5.38,5.38,0,0,1-1.39.78A5.23,5.23,0,0,1,149.66,405.77Zm1.16-3.31a3.58,3.58,0,0,0,1.3-.22,2.72,2.72,0,0,0,1-.64,3.81,3.81,0,0,0,.75-1.05v-3.11a2.92,2.92,0,0,0-.7-1.08,3.14,3.14,0,0,0-1.1-.7,4,4,0,0,0-1.42-.25,3,3,0,0,0-1.61.45,3.25,3.25,0,0,0-1.17,1.24,3.83,3.83,0,0,0,0,3.62,3.44,3.44,0,0,0,1.23,1.28A3.16,3.16,0,0,0,150.82,402.46Z"/><path class="cls-2" d="M168.68,411.8a9,9,0,0,1-2.89-.41,8,8,0,0,1-2-1c-.54-.39-1-.76-1.45-1.11l2.38-2.78a10.29,10.29,0,0,0,1.55,1.17,4.25,4.25,0,0,0,2.33.57,4.83,4.83,0,0,0,1.79-.33,3.31,3.31,0,0,0,1.33-1,2.49,2.49,0,0,0,.51-1.6v-2.78l.14.72a4.19,4.19,0,0,1-1.68,1.73,6.12,6.12,0,0,1-3.19.74,6.06,6.06,0,0,1-3.18-.89,6.62,6.62,0,0,1-2.33-2.4,6.88,6.88,0,0,1-.87-3.47,6.76,6.76,0,0,1,.93-3.55,7,7,0,0,1,2.4-2.45,6,6,0,0,1,3.14-.9,7.66,7.66,0,0,1,2.85.48,4.59,4.59,0,0,1,1.82,1.17l-.15.38.44-1.39h3.74v12.67a5.43,5.43,0,0,1-1.05,3.29,7.11,7.11,0,0,1-2.77,2.26A8.72,8.72,0,0,1,168.68,411.8Zm-3.45-12.91a3.61,3.61,0,0,0,.46,1.83A3.44,3.44,0,0,0,167,402a3.51,3.51,0,0,0,1.79.46,4.54,4.54,0,0,0,1.49-.22,3.29,3.29,0,0,0,1.16-.64,3.73,3.73,0,0,0,.86-1.05v-3.11a2.91,2.91,0,0,0-.79-1.08,3.68,3.68,0,0,0-1.2-.7,4.53,4.53,0,0,0-1.52-.25,3.61,3.61,0,0,0-1.79.45,3.33,3.33,0,0,0-1.26,1.24A3.43,3.43,0,0,0,165.23,398.89Z"/><path class="cls-2" d="M186.72,405.77a8.15,8.15,0,0,1-3.93-.87,5.93,5.93,0,0,1-2.45-2.41,7.26,7.26,0,0,1-.84-3.54,6.34,6.34,0,0,1,1-3.45,7.32,7.32,0,0,1,2.64-2.45,7.46,7.46,0,0,1,3.68-.91,6.43,6.43,0,0,1,4.49,1.58,7.74,7.74,0,0,1,2.27,4.56l-9.86,3.14-.9-2.21,7.14-2.4-.84.37a3.08,3.08,0,0,0-.83-1.32,2.53,2.53,0,0,0-1.78-.56,2.94,2.94,0,0,0-1.58.42,2.71,2.71,0,0,0-1,1.19,4.2,4.2,0,0,0-.36,1.81,4.15,4.15,0,0,0,.43,2,2.93,2.93,0,0,0,1.19,1.2,3.62,3.62,0,0,0,3,.17,6.19,6.19,0,0,0,1.24-.61l1.8,3a10.16,10.16,0,0,1-2.19.93A8,8,0,0,1,186.72,405.77Z"/><path class="cls-2" d="M200.17,392.75l.38,3.48-.09-.53a5.92,5.92,0,0,1,1.51-1.93,8.73,8.73,0,0,1,1.9-1.23,3.82,3.82,0,0,1,1.44-.43l-.21,4.06a3.61,3.61,0,0,0-2.43.46,4.44,4.44,0,0,0-1.57,1.68,4.55,4.55,0,0,0-.55,2.15v5h-4V392.75Z"/><path class="cls-2" d="M212.82,405.48l-6.21-12.73h4.55l4.79,10.7Zm-3.4,6,8.44-18.76h3.66l-8.18,18.76Z"/><path class="cls-2" d="M165.43,745.49a15.51,15.51,0,0,0-2.48-1.1,7.28,7.28,0,0,0-2.36-.44,3.74,3.74,0,0,0-2.15.55,1.9,1.9,0,0,0-.78,1.66,1.85,1.85,0,0,0,.59,1.34,5.72,5.72,0,0,0,1.54,1.06,20.26,20.26,0,0,0,2,.84,17.64,17.64,0,0,1,1.84.83,7,7,0,0,1,1.64,1.19,5.19,5.19,0,0,1,1.16,1.77,6.81,6.81,0,0,1,.43,2.59,5.73,5.73,0,0,1-.84,3,6.12,6.12,0,0,1-2.46,2.25,8.54,8.54,0,0,1-4,.85,13.18,13.18,0,0,1-2.48-.24,12.9,12.9,0,0,1-2.48-.76,12.55,12.55,0,0,1-2.35-1.29l1.85-3.28a10.31,10.31,0,0,0,1.64,1,10.42,10.42,0,0,0,1.79.65,6.8,6.8,0,0,0,1.65.23,5.37,5.37,0,0,0,1.52-.22,2.78,2.78,0,0,0,1.28-.74,2,2,0,0,0,.5-1.45,1.82,1.82,0,0,0-.42-1.16,4.37,4.37,0,0,0-1.13-1,9.71,9.71,0,0,0-1.55-.76c-.66-.25-1.33-.54-2-.87a11,11,0,0,1-2-1.2,5.25,5.25,0,0,1-2-4.37,6,6,0,0,1,.83-3.21,5.89,5.89,0,0,1,2.33-2.17,8.2,8.2,0,0,1,3.48-.88,11.93,11.93,0,0,1,4.19.61,15,15,0,0,1,2.89,1.45Z"/><path class="cls-2" d="M171.46,743.43h4.06v5.51h3.08v3.16h-3.08v9.57h-4.06V752.1h-2v-3.16h2Z"/><path class="cls-2" d="M187,762a7.2,7.2,0,0,1-3.21-.71,5.38,5.38,0,0,1-2.27-2.19,8.56,8.56,0,0,1,0-7.48,6.41,6.41,0,0,1,2.3-2.43,5.81,5.81,0,0,1,3-.85,5.4,5.4,0,0,1,2.86.62,7.38,7.38,0,0,1,1.61,1.38l-.18.49.38-1.85h3.77v12.67h-4.06v-2.75l.32.87s-.16.11-.35.33a7,7,0,0,1-.85.78,6,6,0,0,1-1.4.79A5.24,5.24,0,0,1,187,762Zm1.16-3.31a3.81,3.81,0,0,0,1.3-.21,3,3,0,0,0,1-.64,3.87,3.87,0,0,0,.75-1.06v-3.1a2.77,2.77,0,0,0-.7-1.09,3.29,3.29,0,0,0-1.1-.7,4,4,0,0,0-1.42-.24,3,3,0,0,0-1.61.45,3.29,3.29,0,0,0-1.17,1.23,3.83,3.83,0,0,0,0,3.62,3.52,3.52,0,0,0,1.23,1.28A3.16,3.16,0,0,0,188.2,758.71Z"/><path class="cls-2" d="M200.7,743.43h4.05v5.51h3.08v3.16h-3.08v9.57H200.7V752.1h-2v-3.16h2Z"/><path class="cls-2" d="M215.05,761.93a7.63,7.63,0,0,1-2.92-.55,6.48,6.48,0,0,1-2.27-1.54l1.68-2.23a6.79,6.79,0,0,0,1.73,1.2,3.41,3.41,0,0,0,1.43.37,4,4,0,0,0,.89-.1,1.52,1.52,0,0,0,.62-.32.78.78,0,0,0,.23-.57.91.91,0,0,0-.39-.78,3,3,0,0,0-1-.48l-1.3-.39a4.75,4.75,0,0,1-2.51-1.61,3.82,3.82,0,0,1-.77-2.31,4.13,4.13,0,0,1,.51-1.93,4,4,0,0,1,1.62-1.62,5.61,5.61,0,0,1,2.88-.65,9.51,9.51,0,0,1,2.7.32,6.6,6.6,0,0,1,2.09,1l-1.54,2.38a5.58,5.58,0,0,0-1.23-.74,3.63,3.63,0,0,0-1.26-.33,2.22,2.22,0,0,0-.89.11,1.39,1.39,0,0,0-.56.38.7.7,0,0,0-.2.49.94.94,0,0,0,.42.87,3.33,3.33,0,0,0,1.14.49c.47.12.92.26,1.36.41a5.19,5.19,0,0,1,1.6.78,3.51,3.51,0,0,1,1,1.18,3.45,3.45,0,0,1,.36,1.64,4.25,4.25,0,0,1-2.39,3.85A6.43,6.43,0,0,1,215.05,761.93Z"/><path class="cls-2" d="M845.54,126.65a15.51,15.51,0,0,0-2.48-1.1,7.28,7.28,0,0,0-2.36-.44,3.74,3.74,0,0,0-2.15.55,1.9,1.9,0,0,0-.78,1.66,1.85,1.85,0,0,0,.59,1.34,5.72,5.72,0,0,0,1.54,1.06,20.26,20.26,0,0,0,2,.84,17.64,17.64,0,0,1,1.84.83,7.17,7.17,0,0,1,1.64,1.19,5.19,5.19,0,0,1,1.16,1.77,6.81,6.81,0,0,1,.43,2.59,5.73,5.73,0,0,1-.84,3,6.12,6.12,0,0,1-2.46,2.25,8.56,8.56,0,0,1-4,.85,13.34,13.34,0,0,1-2.48-.24,13,13,0,0,1-2.47-.76,12.55,12.55,0,0,1-2.35-1.29l1.85-3.28a9.88,9.88,0,0,0,1.64,1,10.33,10.33,0,0,0,1.78.65,6.88,6.88,0,0,0,1.66.23,5.37,5.37,0,0,0,1.52-.22,2.7,2.7,0,0,0,1.27-.74,2,2,0,0,0,.51-1.45,1.82,1.82,0,0,0-.42-1.16,4.54,4.54,0,0,0-1.13-.95,9.71,9.71,0,0,0-1.55-.76c-.66-.25-1.33-.54-2-.87a10.61,10.61,0,0,1-2-1.2,5.43,5.43,0,0,1-1.48-1.77,5.55,5.55,0,0,1-.56-2.6,6.06,6.06,0,0,1,.82-3.21,5.92,5.92,0,0,1,2.34-2.17,8.13,8.13,0,0,1,3.48-.88,11.93,11.93,0,0,1,4.19.61,14.91,14.91,0,0,1,2.88,1.45Z"/><path class="cls-2" d="M850.3,125.66a1.81,1.81,0,0,1,.71-1.48,2.39,2.39,0,0,1,1.52-.58,2.27,2.27,0,0,1,1.49.58,1.84,1.84,0,0,1,.68,1.48,1.81,1.81,0,0,1-.68,1.47,2.3,2.3,0,0,1-1.49.56,2.42,2.42,0,0,1-1.52-.56A1.78,1.78,0,0,1,850.3,125.66Zm.08,4.5h4.06v12.67h-4.06Z"/><path class="cls-2" d="M859.81,124.59h4.06v5.51h3.07v3.16h-3.07v9.57h-4.06v-9.57h-2V130.1h2Z"/><path class="cls-2" d="M876.28,143.18a8.15,8.15,0,0,1-3.93-.87,5.93,5.93,0,0,1-2.45-2.41,7.24,7.24,0,0,1-.84-3.54,6.34,6.34,0,0,1,1-3.45,7.32,7.32,0,0,1,2.64-2.45,7.5,7.5,0,0,1,3.69-.91,6.47,6.47,0,0,1,4.48,1.58,7.66,7.66,0,0,1,2.27,4.57l-9.86,3.13-.9-2.21,7.14-2.4-.84.37a3.08,3.08,0,0,0-.83-1.32,2.53,2.53,0,0,0-1.78-.56,2.94,2.94,0,0,0-1.58.42,2.71,2.71,0,0,0-1.05,1.19,4.24,4.24,0,0,0-.36,1.81,4.12,4.12,0,0,0,.44,2,2.9,2.9,0,0,0,1.18,1.2,3.55,3.55,0,0,0,1.69.41,3.81,3.81,0,0,0,1.29-.23,7.8,7.8,0,0,0,1.23-.61l1.8,3a10.16,10.16,0,0,1-2.19.93A8,8,0,0,1,876.28,143.18Z"/><path class="cls-2" d="M889.76,130.16l.32,2.23-.05-.17a5.72,5.72,0,0,1,1.88-2,5,5,0,0,1,2.73-.71,5.47,5.47,0,0,1,1.84.29,3.51,3.51,0,0,1,1.35.86,3,3,0,0,1,.75,1.46l-.14,0a6.85,6.85,0,0,1,1.95-1.92,4.45,4.45,0,0,1,2.4-.72,4.18,4.18,0,0,1,3,1.06,3.71,3.71,0,0,1,1.14,2.74v9.51h-4V135a4,4,0,0,0-.26-1.38,1.13,1.13,0,0,0-1.07-.59,2.28,2.28,0,0,0-1.67.68,4.27,4.27,0,0,0-1,1.74,7.36,7.36,0,0,0-.33,2.19v5.19h-4.06V135a3.36,3.36,0,0,0-.3-1.38,1.27,1.27,0,0,0-1.12-.59,2.16,2.16,0,0,0-1.61.68,4.5,4.5,0,0,0-1,1.73,7,7,0,0,0-.33,2.14v5.25h-4.06V130.16Z"/><path class="cls-2" d="M916.44,143.18a7.16,7.16,0,0,1-3.2-.71,5.34,5.34,0,0,1-2.28-2.19,8.61,8.61,0,0,1,0-7.48,6.29,6.29,0,0,1,2.29-2.42,5.79,5.79,0,0,1,3-.86,5.42,5.42,0,0,1,2.86.62,7.31,7.31,0,0,1,1.6,1.38l-.17.49.38-1.85h3.77v12.67h-4.06v-2.75l.32.87s-.16.11-.35.33a6.48,6.48,0,0,1-.86.78,5.7,5.7,0,0,1-1.39.79A5.26,5.26,0,0,1,916.44,143.18Zm1.16-3.31a3.83,3.83,0,0,0,1.31-.21,3,3,0,0,0,1-.64,4.11,4.11,0,0,0,.76-1.06v-3.1a2.88,2.88,0,0,0-.7-1.09,3.39,3.39,0,0,0-1.1-.7,4,4,0,0,0-1.42-.24,3.12,3.12,0,0,0-1.61.44,3.43,3.43,0,0,0-1.18,1.24,3.63,3.63,0,0,0-.43,1.8,3.59,3.59,0,0,0,.46,1.82,3.46,3.46,0,0,0,1.24,1.28A3.12,3.12,0,0,0,917.6,139.87Z"/><path class="cls-2" d="M936.86,143.18a6.15,6.15,0,0,1-2.22-.42,4.69,4.69,0,0,1-1.81-1.21l.12-1.18v8.55h-4v-19h3.48l.58,2.46-.31-.87a9.22,9.22,0,0,1,2.2-1.39,6.71,6.71,0,0,1,2.81-.55,6,6,0,0,1,3.16.83,5.72,5.72,0,0,1,2.19,2.37,8.12,8.12,0,0,1,.8,3.73,7,7,0,0,1-.9,3.65,5.93,5.93,0,0,1-2.46,2.3A8,8,0,0,1,936.86,143.18Zm-.81-3.19a3.81,3.81,0,0,0,1.81-.44,3.42,3.42,0,0,0,1.33-1.23,3.27,3.27,0,0,0,.51-1.81,3.72,3.72,0,0,0-.45-1.87,3.26,3.26,0,0,0-2.91-1.7,4.27,4.27,0,0,0-1.44.22,3.28,3.28,0,0,0-1.1.64,3.91,3.91,0,0,0-.83,1.06V138a3.39,3.39,0,0,0,.67,1.07,2.79,2.79,0,0,0,1.06.71A3.52,3.52,0,0,0,936.05,140Z"/><line class="cls-4" x1="269.18" y1="617.58" x2="269.18" y2="408.64"/><path class="cls-4" d="M269.18,277.78V126H801.85V972.37a28.07,28.07,0,0,1-28.07,28.07H269.18V763.61"/><path class="cls-5" d="M269.18,118.31V82H789a12.86,12.86,0,0,1,12.86,12.86v8"/><line class="cls-5" x1="785.13" y1="102.83" x2="967.51" y2="102.83"/><line class="cls-5" x1="767.86" y1="531.08" x2="950.25" y2="531.08"/><line class="cls-5" x1="738.21" y1="891.25" x2="934.12" y2="891.25"/><line class="cls-5" x1="465.8" y1="245.53" x2="605.23" y2="245.53"/><line class="cls-5" x1="440.87" y1="937.07" x2="630.16" y2="937.07"/><line class="cls-4" x1="478.34" y1="919.59" x2="592.69" y2="919.59"/><line class="cls-6" x1="417.74" y1="211.43" x2="653.29" y2="211.43"/><line class="cls-6" x1="735.23" y1="102.83" x2="771.88" y2="102.83"/><path class="cls-5" d="M243.88,300h233.8a24.66,24.66,0,0,1,24.66,24.66v83.93a0,0,0,0,1,0,0H243.88a0,0,0,0,1,0,0V300A0,0,0,0,1,243.88,300Z"/><line class="cls-5" x1="107.91" y1="365.42" x2="243.88" y2="365.42"/><line class="cls-5" x1="119.15" y1="721.67" x2="250.38" y2="721.67"/><line class="cls-5" x1="608.33" y1="649.73" x2="734.41" y2="649.73"/><line class="cls-5" x1="608.33" y1="678.29" x2="690.75" y2="678.29"/><line class="cls-5" x1="557.51" y1="331.54" x2="734.41" y2="331.54"/><line class="cls-5" x1="557.51" y1="360.1" x2="681.09" y2="360.1"/><line class="cls-5" x1="557.51" y1="388.66" x2="639.71" y2="388.66"/><path class="cls-5" d="M554.9,886.68H516.13a19.39,19.39,0,0,1,38.77,0Z"/><line class="cls-4" x1="608.33" y1="731.43" x2="734.41" y2="731.43"/><line class="cls-4" x1="608.33" y1="760" x2="690.75" y2="760"/><path class="cls-5" d="M402.9,781.39A96.23,96.23,0,1,1,373.71,612.5"/><path class="cls-5" d="M515.23,526.11s11-3.88,11-22"/><path class="cls-5" d="M486.5,526.11s11-3.88,11-22"/><path class="cls-4" d="M548.49,522.23s-11,3.88-11,22"/><path class="cls-4" d="M577.23,522.23s-11,3.88-11,22"/></g></svg>