<svg xmlns="http://www.w3.org/2000/svg" viewBox="0 0 1080 1020"><defs><style>.cls-1{fill:#f7cfd5;}.cls-2{fill:#8ba9e7;}.cls-3{fill:#f14753;}.cls-4{fill:#1a3a8a;}.cls-5,.cls-6,.cls-7,.cls-8,.cls-9{fill:none;stroke-linecap:round;stroke-linejoin:round;}.cls-5,.cls-9{stroke:#1a3a8a;}.cls-5,.cls-7,.cls-8{stroke-width:5px;}.cls-6,.cls-7{stroke:#8ba9e7;}.cls-6,.cls-9{stroke-width:25px;}.cls-8{stroke:#f14753;}</style></defs><g id="Layer_3" data-name="Layer 3"><path class="cls-1" d="M152.48,198.6H441.7a0,0,0,0,1,0,0v61.88A16.48,16.48,0,0,1,425.22,277H152.48a0,0,0,0,1,0,0V198.6A0,0,0,0,1,152.48,198.6Z"/><path class="cls-1" d="M161.55,704.83H667a0,0,0,0,1,0,0v254.1a52.91,52.91,0,0,1-52.91,52.91H161.55a0,0,0,0,1,0,0v-307A0,0,0,0,1,161.55,704.83Z"/><path class="cls-2" d="M740.76,844.66H954.9a3.23,3.23,0,0,0,3.19-3.74c-4.2-24.3-21-40.11-41.6-32.64-22.16-71.68-97.67-46.41-112.51,10-22.92-21.67-61.12-6.71-66.4,22.59A3.23,3.23,0,0,0,740.76,844.66Z"/><circle class="cls-2" cx="225.63" cy="157.09" r="22.98"/><circle class="cls-3" cx="201.02" cy="239.73" r="28.36"/><circle class="cls-4" cx="634.35" cy="239.73" r="28.36"/><path class="cls-4" d="M910.58,351.08h-61c0-28.61,27.31-51.81,61-51.81Z"/><path class="cls-4" d="M775.86,965.74h-61c0-28.62,27.31-51.81,61-51.81Z"/><path class="cls-4" d="M910.58,590.22h-61c0-28.62,27.31-51.82,61-51.82Z"/><path class="cls-1" d="M571.58,430.79h72c0,44.69-32.23,80.91-72,80.91Z"/><circle class="cls-2" cx="225.63" cy="319.66" r="22.98"/><path class="cls-4" d="M181.19,80.37v34.84H432.8V80.37Zm197.47,21.7A7.39,7.39,0,1,1,386,94.69,7.38,7.38,0,0,1,378.66,102.07Zm31.76,0a7.39,7.39,0,1,1,7.39-7.38A7.39,7.39,0,0,1,410.42,102.07Z"/><path class="cls-1" d="M585.81,198.6V277H839.46a89.15,89.15,0,0,1-88.33,77.13H494v-68A55.36,55.36,0,1,0,494,189V54h346.3V198.6Z"/></g><g id="Layer_2" data-name="Layer 2"><rect class="cls-5" x="181.19" y="80.37" width="251.61" height="34.84"/><line class="cls-6" x1="744.83" y1="497.04" x2="878.48" y2="497.04"/><line class="cls-7" x1="272.83" y1="148.12" x2="336.69" y2="148.12"/><line class="cls-7" x1="353.63" y1="148.12" x2="387.84" y2="148.12"/><line class="cls-7" x1="272.83" y1="165.06" x2="378.39" y2="165.06"/><line class="cls-8" x1="259.8" y1="230.76" x2="323.66" y2="230.76"/><line class="cls-8" x1="340.6" y1="230.76" x2="374.81" y2="230.76"/><line class="cls-8" x1="259.8" y1="247.7" x2="365.36" y2="247.7"/><line class="cls-7" x1="272.83" y1="310.69" x2="336.69" y2="310.69"/><line class="cls-7" x1="353.63" y1="310.69" x2="387.84" y2="310.69"/><line class="cls-7" x1="272.83" y1="327.63" x2="378.39" y2="327.63"/><polyline class="cls-7" points="181.19 198.6 181.19 115.21 432.8 115.21 432.8 198.6"/><path class="cls-7" d="M432.8,277V342a29.22,29.22,0,0,1-29.22,29.21H181.19V277"/><path class="cls-5" d="M152.48,198.6H459.72a0,0,0,0,1,0,0v61.88A16.48,16.48,0,0,1,443.24,277H152.48a0,0,0,0,1,0,0V198.6A0,0,0,0,1,152.48,198.6Z"/><line class="cls-5" x1="693.13" y1="230.76" x2="756.99" y2="230.76"/><line class="cls-5" x1="773.93" y1="230.76" x2="808.14" y2="230.76"/><line class="cls-5" x1="693.13" y1="247.7" x2="798.69" y2="247.7"/><path class="cls-8" d="M585.81,198.6H893.05a0,0,0,0,1,0,0v61.88A16.48,16.48,0,0,1,876.57,277H585.81a0,0,0,0,1,0,0V198.6A0,0,0,0,1,585.81,198.6Z"/><polyline class="cls-5" points="161.55 198.6 161.55 53.96 910.9 53.96 910.9 351.08 851.97 351.08"/><polyline class="cls-5" points="161.55 276.95 161.55 397.18 801.59 397.18 842.9 358.35"/><polyline class="cls-5" points="708.18 973.01 666.87 1011.84 161.55 1011.84 161.55 668.62 776.18 668.62 776.18 965.74 717.25 965.74"/><polyline class="cls-5" points="842.9 597.48 801.59 636.32 571.58 636.32 571.58 430.79 910.9 430.79 910.9 590.22 851.97 590.22"/><polyline class="cls-5" points="564.25 242.43 481.99 242.43 490.22 250.66"/><polyline class="cls-8" points="481.99 228.59 564.25 228.59 556.03 220.36"/><line class="cls-8" x1="201.92" y1="945.11" x2="625.66" y2="945.11"/><circle class="cls-4" cx="252.74" cy="944.91" r="10.19"/><line class="cls-7" x1="252.74" y1="866.27" x2="252.74" y2="923.57"/><circle class="cls-4" cx="359.82" cy="944.91" r="10.19"/><line class="cls-7" x1="359.82" y1="883.75" x2="359.82" y2="923.57"/><circle class="cls-4" cx="466.9" cy="944.91" r="10.19"/><line class="cls-7" x1="466.9" y1="777.54" x2="466.9" y2="923.57"/><circle class="cls-4" cx="573.97" cy="944.91" r="10.19"/><line class="cls-7" x1="573.97" y1="744.31" x2="573.97" y2="923.57"/><polyline class="cls-5" points="252.74 850.56 359.82 866.27 466.9 758.7 573.97 726.56"/><line class="cls-8" x1="161.55" y1="446.21" x2="186.5" y2="446.21"/><line class="cls-8" x1="161.55" y1="529.05" x2="186.5" y2="529.05"/><line class="cls-8" x1="161.55" y1="611.88" x2="186.5" y2="611.88"/><line class="cls-9" x1="744.83" y1="497.04" x2="836.64" y2="497.04"/><circle class="cls-7" cx="672.61" cy="511.49" r="13.6"/><path class="cls-5" d="M701.12,511.49a28.45,28.45,0,0,0-.92-7.19l6.75-3.89-7.57-13.12-6.76,3.9A28.5,28.5,0,0,0,680.18,484v-7.8H665V484a28.5,28.5,0,0,0-12.44,7.19l-6.76-3.9-7.57,13.12L645,504.3a28.86,28.86,0,0,0,0,14.38l-6.75,3.89,7.57,13.12,6.76-3.9A28.39,28.39,0,0,0,665,539v7.81h15.15V539a28.39,28.39,0,0,0,12.44-7.18l6.76,3.9L707,522.57l-6.75-3.89A28.45,28.45,0,0,0,701.12,511.49Z"/><circle class="cls-8" cx="631.2" cy="563.97" r="8.06"/><path class="cls-5" d="M650.27,564a19.1,19.1,0,0,0-.61-4.81l4.51-2.6-5.06-8.78-4.52,2.61a19.06,19.06,0,0,0-8.32-4.8v-5.22H626.14v5.22a19,19,0,0,0-8.32,4.8l-4.52-2.61-5.07,8.78,4.52,2.6a19.23,19.23,0,0,0,0,9.61l-4.52,2.61,5.07,8.77,4.52-2.61a19,19,0,0,0,8.32,4.81v5.21h10.13v-5.21a19.08,19.08,0,0,0,8.32-4.81l4.52,2.61,5.06-8.77-4.51-2.61A19,19,0,0,0,650.27,564Z"/><path class="cls-4" d="M232.82,447.35a3.55,3.55,0,0,0,.61,1.94A4.86,4.86,0,0,0,235,450.8a4.37,4.37,0,0,0,2.19.58,4.64,4.64,0,0,0,2.32-.58,4.59,4.59,0,0,0,1.61-1.51,3.54,3.54,0,0,0,.6-1.94V433.89h4.14v13.54a7.46,7.46,0,0,1-1.16,4.16,8.05,8.05,0,0,1-3.13,2.85,9.36,9.36,0,0,1-4.38,1,9.22,9.22,0,0,1-4.33-1,8.1,8.1,0,0,1-3.12-2.85,7.46,7.46,0,0,1-1.16-4.16V433.89h4.2Z"/><path class="cls-4" d="M254,442.56l.32,2.26-.06-.2a5.29,5.29,0,0,1,1.89-1.93,5.69,5.69,0,0,1,3-.74,4.35,4.35,0,0,1,3,1.06,3.58,3.58,0,0,1,1.23,2.74v9.48H259.3v-8a2.18,2.18,0,0,0-.45-1.35,1.73,1.73,0,0,0-1.41-.51,2.42,2.42,0,0,0-1.62.61,4,4,0,0,0-1.07,1.65,7.13,7.13,0,0,0-.38,2.41v5.16h-4.06V442.56Z"/><path class="cls-4" d="M267.54,432.35h4.06v22.88h-4.06Z"/><path class="cls-4" d="M275.69,438.07a1.8,1.8,0,0,1,.71-1.48,2.34,2.34,0,0,1,1.52-.58,2.22,2.22,0,0,1,1.49.58,1.83,1.83,0,0,1,.68,1.48,1.79,1.79,0,0,1-.68,1.46,2.26,2.26,0,0,1-1.49.57,2.38,2.38,0,0,1-1.52-.57A1.76,1.76,0,0,1,275.69,438.07Zm.08,4.49h4.06v12.67h-4.06Z"/><path class="cls-4" d="M287.69,442.56l.32,2.23-.06-.17a5.74,5.74,0,0,1,1.89-2,5,5,0,0,1,2.72-.71,5.42,5.42,0,0,1,1.84.29,3.48,3.48,0,0,1,1.35.86,3,3,0,0,1,.76,1.46l-.15,0a6.72,6.72,0,0,1,2-1.91,4.35,4.35,0,0,1,2.39-.73,4.19,4.19,0,0,1,3,1.06,3.69,3.69,0,0,1,1.15,2.74v9.51h-4V447.4a3.88,3.88,0,0,0-.26-1.37,1.15,1.15,0,0,0-1.08-.6,2.27,2.27,0,0,0-1.66.68,4.19,4.19,0,0,0-1,1.74,7.36,7.36,0,0,0-.33,2.19v5.19h-4.06V447.4a3.12,3.12,0,0,0-.31-1.37,1.22,1.22,0,0,0-1.11-.6,2.14,2.14,0,0,0-1.61.68,4.32,4.32,0,0,0-1,1.73,7,7,0,0,0-.33,2.14v5.25H284V442.56Z"/><path class="cls-4" d="M309,438.07a1.8,1.8,0,0,1,.71-1.48,2.34,2.34,0,0,1,1.52-.58,2.22,2.22,0,0,1,1.49.58,1.84,1.84,0,0,1,.69,1.48,1.8,1.8,0,0,1-.69,1.46,2.26,2.26,0,0,1-1.49.57,2.38,2.38,0,0,1-1.52-.57A1.76,1.76,0,0,1,309,438.07Zm.09,4.49h4.06v12.67H309Z"/><path class="cls-4" d="M318.46,437h4.06v5.51h3.07v3.16h-3.07v9.57h-4.06v-9.57h-2V442.5h2Z"/><path class="cls-4" d="M334.93,455.58a8.21,8.21,0,0,1-3.93-.87,5.93,5.93,0,0,1-2.45-2.41,7.23,7.23,0,0,1-.84-3.53,6.21,6.21,0,0,1,1-3.45,7,7,0,0,1,2.64-2.45A7.47,7.47,0,0,1,335,442a6.45,6.45,0,0,1,4.48,1.58,7.75,7.75,0,0,1,2.28,4.57l-9.86,3.13L331,449l7.13-2.41-.84.38a2.94,2.94,0,0,0-.83-1.32,2.47,2.47,0,0,0-1.78-.57,2.94,2.94,0,0,0-1.58.42,2.75,2.75,0,0,0-1,1.19,4.67,4.67,0,0,0,.07,3.8,2.87,2.87,0,0,0,1.19,1.2,3.37,3.37,0,0,0,1.68.41,3.81,3.81,0,0,0,1.29-.23,7,7,0,0,0,1.23-.61l1.8,3a10.16,10.16,0,0,1-2.19.93A7.87,7.87,0,0,1,334.93,455.58Z"/><path class="cls-4" d="M349.9,455.58a6,6,0,0,1-3.17-.83,5.78,5.78,0,0,1-2.19-2.39,8.09,8.09,0,0,1-.79-3.71,7.17,7.17,0,0,1,.87-3.65,5.71,5.71,0,0,1,2.38-2.29,7.61,7.61,0,0,1,5.75-.41,4.53,4.53,0,0,1,1.87,1.16V432.35h4v22.88h-4.06v-2.46l.32.87a10.48,10.48,0,0,1-2.2,1.38A6.71,6.71,0,0,1,349.9,455.58Zm1.33-3.42a4.27,4.27,0,0,0,1.44-.22,3.28,3.28,0,0,0,1.1-.64,3.79,3.79,0,0,0,.82-1.05v-3.11a2.82,2.82,0,0,0-.71-1.09,3.34,3.34,0,0,0-1.16-.69,4.43,4.43,0,0,0-1.49-.25,3.24,3.24,0,0,0-1.67.45,3.45,3.45,0,0,0-1.23,1.23,3.5,3.5,0,0,0-.46,1.8,3.61,3.61,0,0,0,.46,1.83,3.52,3.52,0,0,0,1.23,1.28A3.25,3.25,0,0,0,351.23,452.16Z"/><path class="cls-4" d="M372.92,433.89h14.56V438H377.13v4.55h9.16v4.06h-9.16v4.61h10.75v4.06h-15Z"/><path class="cls-4" d="M396.73,455.58a6,6,0,0,1-3.16-.83,5.65,5.65,0,0,1-2.19-2.39,8.09,8.09,0,0,1-.8-3.71,7.17,7.17,0,0,1,.87-3.65,5.76,5.76,0,0,1,2.38-2.29,7.25,7.25,0,0,1,3.42-.79,7.35,7.35,0,0,1,2.34.38,4.67,4.67,0,0,1,1.87,1.16V432.35h4v22.88h-4.06v-2.46l.32.87a10.3,10.3,0,0,1-2.21,1.38A6.71,6.71,0,0,1,396.73,455.58Zm1.33-3.42a4.23,4.23,0,0,0,1.44-.22,3.18,3.18,0,0,0,1.1-.64,3.82,3.82,0,0,0,.83-1.05v-3.11a2.94,2.94,0,0,0-.71-1.09,3.44,3.44,0,0,0-1.16-.69,4.49,4.49,0,0,0-1.5-.25,3.21,3.21,0,0,0-1.66.45,3.4,3.4,0,0,0-1.24,1.23,3.6,3.6,0,0,0-.46,1.8,3.71,3.71,0,0,0,.46,1.83,3.46,3.46,0,0,0,1.24,1.28A3.22,3.22,0,0,0,398.06,452.16Z"/><path class="cls-4" d="M409.58,438.07a1.8,1.8,0,0,1,.71-1.48,2.34,2.34,0,0,1,1.52-.58,2.22,2.22,0,0,1,1.49.58,1.84,1.84,0,0,1,.69,1.48,1.8,1.8,0,0,1-.69,1.46,2.26,2.26,0,0,1-1.49.57,2.38,2.38,0,0,1-1.52-.57A1.76,1.76,0,0,1,409.58,438.07Zm.08,4.49h4.06v12.67h-4.06Z"/><path class="cls-4" d="M419.09,437h4.06v5.51h3.07v3.16h-3.07v9.57h-4.06v-9.57h-2V442.5h2Z"/><path class="cls-4" d="M433.44,455.49a7.58,7.58,0,0,1-2.91-.55,6.41,6.41,0,0,1-2.28-1.53l1.68-2.24a7.32,7.32,0,0,0,1.73,1.21,3.54,3.54,0,0,0,1.44.36,3.43,3.43,0,0,0,.88-.1,1.45,1.45,0,0,0,.62-.32.73.73,0,0,0,.23-.57.89.89,0,0,0-.39-.78,3.45,3.45,0,0,0-1-.48l-1.3-.39a4.73,4.73,0,0,1-2.51-1.61,3.83,3.83,0,0,1-.77-2.3,4.1,4.1,0,0,1,.51-1.93,4.15,4.15,0,0,1,1.62-1.63,5.75,5.75,0,0,1,2.89-.65,10,10,0,0,1,2.7.32,6.55,6.55,0,0,1,2.08,1l-1.53,2.38a6.07,6.07,0,0,0-1.24-.74,3.58,3.58,0,0,0-1.26-.33,2.14,2.14,0,0,0-.88.11,1.62,1.62,0,0,0-.57.38.77.77,0,0,0-.2.49.94.94,0,0,0,.42.87,3.33,3.33,0,0,0,1.14.5c.47.11.92.25,1.37.4a5.37,5.37,0,0,1,1.59.79,3.27,3.27,0,0,1,1.4,2.81,4.3,4.3,0,0,1-.6,2.19,4.43,4.43,0,0,1-1.8,1.67A6.56,6.56,0,0,1,433.44,455.49Z"/><path class="cls-4" d="M240.45,521.88a16.46,16.46,0,0,0-2.48-1.1,7.25,7.25,0,0,0-2.36-.43,3.66,3.66,0,0,0-2.15.55,1.87,1.87,0,0,0-.78,1.65,1.89,1.89,0,0,0,.59,1.35,6,6,0,0,0,1.54,1.06,20.26,20.26,0,0,0,2,.84,15.69,15.69,0,0,1,1.84.82,7.17,7.17,0,0,1,1.64,1.19,5.39,5.39,0,0,1,1.16,1.77,6.87,6.87,0,0,1,.43,2.6,5.7,5.7,0,0,1-.84,3,6.12,6.12,0,0,1-2.46,2.25,8.54,8.54,0,0,1-4,.86,13.2,13.2,0,0,1-2.48-.25,12.87,12.87,0,0,1-2.48-.75,12.55,12.55,0,0,1-2.35-1.29l1.85-3.28a10.34,10.34,0,0,0,3.42,1.62,6.48,6.48,0,0,0,1.66.23,5.74,5.74,0,0,0,1.52-.21,2.87,2.87,0,0,0,1.28-.74,2,2,0,0,0,.5-1.45A1.8,1.8,0,0,0,237,531a4.2,4.2,0,0,0-1.13-1,8.9,8.9,0,0,0-1.55-.75c-.66-.25-1.33-.54-2-.87a10.14,10.14,0,0,1-2-1.21,5.43,5.43,0,0,1-1.48-1.77,5.51,5.51,0,0,1-.56-2.59,6,6,0,0,1,.83-3.22,5.8,5.8,0,0,1,2.33-2.16,8.21,8.21,0,0,1,3.48-.89,12.17,12.17,0,0,1,4.19.61,15,15,0,0,1,2.89,1.45Z"/><path class="cls-4" d="M244.31,531.57a6.65,6.65,0,0,1,.91-3.48,6.45,6.45,0,0,1,2.57-2.42,7.93,7.93,0,0,1,3.8-.89,7.67,7.67,0,0,1,3.77.89,6.14,6.14,0,0,1,2.45,2.42,7,7,0,0,1,.85,3.48,7.1,7.1,0,0,1-.85,3.49,6.21,6.21,0,0,1-2.45,2.45,7.69,7.69,0,0,1-3.83.9,8.31,8.31,0,0,1-3.73-.81,6,6,0,0,1-2.56-2.35A7,7,0,0,1,244.31,531.57Zm4.09,0a3.88,3.88,0,0,0,.4,1.78,3.24,3.24,0,0,0,1.11,1.26,2.73,2.73,0,0,0,1.56.47,2.88,2.88,0,0,0,1.65-.47,3,3,0,0,0,1.08-1.26,4.51,4.51,0,0,0,0-3.58,3.05,3.05,0,0,0-1.08-1.25,2.88,2.88,0,0,0-1.65-.46,2.72,2.72,0,0,0-1.56.46,3.28,3.28,0,0,0-1.11,1.25A3.85,3.85,0,0,0,248.4,531.6Z"/><path class="cls-4" d="M263.07,538.06v-9.13h-2.15v-3.6h2.15v-4.4a5.81,5.81,0,0,1,1.44-4.08,5.33,5.33,0,0,1,4.16-1.58,7.39,7.39,0,0,1,1.81.25,4.92,4.92,0,0,1,1.75.79l-1.71,2.93a1.36,1.36,0,0,0-.68-.5,2.27,2.27,0,0,0-.74-.13,1.86,1.86,0,0,0-1.42.58,2.59,2.59,0,0,0-.55,1.85v4.29H271v3.6h-3.83v9.13Z"/><path class="cls-4" d="M275.66,519.82h4.06v5.51h3.07v3.16h-3.07v9.57h-4.06v-9.57h-2v-3.16h2Z"/><path class="cls-4" d="M294.94,525.39l2.79,6.53L297,532l2.44-6.58h3.94l-5.71,13.43-4.06-8.41-3.71,8.41-5.77-13.43H288l3.07,7.05-1.39-.2,2.44-5.4-.67-1.45Z"/><path class="cls-4" d="M310.49,538.41a7.07,7.07,0,0,1-3.21-.71,5.28,5.28,0,0,1-2.28-2.19,8.61,8.61,0,0,1,0-7.48,6.44,6.44,0,0,1,2.29-2.42,5.79,5.79,0,0,1,3-.86,5.3,5.3,0,0,1,2.86.63,7.31,7.31,0,0,1,1.61,1.37l-.18.5.38-1.86h3.77v12.67h-4.06v-2.75l.32.87s-.16.11-.35.33a5.83,5.83,0,0,1-.86.79,5.38,5.38,0,0,1-1.39.78A5.24,5.24,0,0,1,310.49,538.41Zm1.16-3.3a3.81,3.81,0,0,0,1.3-.22,3,3,0,0,0,1-.64,3.72,3.72,0,0,0,.75-1.06v-3.1A2.88,2.88,0,0,0,314,529a3.12,3.12,0,0,0-1.1-.69,3.78,3.78,0,0,0-1.42-.25,3,3,0,0,0-1.61.45,3.29,3.29,0,0,0-1.17,1.23,3.85,3.85,0,0,0,0,3.63,3.41,3.41,0,0,0,1.23,1.27A3.17,3.17,0,0,0,311.65,535.11Z"/><path class="cls-4" d="M326.61,525.39l.38,3.48-.09-.52a5.81,5.81,0,0,1,1.51-1.93,8.5,8.5,0,0,1,1.9-1.23,3.8,3.8,0,0,1,1.43-.44l-.2,4.06a3.64,3.64,0,0,0-2.44.47,4.27,4.27,0,0,0-1.56,1.68,4.52,4.52,0,0,0-.55,2.15v4.95h-4V525.39Z"/><path class="cls-4" d="M340.5,538.41a8.15,8.15,0,0,1-3.93-.87,5.93,5.93,0,0,1-2.45-2.41,7.23,7.23,0,0,1-.84-3.53,6.21,6.21,0,0,1,1-3.45,7,7,0,0,1,2.63-2.45,7.51,7.51,0,0,1,3.69-.92,6.47,6.47,0,0,1,4.48,1.58,7.69,7.69,0,0,1,2.27,4.57l-9.86,3.13-.89-2.2,7.13-2.41-.84.38a3.08,3.08,0,0,0-.83-1.32,2.47,2.47,0,0,0-1.78-.57,2.94,2.94,0,0,0-1.58.42,2.77,2.77,0,0,0-1.05,1.19,4.28,4.28,0,0,0-.36,1.82,4.08,4.08,0,0,0,.44,2,2.89,2.89,0,0,0,1.19,1.21,3.48,3.48,0,0,0,1.68.4,3.81,3.81,0,0,0,1.29-.23,7.4,7.4,0,0,0,1.23-.61l1.8,3a10.66,10.66,0,0,1-2.19.92A7.53,7.53,0,0,1,340.5,538.41Z"/><path class="cls-4" d="M364.16,530.18a3.55,3.55,0,0,0,.61,1.94,4.76,4.76,0,0,0,1.61,1.51,4.37,4.37,0,0,0,2.19.58,4.67,4.67,0,0,0,2.32-.58,4.59,4.59,0,0,0,1.61-1.51,3.54,3.54,0,0,0,.6-1.94V516.72h4.14v13.54a7.46,7.46,0,0,1-1.16,4.16,8.05,8.05,0,0,1-3.13,2.85,9.37,9.37,0,0,1-4.38,1,9.22,9.22,0,0,1-4.33-1,8.1,8.1,0,0,1-3.12-2.85,7.46,7.46,0,0,1-1.16-4.16V516.72h4.2Z"/><path class="cls-4" d="M389.6,538.41a6.08,6.08,0,0,1-2.22-.42,4.71,4.71,0,0,1-1.81-1.2l.11-1.19v8.55h-4v-19h3.48l.58,2.47-.32-.87a9.31,9.31,0,0,1,2.21-1.4,6.87,6.87,0,0,1,2.81-.55,6.08,6.08,0,0,1,3.16.83,5.68,5.68,0,0,1,2.19,2.38,8,8,0,0,1,.8,3.72,7,7,0,0,1-.9,3.66,5.87,5.87,0,0,1-2.47,2.29A7.93,7.93,0,0,1,389.6,538.41Zm-.81-3.19a3.84,3.84,0,0,0,1.81-.43,3.44,3.44,0,0,0,1.33-1.24,3.27,3.27,0,0,0,.51-1.81,3.75,3.75,0,0,0-.45-1.87,3.33,3.33,0,0,0-1.22-1.25,3.38,3.38,0,0,0-1.69-.44,4.5,4.5,0,0,0-1.44.21,3.35,3.35,0,0,0-1.1.64,3.73,3.73,0,0,0-.83,1.06v3.1a3.33,3.33,0,0,0,.67,1.08,3,3,0,0,0,1.06.71A3.68,3.68,0,0,0,388.79,535.22Z"/><path class="cls-4" d="M404.91,538.41a6.08,6.08,0,0,1-3.16-.82,5.68,5.68,0,0,1-2.19-2.4,8.09,8.09,0,0,1-.8-3.71,7.17,7.17,0,0,1,.87-3.65,5.71,5.71,0,0,1,2.38-2.29,7.22,7.22,0,0,1,3.42-.79,7.35,7.35,0,0,1,2.34.38,4.67,4.67,0,0,1,1.87,1.16V515.18h4v22.88h-4.06V535.6l.32.87a10.56,10.56,0,0,1-2.21,1.38A6.71,6.71,0,0,1,404.91,538.41Zm1.33-3.42a4.27,4.27,0,0,0,1.44-.22,3.12,3.12,0,0,0,1.1-.64,3.68,3.68,0,0,0,.83-1V530a2.83,2.83,0,0,0-.71-1.08,3.31,3.31,0,0,0-1.16-.7,4.54,4.54,0,0,0-1.5-.25,3.21,3.21,0,0,0-1.66.45,3.4,3.4,0,0,0-1.24,1.23,3.5,3.5,0,0,0-.46,1.8,3.61,3.61,0,0,0,.46,1.83,3.46,3.46,0,0,0,1.24,1.28A3.12,3.12,0,0,0,406.24,535Z"/><path class="cls-4" d="M423.18,538.41a7.07,7.07,0,0,1-3.21-.71,5.26,5.26,0,0,1-2.27-2.19,8.61,8.61,0,0,1,0-7.48,6.36,6.36,0,0,1,2.29-2.42,5.73,5.73,0,0,1,3-.86,5.3,5.3,0,0,1,2.86.63,7.09,7.09,0,0,1,1.61,1.37l-.17.5.37-1.86h3.77v12.67h-4.06v-2.75l.32.87s-.15.11-.35.33a5.68,5.68,0,0,1-.85.79,5.55,5.55,0,0,1-1.39.78A5.33,5.33,0,0,1,423.18,538.41Zm1.16-3.3a3.77,3.77,0,0,0,1.3-.22,3,3,0,0,0,1-.64,3.72,3.72,0,0,0,.75-1.06v-3.1a2.75,2.75,0,0,0-.69-1.09,3.21,3.21,0,0,0-1.1-.69,3.83,3.83,0,0,0-1.43-.25,3.06,3.06,0,0,0-1.61.45,3.29,3.29,0,0,0-1.17,1.23,3.85,3.85,0,0,0,0,3.63,3.49,3.49,0,0,0,1.23,1.27A3.17,3.17,0,0,0,424.34,535.11Z"/><path class="cls-4" d="M436.84,519.82h4.06v5.51H444v3.16H440.9v9.57h-4.06v-9.57h-2v-3.16h2Z"/><path class="cls-4" d="M453.31,538.41a8.15,8.15,0,0,1-3.93-.87,5.93,5.93,0,0,1-2.45-2.41,7.23,7.23,0,0,1-.84-3.53,6.29,6.29,0,0,1,1-3.45,7.15,7.15,0,0,1,2.64-2.45,7.51,7.51,0,0,1,3.69-.92,6.47,6.47,0,0,1,4.48,1.58,7.69,7.69,0,0,1,2.27,4.57l-9.86,3.13-.9-2.2,7.14-2.41-.84.38a3.08,3.08,0,0,0-.83-1.32,2.49,2.49,0,0,0-1.78-.57,2.94,2.94,0,0,0-1.58.42,2.71,2.71,0,0,0-1.05,1.19,4.28,4.28,0,0,0-.36,1.82,4.08,4.08,0,0,0,.44,2,2.93,2.93,0,0,0,1.18,1.21,3.54,3.54,0,0,0,1.69.4,3.81,3.81,0,0,0,1.29-.23,7.8,7.8,0,0,0,1.23-.61l1.8,3a10.66,10.66,0,0,1-2.19.92A7.58,7.58,0,0,1,453.31,538.41Z"/><path class="cls-4" d="M467.23,538.33a7.63,7.63,0,0,1-2.92-.56,6.45,6.45,0,0,1-2.27-1.53l1.68-2.24a6.6,6.6,0,0,0,1.73,1.21,3.33,3.33,0,0,0,2.32.26,1.52,1.52,0,0,0,.62-.32.76.76,0,0,0,.23-.57.94.94,0,0,0-.39-.78,3.45,3.45,0,0,0-1-.48l-1.31-.39a4.7,4.7,0,0,1-2.5-1.61,3.77,3.77,0,0,1-.77-2.3,4.13,4.13,0,0,1,.51-1.93,4,4,0,0,1,1.62-1.63,5.71,5.71,0,0,1,2.88-.65,9.89,9.89,0,0,1,2.7.32,6.6,6.6,0,0,1,2.09,1l-1.54,2.38a6.28,6.28,0,0,0-1.23-.74,3.63,3.63,0,0,0-1.26-.33,2,2,0,0,0-.89.12,1.37,1.37,0,0,0-.56.37.72.72,0,0,0-.2.49,1,1,0,0,0,.42.88,3.53,3.53,0,0,0,1.14.49c.47.11.92.25,1.36.4a5.56,5.56,0,0,1,1.6.79,3.57,3.57,0,0,1,1,1.17,3.48,3.48,0,0,1,.36,1.64,4.28,4.28,0,0,1-2.39,3.86A6.55,6.55,0,0,1,467.23,538.33Z"/><path class="cls-4" d="M226.65,620.9l9.62-22.19h.24l9.62,22.19h-4.87l-6.14-15.61,3-2.08-7.37,17.69Zm6.58-7.72h6.41l1.48,3.54h-9.2Z"/><path class="cls-4" d="M252.25,608.22l.32,2.26-.06-.2a5.37,5.37,0,0,1,1.89-1.93,5.69,5.69,0,0,1,3-.74,4.43,4.43,0,0,1,3,1.06,3.58,3.58,0,0,1,1.23,2.74v9.49h-4.06v-8a2.18,2.18,0,0,0-.45-1.35,1.73,1.73,0,0,0-1.41-.51,2.42,2.42,0,0,0-1.62.61,4,4,0,0,0-1.07,1.66,7.07,7.07,0,0,0-.38,2.4v5.17h-4.06V608.22Z"/><path class="cls-4" d="M271.13,621.24a7,7,0,0,1-3.2-.71,5.23,5.23,0,0,1-2.28-2.19,8.61,8.61,0,0,1,0-7.48,6.36,6.36,0,0,1,2.29-2.42,5.76,5.76,0,0,1,3-.86,5.26,5.26,0,0,1,2.85.63,6.88,6.88,0,0,1,1.61,1.37l-.17.5.38-1.86h3.77V620.9h-4.06v-2.76l.32.87s-.16.11-.35.33a6.4,6.4,0,0,1-.86.79,5.38,5.38,0,0,1-1.39.78A5.26,5.26,0,0,1,271.13,621.24Zm1.16-3.3a3.6,3.6,0,0,0,1.31-.22,2.89,2.89,0,0,0,1-.64,4,4,0,0,0,.76-1.06v-3.1a3,3,0,0,0-.7-1.09,3.21,3.21,0,0,0-1.1-.69,3.82,3.82,0,0,0-1.42-.25,3,3,0,0,0-1.61.45,3.32,3.32,0,0,0-1.18,1.23,3.92,3.92,0,0,0,0,3.63,3.49,3.49,0,0,0,1.23,1.27A3.19,3.19,0,0,0,272.29,617.94Z"/><path class="cls-4" d="M283.6,598h4.06V620.9H283.6Z"/><path class="cls-4" d="M296.25,621,290,608.22h4.55l4.79,10.7Zm-3.4,6,8.44-18.77H305L296.77,627Z"/><path class="cls-4" d="M308.51,602.65h4.06v5.51h3.08v3.17h-3.08v9.57h-4.06v-9.57h-2v-3.17h2Z"/><path class="cls-4" d="M318.66,603.73a1.83,1.83,0,0,1,.71-1.48,2.36,2.36,0,0,1,1.53-.58,2.22,2.22,0,0,1,1.49.58,1.86,1.86,0,0,1,.68,1.48,1.82,1.82,0,0,1-.68,1.46,2.26,2.26,0,0,1-1.49.57,2.4,2.4,0,0,1-1.53-.57A1.79,1.79,0,0,1,318.66,603.73Zm.09,4.49h4.06V620.9h-4.06Z"/><path class="cls-4" d="M337.75,619.76a6.65,6.65,0,0,1-2.11,1.08,8,8,0,0,1-2.48.4,8.42,8.42,0,0,1-3.78-.79,5.92,5.92,0,0,1-2.5-2.3,6.92,6.92,0,0,1-.88-3.61,6.55,6.55,0,0,1,1-3.61,6.3,6.3,0,0,1,2.51-2.27,7.16,7.16,0,0,1,3.26-.79,8.57,8.57,0,0,1,3,.47,7.07,7.07,0,0,1,2.16,1.22l-2,2.61a5.7,5.7,0,0,0-1.12-.66,3.9,3.9,0,0,0-1.66-.33,2.82,2.82,0,0,0-1.54.44,3.05,3.05,0,0,0-1.1,1.18,3.66,3.66,0,0,0-.41,1.74,3.46,3.46,0,0,0,.44,1.71,3.18,3.18,0,0,0,1.2,1.24,3.52,3.52,0,0,0,1.81.45,3.69,3.69,0,0,0,1.23-.19,3.1,3.1,0,0,0,1-.54Z"/><path class="cls-4" d="M345,621.16a7.78,7.78,0,0,1-2.92-.55,6.43,6.43,0,0,1-2.28-1.54l1.69-2.24a6.57,6.57,0,0,0,1.72,1.21,3.54,3.54,0,0,0,1.44.36,3.38,3.38,0,0,0,.88-.1,1.44,1.44,0,0,0,.63-.32.74.74,0,0,0,.23-.56.94.94,0,0,0-.39-.79,3.72,3.72,0,0,0-1-.48l-1.31-.39a4.68,4.68,0,0,1-2.51-1.61,3.83,3.83,0,0,1-.77-2.3,4.15,4.15,0,0,1,2.13-3.56,5.75,5.75,0,0,1,2.89-.65,10,10,0,0,1,2.7.32,6.55,6.55,0,0,1,2.08,1l-1.53,2.38a6.28,6.28,0,0,0-1.23-.74,3.68,3.68,0,0,0-1.27-.33,2,2,0,0,0-.88.12,1.48,1.48,0,0,0-.57.37.78.78,0,0,0-.2.5,1,1,0,0,0,.42.87,3.5,3.5,0,0,0,1.15.49c.46.12.91.25,1.36.41a5.13,5.13,0,0,1,1.59.78,3.46,3.46,0,0,1,1,1.17,3.37,3.37,0,0,1,.37,1.64,4.31,4.31,0,0,1-2.4,3.86A6.54,6.54,0,0,1,345,621.16Z"/></g></svg>