<svg xmlns="http://www.w3.org/2000/svg" viewBox="0 0 950 950"><defs><style>.cls-1{fill:#f14753;}.cls-2{fill:#8ba9e7;}.cls-3{fill:none;stroke:#1a3a8a;stroke-linecap:round;stroke-linejoin:round;stroke-width:5px;}</style></defs><g id="Layer_3" data-name="Layer 3"><path class="cls-1" d="M401,382.21l14.82,17.85s4.81-11.52,3.7-17.85S418,373,413.09,374,406.94,383.07,401,382.21Z"/><path class="cls-1" d="M307.75,282.78l18.5,19.56-5.76-21.6S312,283.89,307.75,282.78Z"/><path class="cls-1" d="M639.13,866.45c1.7,6.63,8.85,7.83,24.51,13.61a42.29,42.29,0,0,0,5.93,1.77,35.62,35.62,0,0,0-4.74-15.55c-9-16.34-32.68-52.94-41.7-57a35.93,35.93,0,0,0-3.8-1.48c6.38,9.6,12.29,19.31,15.88,25.82C644.23,849.94,637.43,859.81,639.13,866.45Z"/><path class="cls-1" d="M539.21,535.21c1,3.41-.34,9,4.09,13.62s8.51,19.4,6.13,26.72-3.24,8.34-1.71,25.19c.95,10.39-1.92,23.23-4.27,31.56l-2.71,8.61s5.2,11.14,5,19.42-2.62,24.25-5,31.48-5.14,20-5,25.51c-.15,9.85,1.64,18.81,4.28,23.85,4.19,8,7.55,23.32,8.92,31.49s9.19,12.77,19.74,6.81c1-.55,1.9-1.05,2.8-1.52-.6-1.49-1.21-2.89-1.84-4.1-4.19-8-6.24-25.87-1.81-41.53s8.68-30,7.49-40a75.58,75.58,0,0,0-4.94-18.72s8.51-23.32,7-40.17-.68-17.88,1.7-25.2-1.7-22.12-6.12-26.72-3.07-10.21-4.09-13.62-4.26-6.81-4.26-6.81a129.68,129.68,0,0,1,14.29-9.19,23.72,23.72,0,0,1-3.39-6.12c-4.26-11.41,2.89-25.71-6.13-31.15S535,528.4,535,528.4,538.19,531.81,539.21,535.21Z"/><path class="cls-1" d="M749.08,277.17c2.56,7.46,14.63,13.2,26,17.26-4-20.27-7.48-51.36-13.26-58.45-10.55-12.94-30.54-27.75-30.54-27.75l9.37,29.18C744.05,253.3,746.87,270.69,749.08,277.17Z"/><path class="cls-1" d="M844.06,367.89c-2.91-10.74-5.65-27.89-12.42-36.93-4.64-6.19-28.22-25.28-28.22-25.28l9.5,24.14c.52,1.75,1,3.54,1.53,5.39,4.93,18.22.85,33.36-4.09,41.7s-4.59,22.47-9.7,25.88-9.36,1.36-16.68-.51-12.94,6-28.09,3.91-27.57,3.41-38.46,9.19-33.54,22.3-43.58,35.07S671,477.68,672,483.81s3.23,18.89,4.94,32.17,19.57,16,26.89,30.47-7.15,20.93-16,18.21-9.53-1.53-17.19-1.36-22.13-10.39-33.7-13.62-14.95,6.73-30,10.21c-17.41,4.05-26.18-6.36-27.22-6.17-.12,5.69,27.1,36.87,42.37,38.94,27.83,3.76,32.85-13.53,44.42-10.3s26,13.79,33.7,13.62,8.34-1.36,17.2,1.36,24.51-8.17,17.19-22.64-27-17.44-28.71-30.71-3.29-21.37-4.31-27.5-8.17-20.6,1.87-33.36,32.68-29.28,43.57-35.07,23.32-11.23,38.47-9.19,20.77-5.78,28.09-3.91,11.57,3.91,16.68.51S835,417.94,840,409.6,849,386.11,844.06,367.89Z"/><path class="cls-1" d="M543.34,245.4c-1.45-3.33-3-7.88-2.42-11.21,1-5.87,5.71-25.19,3.16-34.13s-14.4-11.57-17.72-21.27a11.93,11.93,0,0,0-1.21-2.54h0l-4.66-12.44-27-23.18L511.41,171a28.61,28.61,0,0,1,2.19,5.2c2.55,8.94-1.28,19.41-2.3,25.28s4.59,15.58,4.59,15.58.47,35.61,6.3,46.46C527.46,273.37,537.22,256.75,543.34,245.4Z"/><path class="cls-1" d="M369.85,337.09a38,38,0,0,1-9.57-4.56l-5.14-3.8s-6.74-10.46-11.08-12.29-12.88.81-16.52,0L356,347.93a2.93,2.93,0,0,0,1,1.11l0,0h0a3.29,3.29,0,0,0,1.86.44c5.61-.17,11.74-3.4,17.53,3.58,4.82,5.8,11.29,11.6,18.52,15-1.73-8.43-2.92-18.25-4.39-22.28C388.06,338.79,378.87,339.81,369.85,337.09Z"/><path class="cls-1" d="M471.48,537.63c-.26-.68-.52-1.33-.78-2v0h0c-4.74-11.48-11-17.5-17.94-22.88-3.92-3-15.28-10.77-26.54-19,0,0-21.92-13.34-25.52-21l15.13,35.12,59.78,44.17-4.36-14.61Z"/><path class="cls-1" d="M798.11,912.91c-.77-.34-27-31.08-27-31.08s0,9.43-3.53,16.5-4.91,10-4.17,14.64,2.5,14.54,2.5,14.54C767,938,754.15,940.67,744.15,942s-20.77,11.41-28.43,9.53-5.61-8.68-9.36-15.15-16.68-5.27-22-7.32-8.85-8.68-16.34-10.55-10.89,6.3-14.12,10.73-11.58,6.29-21.28,1.53-15.49-17.88-20.26-24.17S595.89,901.34,592,896.4s-8-12.08-14.64-14.46-14.64-3.07-24.17-12.6-16.68-14.13-21.28-11.74c-2.68,1.39-2.23,8.06-3.39,14.69,0,0-.82,7.49-4.29,10.16a19.56,19.56,0,0,1-6,3.38l22.74,28.32a16.14,16.14,0,0,0,1.5,1.87h0c2.51,2.62,5.53,3.45,9,1.14,10-6.64,5.45-24.51,10-26.89s11.75,2.21,21.28,11.74,17.53,10.21,24.17,12.6,10.72,9.53,14.64,14.46S637.26,933,642,939.3s10.55,19.4,20.26,24.17,18,2.89,21.27-1.53,6.64-12.6,14.13-10.73,11.06,8.51,16.34,10.56,18.21.85,22,7.31,1.7,13.28,9.36,15.15,18.38-8.17,28.43-9.53,23-4.08,21.78-14.64-5.29-17.53.08-26.21S802.7,915,798.11,912.91Z"/><path class="cls-2" d="M569.34,514.62c9,5.44,1.87,19.74,6.13,31.15s16.68,18.38,31.49,14.12,18.38-13.44,30-10.21,26,13.79,33.7,13.62,8.34-1.36,17.19,1.36,23.32-3.75,16-18.21S678.62,529.26,676.92,516s-3.92-26-4.94-32.17-8.17-20.6,1.87-33.36,32.68-29.28,43.58-35.07c3.22-1.71,6.58-3.38,10.1-4.85L447,212.49s-33.19-18.89-43.41-51.06c-3.46-10.9.41-22.51,7-33.09-6,.7-11.77,1.52-15,4.66-4.42,4.26-9.19,18-13.95,21.45s-18.05,12.42-20.77,16.85-3.91,15-7.32,15.49-28.43.17-31.66,3.06-7.49,15.49-7.66,32,2.89,28.43,1,32.85S302.28,267,302.28,267s3.23,15.83,6.64,16.68,11.57-2.9,11.57-2.9,5.79,14.13,5.79,20.6-2.56,15.66,3.06,15.49,11.74-3.4,17.53,3.57,14,14,23,16.69,18.21,1.7,20.77,8.68,4.25,31.32,9.36,35.74,8.17-6.13,11.66-8,7.91,1,7.91,7.15-2.21,17.36-6.12,21.45a16.46,16.46,0,0,0-4.62,9.66c40.26,27.54,97.8,67.33,107.59,76.46C531.72,502.53,535,528.4,535,528.4S560.32,509.17,569.34,514.62Z"/><path class="cls-3" d="M522.19,263.55c-5.83-10.85-6.3-46.46-6.3-46.46s-5.61-9.71-4.59-15.58,4.85-16.34,2.3-25.28-13.54-20.42-16.86-30.12-16.25-9.88-22.38-10.22a39.94,39.94,0,0,0-11.23,1s-17.36-12.08-25.36-12.76S425,126.36,417,127.55s-17,1.19-21.45,5.45-9.19,18-13.95,21.45-18.05,12.42-20.77,16.85-3.92,15-7.32,15.49-28.42.17-31.66,3.06-7.49,15.49-7.66,32,2.9,28.43,1,32.85S302.28,267,302.28,267s3.23,15.83,6.63,16.68,11.58-2.9,11.58-2.9,5.79,14.13,5.79,20.6-2.56,15.66,3.06,15.49,11.75-3.4,17.53,3.57,14,14,23,16.69,18.21,1.7,20.77,8.68,4.25,31.32,9.36,35.74,8.17-6.13,11.66-8,7.91,1,7.91,7.15-2.21,17.36-6.12,21.45-5.62,9.19-4.6,18.72,0,16.85-6.47,25.7-7.66,15.83-2.89,24.51,45.1,35.41,53.27,41.7S468.06,526.19,473,542s2.21,21.28,14,31.15S509.09,589,512.83,597,515,616.74,515,616.74s9.19,3.24,8.85,12.94-5.95,17.36-7,26.38-1.36,14.3-4.42,19.58-7.66,7.32-7.66,15.15.34,14.47-3.06,18.89-7.83,6.47-8.34,17.87,2.21,31.15.85,40.51-4.6,21.62-3.41,27.07,4.94,14.47,4.94,14.47-2.9,15.31-1,20.93S503,845,504.32,858.45s7.49,32.68,17.53,26,5.45-24.51,10-26.89,11.75,2.21,21.28,11.74,17.53,10.21,24.17,12.6,10.72,9.53,14.64,14.46,15.66,3.92,20.42,10.22S623,926,632.66,930.79s18,2.89,21.28-1.53,6.63-12.6,14.12-10.73,11.07,8.51,16.34,10.56,18.22.85,22,7.31,1.7,13.28,9.36,15.15,18.39-8.17,28.43-9.53,23-4.08,21.79-14.64-5.3-17.53.07-26.21,7.08-18.89,2.48-20.94-7.66-2-12.26,6.47-7.83,15.66-26.38,4.77S704.32,876.83,692.74,878s-13.44,7.83-29.1,2-22.81-7-24.51-13.61,5.1-16.51-3.92-32.85-32.68-52.94-41.7-57-14.3-3.06-24.85,2.9-18.38,1.36-19.75-6.81-4.72-23.49-8.91-31.49-6.23-25.87-1.81-41.53,8.68-30,7.49-40a75.74,75.74,0,0,0-4.94-18.73s8.52-23.31,7-40.17-.68-17.87,1.71-25.19-1.71-22.12-6.13-26.72-3.07-10.21-4.09-13.62S535,528.4,535,528.4s25.36-19.23,34.38-13.78,1.87,19.74,6.13,31.15,16.68,18.38,31.49,14.12,18.38-13.44,29.95-10.21S663,563.47,670.62,563.3s8.34-1.36,17.19,1.36,23.32-3.75,16-18.21-25.19-17.19-26.9-30.47-3.91-26-4.93-32.17-8.17-20.6,1.87-33.36,32.68-29.28,43.58-35.07,23.31-11.23,38.46-9.19,20.77-5.79,28.09-3.91,11.57,3.91,16.68.51,4.77-17.53,9.7-25.88,9-23.48,4.09-41.7S804.06,303.38,794,300.32s-40.68-10.72-44.93-23.15S738.36,212.15,730,207s-21.28.68-28.59-5.1-13.28-15.32-23-16-16.85-.17-25.88-4.09-12.25-4.42-18.72,7-5.79,33.36-16.68,34.89-31.32-11.23-38.3-8.85-5.78,17.7-14.64,18.39-12.59-1.71-16.17,3.57S529.29,276.76,522.19,263.55Z"/><path class="cls-2" d="M814.45,335.21C809.51,317,804.06,303.38,794,300.32s-40.68-10.72-44.94-23.15S738.36,212.15,730,207s-21.28.68-28.59-5.1-13.28-15.32-23-16-16.85-.17-25.88-4.09-12.25-4.42-18.72,7c-6.06,10.68-5.84,30.61-14.74,34.36a40.57,40.57,0,0,1,29.89,5c11.44,6.91,109.59,77.19,167.47,118.75A63.6,63.6,0,0,0,814.45,335.21Z"/><path class="cls-2" d="M515.23,668.42c5.73-1.92,11.92-3.36,16-2.48,4.81,1,9.68,5.32,13.31,9.27,1.15-5.86,1.69-11.13,1.16-15.57a75.74,75.74,0,0,0-4.94-18.73s8.52-23.31,7-40.17c-.3-3.33-.51-6-.63-8.3l-.3-.29s-7.66,17.11-15.32,15.06c-4.23-1.12-14.28-8.94-22.43-15.72a22.91,22.91,0,0,1,3.79,5.51c3.74,8,2.21,19.74,2.21,19.74s9.19,3.24,8.85,12.94-5.95,17.36-7,26.38C516.34,661.15,516,665,515.23,668.42Z"/><path class="cls-2" d="M706.36,936.4c3.75,6.47,1.7,13.28,9.36,15.15s18.39-8.17,28.43-9.53,23-4.08,21.79-14.64-5.3-17.53.07-26.21,7.07-18.89,2.48-20.94-7.66-2-12.26,6.47-7.83,15.66-26.38,4.77S704.32,876.83,692.74,878s-13.44,7.83-29.1,2-22.81-7-24.51-13.61c-1.07-4.15,1.19-9.56.84-17-22.24-14.08-50.68-31.94-70.63-43.91-14.6-8.76-42.55-25.87-57.19-47.32-7.84-11.48-11.67-30.09-13.55-44.9-2.51,2.85-4.82,6.24-5.17,14.26-.51,11.41,2.21,31.15.85,40.51s-4.6,21.62-3.41,27.07,4.94,14.47,4.94,14.47-2.89,15.31-1,20.93S503,845,504.32,858.45s7.49,32.68,17.53,26,5.45-24.51,10-26.89,11.75,2.21,21.28,11.74,17.53,10.21,24.17,12.6,10.72,9.53,14.64,14.46,15.66,3.92,20.42,10.22S623,926,632.66,930.79s18,2.89,21.28-1.53,6.63-12.6,14.12-10.73,11.07,8.51,16.34,10.55S702.62,929.94,706.36,936.4Z"/></g><g id="Layer_2" data-name="Layer 2"><path class="cls-3" d="M522.19,263.55c-5.83-10.85-6.3-46.46-6.3-46.46s-5.61-9.71-4.59-15.58,4.85-16.34,2.3-25.28-13.54-20.42-16.86-30.12-16.25-9.88-22.38-10.22a39.94,39.94,0,0,0-11.23,1s-17.36-12.08-25.36-12.76S425,126.36,417,127.55s-17,1.19-21.45,5.45-9.19,18-13.95,21.45-18.05,12.42-20.77,16.85-3.92,15-7.32,15.49-28.42.17-31.66,3.06-7.49,15.49-7.66,32,2.9,28.43,1,32.85S302.28,267,302.28,267s3.23,15.83,6.63,16.68,11.58-2.9,11.58-2.9,5.79,14.13,5.79,20.6-2.56,15.66,3.06,15.49,11.75-3.4,17.53,3.57,14,14,23,16.69,18.21,1.7,20.77,8.68,4.25,31.32,9.36,35.74,8.17-6.13,11.66-8,7.91,1,7.91,7.15-2.21,17.36-6.12,21.45-5.62,9.19-4.6,18.72,0,16.85-6.47,25.7-7.66,15.83-2.89,24.51,45.1,35.41,53.27,41.7S468.06,526.19,473,542s2.21,21.28,14,31.15S509.09,589,512.83,597,515,616.74,515,616.74s9.19,3.24,8.85,12.94-5.95,17.36-7,26.38-1.36,14.3-4.42,19.58-7.66,7.32-7.66,15.15.34,14.47-3.06,18.89-7.83,6.47-8.34,17.87,2.21,31.15.85,40.51-4.6,21.62-3.41,27.07,4.94,14.47,4.94,14.47-2.9,15.31-1,20.93S503,845,504.32,858.45s7.49,32.68,17.53,26,5.45-24.51,10-26.89,11.75,2.21,21.28,11.74,17.53,10.21,24.17,12.6,10.72,9.53,14.64,14.46,15.66,3.92,20.42,10.22S623,926,632.66,930.79s18,2.89,21.28-1.53,6.63-12.6,14.12-10.73,11.07,8.51,16.34,10.56,18.22.85,22,7.31,1.7,13.28,9.36,15.15,18.39-8.17,28.43-9.53,23-4.08,21.79-14.64-5.3-17.53.07-26.21,7.08-18.89,2.48-20.94-7.66-2-12.26,6.47-7.83,15.66-26.38,4.77S704.32,876.83,692.74,878s-13.44,7.83-29.1,2-22.81-7-24.51-13.61,5.1-16.51-3.92-32.85-32.68-52.94-41.7-57-14.3-3.06-24.85,2.9-18.38,1.36-19.75-6.81-4.72-23.49-8.91-31.49-6.23-25.87-1.81-41.53,8.68-30,7.49-40a75.74,75.74,0,0,0-4.94-18.73s8.52-23.31,7-40.17-.68-17.87,1.71-25.19-1.71-22.12-6.13-26.72-3.07-10.21-4.09-13.62S535,528.4,535,528.4s25.36-19.23,34.38-13.78,1.87,19.74,6.13,31.15,16.68,18.38,31.49,14.12,18.38-13.44,29.95-10.21S663,563.47,670.62,563.3s8.34-1.36,17.19,1.36,23.32-3.75,16-18.21-25.19-17.19-26.9-30.47-3.91-26-4.93-32.17-8.17-20.6,1.87-33.36,32.68-29.28,43.58-35.07,23.31-11.23,38.46-9.19,20.77-5.79,28.09-3.91,11.57,3.91,16.68.51,4.77-17.53,9.7-25.88,9-23.48,4.09-41.7S804.06,303.38,794,300.32s-40.68-10.72-44.93-23.15S738.36,212.15,730,207s-21.28.68-28.59-5.1-13.28-15.32-23-16-16.85-.17-25.88-4.09-12.25-4.42-18.72,7-5.79,33.36-16.68,34.89-31.32-11.23-38.3-8.85-5.78,17.7-14.64,18.39-12.59-1.71-16.17,3.57S529.29,276.76,522.19,263.55Z"/></g></svg>