<svg xmlns="http://www.w3.org/2000/svg" viewBox="0 0 588.01 922.16"><defs><style>.cls-1{fill:#f14753;}.cls-2{fill:#8ba9e7;}.cls-3{fill:none;stroke:#1a3a8a;stroke-linecap:round;stroke-linejoin:round;stroke-width:5px;}</style></defs><g id="Layer_3" data-name="Layer 3"><path class="cls-1" d="M125.73,290.46l14.82,17.85s4.81-11.52,3.69-17.85-1.49-9.26-6.42-8.22S131.68,291.32,125.73,290.46Z"/><path class="cls-1" d="M32.48,191,51,210.59,45.22,189S36.76,192.14,32.48,191Z"/><path class="cls-1" d="M363.86,774.7c1.7,6.63,8.85,7.83,24.51,13.61a42.69,42.69,0,0,0,5.93,1.77,35.62,35.62,0,0,0-4.74-15.55c-9-16.34-32.68-52.94-41.7-57a35.11,35.11,0,0,0-3.8-1.48c6.38,9.6,12.3,19.31,15.89,25.82C369,758.19,362.16,768.06,363.86,774.7Z"/><path class="cls-1" d="M264,443.46c1,3.41-.34,9,4.08,13.62s8.51,19.4,6.13,26.72-3.23,8.34-1.7,25.19c.94,10.39-1.93,23.23-4.27,31.56l-2.71,8.61s5.19,11.14,5,19.42-2.62,24.25-5,31.48-5.15,20-5,25.51c-.14,9.85,1.64,18.81,4.28,23.85,4.2,8,7.56,23.32,8.92,31.49s9.19,12.77,19.74,6.81c1-.55,1.9-1.05,2.8-1.52a42,42,0,0,0-1.84-4.1c-4.19-8-6.23-25.87-1.81-41.53s8.68-30,7.49-40a75.83,75.83,0,0,0-4.93-18.72s8.51-23.32,7-40.17-.68-17.88,1.71-25.2-1.71-22.12-6.13-26.72-3.07-10.21-4.09-13.62-4.25-6.81-4.25-6.81a129,129,0,0,1,14.28-9.19A23.72,23.72,0,0,1,300.2,454c-4.25-11.41,2.9-25.71-6.13-31.15s-34.38,13.78-34.38,13.78S262.93,440.06,264,443.46Z"/><path class="cls-1" d="M473.82,185.42c2.55,7.46,14.62,13.2,26,17.26-4-20.27-7.48-51.36-13.27-58.45-10.55-12.94-30.53-27.75-30.53-27.75l9.36,29.18C468.78,161.55,471.6,178.94,473.82,185.42Z"/><path class="cls-1" d="M568.8,276.14c-2.92-10.74-5.65-27.89-12.43-36.93-4.63-6.19-28.22-25.28-28.22-25.28l9.51,24.14c.51,1.75,1,3.54,1.52,5.39,4.94,18.22.85,33.36-4.08,41.7s-4.6,22.47-9.71,25.88-9.36,1.36-16.68-.51-12.93,6-28.08,3.91-27.58,3.41-38.47,9.19-33.53,22.3-43.58,35.07-2.89,27.23-1.87,33.36S400,411,401.65,424.23s19.57,16,26.89,30.47-7.15,20.93-16,18.21-9.53-1.53-17.19-1.36-22.13-10.39-33.7-13.62-14.95,6.73-30,10.21c-17.4,4.05-26.18-6.36-27.21-6.17-.13,5.69,27.09,36.87,42.36,38.94,27.83,3.76,32.85-13.53,44.43-10.3s26,13.79,33.7,13.62,8.34-1.36,17.19,1.36,24.51-8.17,17.19-22.64-27-17.44-28.71-30.71-3.29-21.37-4.31-27.5-8.17-20.6,1.87-33.36,32.68-29.28,43.58-35.07,23.32-11.23,38.46-9.19,20.77-5.78,28.09-3.91,11.57,3.91,16.68.51,4.77-17.53,9.7-25.87S573.73,294.36,568.8,276.14Z"/><path class="cls-1" d="M268.08,153.65c-1.46-3.33-3-7.88-2.43-11.21,1-5.87,5.71-25.19,3.16-34.13S254.41,96.74,251.1,87a12,12,0,0,0-1.22-2.54h0l-4.67-12.44-27-23.18,17.88,30.4a27.92,27.92,0,0,1,2.19,5.2c2.55,8.94-1.28,19.41-2.3,25.28s4.6,15.58,4.6,15.58.47,35.61,6.3,46.46C252.2,181.62,262,165,268.08,153.65Z"/><path class="cls-1" d="M94.58,245.34A38,38,0,0,1,85,240.78L79.88,237s-6.74-10.46-11.08-12.29-12.88.81-16.53,0l28.51,31.49a2.91,2.91,0,0,0,1,1.11l0,0h0a3.29,3.29,0,0,0,1.86.44c5.62-.17,11.75-3.4,17.53,3.58,4.82,5.8,11.29,11.6,18.52,15-1.72-8.43-2.91-18.25-4.39-22.28C112.8,247,103.61,248.06,94.58,245.34Z"/><path class="cls-1" d="M196.21,445.88c-.25-.68-.52-1.33-.78-2v0h0c-4.74-11.48-11-17.5-17.93-22.88-3.93-3-15.28-10.77-26.55-19,0,0-21.92-13.34-25.52-21l15.14,35.12,59.77,44.17L196,445.7Z"/><path class="cls-1" d="M522.84,821.16c-.77-.34-27-31.08-27-31.08s0,9.43-3.53,16.5-4.91,10-4.17,14.64,2.5,14.54,2.5,14.54c1.07,10.45-11.8,13.16-21.8,14.51s-20.76,11.41-28.42,9.53-5.62-8.68-9.36-15.15-16.69-5.27-22-7.32-8.85-8.68-16.34-10.55-10.9,6.3-14.13,10.73S367.1,843.8,357.39,839s-15.49-17.88-20.25-24.17-16.51-5.28-20.43-10.22-8-12.08-14.64-14.46-14.63-3.07-24.17-12.6-16.68-14.13-21.27-11.74c-2.69,1.39-2.24,8.06-3.4,14.69,0,0-.82,7.49-4.29,10.16a19.59,19.59,0,0,1-6,3.38l22.73,28.32a16.14,16.14,0,0,0,1.5,1.87h0c2.52,2.62,5.54,3.45,9,1.14,10-6.64,5.45-24.51,10-26.89s11.75,2.21,21.28,11.74,17.53,10.21,24.17,12.6,10.72,9.53,14.64,14.46,15.66,3.92,20.42,10.22S377.31,867,387,871.72s18,2.89,21.28-1.53,6.64-12.6,14.12-10.73S433.48,868,438.75,870s18.22.85,22,7.31,1.7,13.28,9.36,15.15,18.39-8.17,28.43-9.53,23-4.08,21.79-14.64-5.3-17.53.07-26.21S527.44,823.21,522.84,821.16Z"/><path class="cls-2" d="M294.07,422.87c9,5.44,1.88,19.74,6.13,31.15s16.68,18.38,31.49,14.12,18.38-13.44,30-10.21,26,13.79,33.7,13.62,8.34-1.36,17.19,1.36,23.32-3.75,16-18.21-25.19-17.19-26.89-30.47-3.92-26-4.94-32.17-8.17-20.6,1.87-33.36,32.69-29.28,43.58-35.07c3.22-1.71,6.58-3.38,10.1-4.85l-280.57-198s-33.19-18.89-43.4-51.06c-3.46-10.9.41-22.51,7-33.09-6,.7-11.77,1.52-15,4.66-4.43,4.26-9.19,18-14,21.45s-18,12.42-20.77,16.85-3.91,15-7.32,15.49-28.42.17-31.66,3.06-7.48,15.49-7.65,32,2.89,28.43,1,32.85S27,175.21,27,175.21s3.23,15.83,6.64,16.68S45.22,189,45.22,189,51,203.12,51,209.59s-2.55,15.66,3.06,15.49,11.75-3.4,17.54,3.57,14,14,23,16.69S112.8,247,115.35,254s4.26,31.32,9.36,35.74,8.17-6.13,11.66-8,7.92,1,7.92,7.15-2.22,17.36-6.13,21.45a16.58,16.58,0,0,0-4.62,9.66c40.27,27.54,97.81,67.33,107.6,76.46,15.32,14.3,18.55,40.17,18.55,40.17S285.05,417.42,294.07,422.87Z"/><path class="cls-3" d="M246.93,171.8c-5.83-10.85-6.3-46.46-6.3-46.46s-5.62-9.71-4.6-15.58,4.85-16.34,2.3-25.28S224.8,64.06,221.48,54.36s-16.26-9.88-22.38-10.22a40,40,0,0,0-11.24,1S170.5,33.08,162.5,32.4s-12.77,2.21-20.77,3.4-17,1.19-21.44,5.45-9.19,18-14,21.45-18,12.42-20.77,16.85-3.91,15-7.32,15.49-28.42.17-31.66,3.06-7.48,15.49-7.65,32,2.89,28.43,1,32.85S27,175.21,27,175.21s3.23,15.83,6.64,16.68S45.22,189,45.22,189,51,203.12,51,209.59s-2.55,15.66,3.06,15.49,11.75-3.4,17.54,3.57,14,14,23,16.69S112.8,247,115.35,254s4.26,31.32,9.36,35.74,8.17-6.13,11.66-8,7.92,1,7.92,7.15-2.22,17.36-6.13,21.45-5.62,9.19-4.6,18.72,0,16.85-6.46,25.7-7.66,15.83-2.9,24.51,45.11,35.41,53.28,41.7,15.32,13.45,20.25,29.28,2.22,21.28,14,31.15,22.13,15.83,25.87,23.83S239.78,525,239.78,525s9.19,3.24,8.85,12.94-6,17.36-7,26.38-1.36,14.3-4.43,19.58-7.66,7.32-7.66,15.15.34,14.47-3.06,18.89-7.83,6.47-8.34,17.87,2.21,31.15.85,40.51-4.6,21.62-3.4,27.07,4.93,14.47,4.93,14.47-2.89,15.31-1,20.93,8.17,14.47,9.53,27.92,7.49,32.68,17.53,26,5.45-24.51,10-26.89,11.74,2.21,21.27,11.74,17.54,10.21,24.17,12.6,10.73,9.53,14.64,14.46,15.66,3.92,20.43,10.22,10.55,19.4,20.25,24.17,18.05,2.89,21.28-1.53,6.64-12.6,14.13-10.73,11.06,8.51,16.34,10.56,18.21.85,22,7.31,1.7,13.28,9.36,15.15,18.38-8.17,28.42-9.53,23-4.08,21.79-14.64-5.29-17.53.08-26.21,7.07-18.89,2.47-20.94-7.66-2-12.25,6.47-7.83,15.66-26.39,4.77-25.53-14.64-37.1-13.45-13.45,7.83-29.11,2-22.81-7-24.51-13.61S369,758.19,360,741.85s-32.68-52.94-41.71-57-14.29-3.06-24.85,2.9-18.38,1.36-19.74-6.81-4.72-23.49-8.92-31.49-6.23-25.87-1.8-41.53,8.68-30,7.48-40a76,76,0,0,0-4.93-18.73s8.51-23.31,7-40.17-.68-17.87,1.7-25.19-1.7-22.12-6.13-26.72S265,446.87,264,443.46s-4.26-6.81-4.26-6.81,25.36-19.23,34.38-13.78S296,442.61,300.2,454s16.68,18.38,31.49,14.12,18.38-13.44,30-10.21,26,13.79,33.7,13.62,8.34-1.36,17.19,1.36,23.32-3.75,16-18.21-25.19-17.19-26.89-30.47-3.92-26-4.94-32.17-8.17-20.6,1.87-33.36,32.69-29.28,43.58-35.07,23.32-11.23,38.47-9.19,20.76-5.79,28.08-3.91,11.58,3.91,16.68.51,4.77-17.53,9.71-25.88,9-23.48,4.08-41.7-10.38-31.83-20.43-34.89-40.68-10.72-44.93-23.15-10.72-65-19.07-70.13-21.27.68-28.59-5.1-13.28-15.32-23-16S386.33,94,377.31,90.1s-12.26-4.42-18.73,7S352.8,130.44,341.9,132s-31.32-11.23-38.29-8.85-5.79,17.7-14.64,18.39-12.6-1.71-16.17,3.57S254,185,246.93,171.8Z"/><path class="cls-2" d="M539.18,243.46c-4.94-18.21-10.38-31.83-20.43-34.89s-40.68-10.72-44.93-23.15-10.72-65-19.07-70.13-21.27.68-28.59-5.1-13.28-15.32-23-16S386.33,94,377.31,90.1s-12.26-4.42-18.73,7c-6.05,10.68-5.84,30.61-14.73,34.36a40.55,40.55,0,0,1,29.88,5c11.44,6.91,109.6,77.19,167.48,118.75A64.51,64.51,0,0,0,539.18,243.46Z"/><path class="cls-2" d="M240,576.67c5.74-1.92,11.92-3.36,16-2.48,4.8,1,9.68,5.32,13.3,9.27,1.15-5.86,1.69-11.13,1.16-15.57a76,76,0,0,0-4.93-18.73s8.51-23.31,7-40.17c-.31-3.33-.51-6-.64-8.3l-.3-.29s-7.66,17.11-15.32,15.06c-4.23-1.12-14.27-8.94-22.43-15.72a22.63,22.63,0,0,1,3.79,5.51c3.75,8,2.22,19.74,2.22,19.74s9.19,3.24,8.85,12.94-6,17.36-7,26.38C241.07,569.4,240.71,573.29,240,576.67Z"/><path class="cls-2" d="M431.1,844.65c3.74,6.47,1.7,13.28,9.36,15.15s18.38-8.17,28.42-9.53,23-4.08,21.79-14.64-5.29-17.53.08-26.21,7.07-18.89,2.47-20.94-7.66-2-12.25,6.47-7.83,15.66-26.39,4.77-25.53-14.64-37.1-13.45-13.45,7.83-29.11,2-22.81-7-24.51-13.61c-1.06-4.15,1.2-9.56.84-17-22.23-14.08-50.68-31.94-70.63-43.91-14.6-8.76-42.55-25.87-57.19-47.32-7.84-11.48-11.67-30.09-13.54-44.9-2.52,2.85-4.82,6.24-5.18,14.26-.51,11.41,2.21,31.15.85,40.51s-4.6,21.62-3.4,27.07,4.93,14.47,4.93,14.47-2.89,15.31-1,20.93,8.17,14.47,9.53,27.92,7.49,32.68,17.53,26,5.45-24.51,10-26.89,11.74,2.21,21.27,11.74,17.54,10.21,24.17,12.6,10.73,9.53,14.64,14.46,15.66,3.92,20.43,10.22,10.55,19.4,20.25,24.17,18.05,2.89,21.28-1.53,6.64-12.6,14.13-10.73,11.06,8.51,16.34,10.55S427.35,838.19,431.1,844.65Z"/></g><g id="Layer_2" data-name="Layer 2"><path class="cls-3" d="M246.93,171.8c-5.83-10.85-6.3-46.46-6.3-46.46s-5.62-9.71-4.6-15.58,4.85-16.34,2.3-25.28S224.8,64.06,221.48,54.36s-16.26-9.88-22.38-10.22a40,40,0,0,0-11.24,1S170.5,33.08,162.5,32.4s-12.77,2.21-20.77,3.4-17,1.19-21.44,5.45-9.19,18-14,21.45-18,12.42-20.77,16.85-3.91,15-7.32,15.49-28.42.17-31.66,3.06-7.48,15.49-7.65,32,2.89,28.43,1,32.85S27,175.21,27,175.21s3.23,15.83,6.64,16.68S45.22,189,45.22,189,51,203.12,51,209.59s-2.55,15.66,3.06,15.49,11.75-3.4,17.54,3.57,14,14,23,16.69S112.8,247,115.35,254s4.26,31.32,9.36,35.74,8.17-6.13,11.66-8,7.92,1,7.92,7.15-2.22,17.36-6.13,21.45-5.62,9.19-4.6,18.72,0,16.85-6.46,25.7-7.66,15.83-2.9,24.51,45.11,35.41,53.28,41.7,15.32,13.45,20.25,29.28,2.22,21.28,14,31.15,22.13,15.83,25.87,23.83S239.78,525,239.78,525s9.19,3.24,8.85,12.94-6,17.36-7,26.38-1.36,14.3-4.43,19.58-7.66,7.32-7.66,15.15.34,14.47-3.06,18.89-7.83,6.47-8.34,17.87,2.21,31.15.85,40.51-4.6,21.62-3.4,27.07,4.93,14.47,4.93,14.47-2.89,15.31-1,20.93,8.17,14.47,9.53,27.92,7.49,32.68,17.53,26,5.45-24.51,10-26.89,11.74,2.21,21.27,11.74,17.54,10.21,24.17,12.6,10.73,9.53,14.64,14.46,15.66,3.92,20.43,10.22,10.55,19.4,20.25,24.17,18.05,2.89,21.28-1.53,6.64-12.6,14.13-10.73,11.06,8.51,16.34,10.56,18.21.85,22,7.31,1.7,13.28,9.36,15.15,18.38-8.17,28.42-9.53,23-4.08,21.79-14.64-5.29-17.53.08-26.21,7.07-18.89,2.47-20.94-7.66-2-12.25,6.47-7.83,15.66-26.39,4.77-25.53-14.64-37.1-13.45-13.45,7.83-29.11,2-22.81-7-24.51-13.61S369,758.19,360,741.85s-32.68-52.94-41.71-57-14.29-3.06-24.85,2.9-18.38,1.36-19.74-6.81-4.72-23.49-8.92-31.49-6.23-25.87-1.8-41.53,8.68-30,7.48-40a76,76,0,0,0-4.93-18.73s8.51-23.31,7-40.17-.68-17.87,1.7-25.19-1.7-22.12-6.13-26.72S265,446.87,264,443.46s-4.26-6.81-4.26-6.81,25.36-19.23,34.38-13.78S296,442.61,300.2,454s16.68,18.38,31.49,14.12,18.38-13.44,30-10.21,26,13.79,33.7,13.62,8.34-1.36,17.19,1.36,23.32-3.75,16-18.21-25.19-17.19-26.89-30.47-3.92-26-4.94-32.17-8.17-20.6,1.87-33.36,32.69-29.28,43.58-35.07,23.32-11.23,38.47-9.19,20.76-5.79,28.08-3.91,11.58,3.91,16.68.51,4.77-17.53,9.71-25.88,9-23.48,4.08-41.7-10.38-31.83-20.43-34.89-40.68-10.72-44.93-23.15-10.72-65-19.07-70.13-21.27.68-28.59-5.1-13.28-15.32-23-16S386.33,94,377.31,90.1s-12.26-4.42-18.73,7S352.8,130.44,341.9,132s-31.32-11.23-38.29-8.85-5.79,17.7-14.64,18.39-12.6-1.71-16.17,3.57S254,185,246.93,171.8Z"/></g></svg>